<svg width="80" height="81" viewBox="0 0 80 81" fill="none" xmlns="http://www.w3.org/2000/svg">
<rect y="0.529785" width="80" height="80" rx="40" fill="#042147"/>
<path d="M57.5 36.7798H55.725L51.4453 29.2892C51.2266 28.9066 50.9107 28.5886 50.5296 28.3675C50.1485 28.1463 49.7157 28.0298 49.275 28.0298H30.725C30.2843 28.0298 29.8515 28.1463 29.4704 28.3675C29.0893 28.5886 28.7734 28.9066 28.5547 29.2892L24.275 36.7798H22.5C22.1685 36.7798 21.8505 36.9115 21.6161 37.1459C21.3817 37.3803 21.25 37.6983 21.25 38.0298C21.25 38.3613 21.3817 38.6792 21.6161 38.9137C21.8505 39.1481 22.1685 39.2798 22.5 39.2798H23.75V51.7798C23.75 52.4428 24.0134 53.0787 24.4822 53.5476C24.9511 54.0164 25.587 54.2798 26.25 54.2798H30C30.663 54.2798 31.2989 54.0164 31.7678 53.5476C32.2366 53.0787 32.5 52.4428 32.5 51.7798V49.2798H47.5V51.7798C47.5 52.4428 47.7634 53.0787 48.2322 53.5476C48.7011 54.0164 49.337 54.2798 50 54.2798H53.75C54.413 54.2798 55.0489 54.0164 55.5178 53.5476C55.9866 53.0787 56.25 52.4428 56.25 51.7798V39.2798H57.5C57.8315 39.2798 58.1495 39.1481 58.3839 38.9137C58.6183 38.6792 58.75 38.3613 58.75 38.0298C58.75 37.6983 58.6183 37.3803 58.3839 37.1459C58.1495 36.9115 57.8315 36.7798 57.5 36.7798ZM30.725 30.5298H49.275L52.8453 36.7798H27.1547L30.725 30.5298ZM30 51.7798H26.25V49.2798H30V51.7798ZM50 51.7798V49.2798H53.75V51.7798H50ZM53.75 46.7798H26.25V39.2798H53.75V46.7798ZM28.75 43.0298C28.75 42.6983 28.8817 42.3803 29.1161 42.1459C29.3505 41.9115 29.6685 41.7798 30 41.7798H32.5C32.8315 41.7798 33.1495 41.9115 33.3839 42.1459C33.6183 42.3803 33.75 42.6983 33.75 43.0298C33.75 43.3613 33.6183 43.6792 33.3839 43.9137C33.1495 44.1481 32.8315 44.2798 32.5 44.2798H30C29.6685 44.2798 29.3505 44.1481 29.1161 43.9137C28.8817 43.6792 28.75 43.3613 28.75 43.0298ZM46.25 43.0298C46.25 42.6983 46.3817 42.3803 46.6161 42.1459C46.8505 41.9115 47.1685 41.7798 47.5 41.7798H50C50.3315 41.7798 50.6495 41.9115 50.8839 42.1459C51.1183 42.3803 51.25 42.6983 51.25 43.0298C51.25 43.3613 51.1183 43.6792 50.8839 43.9137C50.6495 44.1481 50.3315 44.2798 50 44.2798H47.5C47.1685 44.2798 46.8505 44.1481 46.6161 43.9137C46.3817 43.6792 46.25 43.3613 46.25 43.0298ZM35 24.2798C35 23.9483 35.1317 23.6303 35.3661 23.3959C35.6005 23.1615 35.9185 23.0298 36.25 23.0298H43.75C44.0815 23.0298 44.3995 23.1615 44.6339 23.3959C44.8683 23.6303 45 23.9483 45 24.2798C45 24.6113 44.8683 24.9292 44.6339 25.1637C44.3995 25.3981 44.0815 25.5298 43.75 25.5298H36.25C35.9185 25.5298 35.6005 25.3981 35.3661 25.1637C35.1317 24.9292 35 24.6113 35 24.2798Z" fill="#DBFE01"/>
</svg>
