<svg width="80" height="81" viewBox="0 0 80 81" fill="none" xmlns="http://www.w3.org/2000/svg">
<rect y="0.529785" width="80" height="80" rx="40" fill="#042147"/>
<g clip-path="url(#clip0_1528_906)">
<path d="M38.75 23.0298V21.7798C38.75 21.4483 38.8817 21.1303 39.1161 20.8959C39.3505 20.6615 39.6685 20.5298 40 20.5298C40.3315 20.5298 40.6495 20.6615 40.8839 20.8959C41.1183 21.1303 41.25 21.4483 41.25 21.7798V23.0298C41.25 23.3613 41.1183 23.6792 40.8839 23.9137C40.6495 24.1481 40.3315 24.2798 40 24.2798C39.6685 24.2798 39.3505 24.1481 39.1161 23.9137C38.8817 23.6792 38.75 23.3613 38.75 23.0298ZM51.25 28.0298C51.4142 28.0299 51.5768 27.9977 51.7286 27.935C51.8803 27.8722 52.0182 27.7802 52.1344 27.6642L53.3844 26.4142C53.6189 26.1796 53.7507 25.8615 53.7507 25.5298C53.7507 25.1981 53.6189 24.88 53.3844 24.6454C53.1498 24.4109 52.8317 24.2791 52.5 24.2791C52.1683 24.2791 51.8502 24.4109 51.6156 24.6454L50.3656 25.8954C50.1906 26.0702 50.0714 26.293 50.0231 26.5357C49.9748 26.7783 49.9995 27.0297 50.0942 27.2583C50.1889 27.4868 50.3493 27.6821 50.555 27.8194C50.7608 27.9568 51.0026 28.03 51.25 28.0298ZM27.8656 27.6642C27.9818 27.7803 28.1196 27.8724 28.2714 27.9353C28.4231 27.9981 28.5858 28.0305 28.75 28.0305C28.9142 28.0305 29.0769 27.9981 29.2286 27.9353C29.3804 27.8724 29.5182 27.7803 29.6344 27.6642C29.7505 27.548 29.8426 27.4101 29.9055 27.2584C29.9683 27.1067 30.0007 26.944 30.0007 26.7798C30.0007 26.6155 29.9683 26.4529 29.9055 26.3012C29.8426 26.1494 29.7505 26.0115 29.6344 25.8954L28.3844 24.6454C28.1498 24.4109 27.8317 24.2791 27.5 24.2791C27.1683 24.2791 26.8502 24.4109 26.6156 24.6454C26.3811 24.88 26.2493 25.1981 26.2493 25.5298C26.2493 25.8615 26.3811 26.1796 26.6156 26.4142L27.8656 27.6642ZM41.4594 31.797C41.2968 31.7682 41.1301 31.772 40.9689 31.808C40.8078 31.844 40.6554 31.9116 40.5205 32.0069C40.3856 32.1022 40.271 32.2232 40.1831 32.3631C40.0953 32.5029 40.0361 32.6588 40.0088 32.8216C39.9816 32.9845 39.9869 33.1511 40.0244 33.3119C40.0619 33.4727 40.1309 33.6245 40.2275 33.7585C40.324 33.8925 40.4461 34.006 40.5867 34.0925C40.7274 34.1791 40.8838 34.2369 41.0469 34.2626C44.0109 34.761 46.25 37.4548 46.25 40.5298C46.25 40.8613 46.3817 41.1792 46.6161 41.4137C46.8505 41.6481 47.1685 41.7798 47.5 41.7798C47.8315 41.7798 48.1495 41.6481 48.3839 41.4137C48.6183 41.1792 48.75 40.8613 48.75 40.5298C48.75 36.2485 45.6141 32.4938 41.4563 31.797H41.4594ZM56.25 48.0298V51.7798C56.25 52.4428 55.9866 53.0787 55.5178 53.5476C55.0489 54.0164 54.413 54.2798 53.75 54.2798H26.25C25.587 54.2798 24.9511 54.0164 24.4822 53.5476C24.0134 53.0787 23.75 52.4428 23.75 51.7798V48.0298C23.75 47.3667 24.0134 46.7309 24.4822 46.262C24.9511 45.7932 25.587 45.5298 26.25 45.5298V40.5298C26.2499 38.7153 26.609 36.9187 27.3066 35.2436C28.0041 33.5685 29.0263 32.048 30.3142 30.7699C31.6021 29.4917 33.1303 28.4811 34.8106 27.7962C36.491 27.1114 38.2902 26.766 40.1047 26.7798C47.6281 26.836 53.75 33.0751 53.75 40.686V45.5298C54.413 45.5298 55.0489 45.7932 55.5178 46.262C55.9866 46.7309 56.25 47.3667 56.25 48.0298ZM28.75 45.5298H51.25V40.686C51.25 34.436 46.2422 29.3251 40.0859 29.2798H40C37.0163 29.2798 34.1548 30.465 32.045 32.5748C29.9353 34.6846 28.75 37.5461 28.75 40.5298V45.5298ZM53.75 51.7798V48.0298H26.25V51.7798H53.75Z" fill="#DBFE01"/>
</g>
<defs>
<clipPath id="clip0_1528_906">
<rect width="40" height="40" fill="white" transform="translate(20 20.5298)"/>
</clipPath>
</defs>
</svg>
