<svg width="80" height="81" viewBox="0 0 80 81" fill="none" xmlns="http://www.w3.org/2000/svg">
<rect y="0.529785" width="80" height="80" rx="40" fill="#042147"/>
<path d="M57.5 38.0298H53.0172L46.25 31.2626C46.0187 31.0295 45.7434 30.8446 45.44 30.7188C45.1366 30.593 44.8112 30.5287 44.4828 30.5298H26.9187C26.5081 30.5306 26.104 30.6325 25.7421 30.8265C25.3802 31.0205 25.0717 31.3007 24.8438 31.6423L20.2094 38.586C20.0732 38.7918 20.0004 39.033 20 39.2798V46.7798C20 47.4428 20.2634 48.0787 20.7322 48.5476C21.2011 49.0164 21.837 49.2798 22.5 49.2798H25.1562C25.4316 50.3553 26.0571 51.3086 26.9341 51.9893C27.8111 52.6701 28.8898 53.0396 30 53.0396C31.1102 53.0396 32.1889 52.6701 33.0659 51.9893C33.9429 51.3086 34.5684 50.3553 34.8438 49.2798H45.1562C45.4316 50.3553 46.0571 51.3086 46.9341 51.9893C47.8111 52.6701 48.8898 53.0396 50 53.0396C51.1102 53.0396 52.1889 52.6701 53.0659 51.9893C53.9429 51.3086 54.5684 50.3553 54.8438 49.2798H57.5C58.163 49.2798 58.7989 49.0164 59.2678 48.5476C59.7366 48.0787 60 47.4428 60 46.7798V40.5298C60 39.8668 59.7366 39.2309 59.2678 38.762C58.7989 38.2932 58.163 38.0298 57.5 38.0298ZM26.9187 33.0298H44.4828L49.4828 38.0298H23.5938L26.9187 33.0298ZM30 50.5298C29.5055 50.5298 29.0222 50.3832 28.6111 50.1085C28.2 49.8338 27.8795 49.4433 27.6903 48.9865C27.5011 48.5297 27.4516 48.027 27.548 47.5421C27.6445 47.0571 27.8826 46.6117 28.2322 46.262C28.5819 45.9124 29.0273 45.6743 29.5123 45.5778C29.9972 45.4814 30.4999 45.5309 30.9567 45.7201C31.4135 45.9093 31.804 46.2298 32.0787 46.6409C32.3534 47.052 32.5 47.5353 32.5 48.0298C32.5 48.6928 32.2366 49.3287 31.7678 49.7976C31.2989 50.2664 30.663 50.5298 30 50.5298ZM50 50.5298C49.5055 50.5298 49.0222 50.3832 48.6111 50.1085C48.2 49.8338 47.8795 49.4433 47.6903 48.9865C47.5011 48.5297 47.4516 48.027 47.548 47.5421C47.6445 47.0571 47.8826 46.6117 48.2322 46.262C48.5819 45.9124 49.0273 45.6743 49.5123 45.5778C49.9972 45.4814 50.4999 45.5309 50.9567 45.7201C51.4135 45.9093 51.804 46.2298 52.0787 46.6409C52.3534 47.052 52.5 47.5353 52.5 48.0298C52.5 48.6928 52.2366 49.3287 51.7678 49.7976C51.2989 50.2664 50.663 50.5298 50 50.5298ZM57.5 46.7798H54.8438C54.5684 45.7043 53.9429 44.751 53.0659 44.0703C52.1889 43.3895 51.1102 43.02 50 43.02C48.8898 43.02 47.8111 43.3895 46.9341 44.0703C46.0571 44.751 45.4316 45.7043 45.1562 46.7798H34.8438C34.5684 45.7043 33.9429 44.751 33.0659 44.0703C32.1889 43.3895 31.1102 43.02 30 43.02C28.8898 43.02 27.8111 43.3895 26.9341 44.0703C26.0571 44.751 25.4316 45.7043 25.1562 46.7798H22.5V40.5298H57.5V46.7798Z" fill="#DBFE01"/>
</svg>
