<svg width="80" height="81" viewBox="0 0 80 81" fill="none" xmlns="http://www.w3.org/2000/svg">
<rect y="0.529785" width="80" height="80" rx="40" fill="#042147"/>
<path d="M53.75 29.2798H47.5V28.0298C47.5 27.0352 47.1049 26.0814 46.4017 25.3781C45.6984 24.6749 44.7446 24.2798 43.75 24.2798H36.25C35.2554 24.2798 34.3016 24.6749 33.5983 25.3781C32.8951 26.0814 32.5 27.0352 32.5 28.0298V29.2798H26.25C25.587 29.2798 24.9511 29.5432 24.4822 30.012C24.0134 30.4809 23.75 31.1167 23.75 31.7798V51.7798C23.75 52.4428 24.0134 53.0787 24.4822 53.5476C24.9511 54.0164 25.587 54.2798 26.25 54.2798H53.75C54.413 54.2798 55.0489 54.0164 55.5178 53.5476C55.9866 53.0787 56.25 52.4428 56.25 51.7798V31.7798C56.25 31.1167 55.9866 30.4809 55.5178 30.012C55.0489 29.5432 54.413 29.2798 53.75 29.2798ZM35 28.0298C35 27.6983 35.1317 27.3803 35.3661 27.1459C35.6005 26.9115 35.9185 26.7798 36.25 26.7798H43.75C44.0815 26.7798 44.3995 26.9115 44.6339 27.1459C44.8683 27.3803 45 27.6983 45 28.0298V29.2798H35V28.0298ZM53.75 51.7798H26.25V31.7798H53.75V51.7798ZM45 41.7798C45 42.1113 44.8683 42.4292 44.6339 42.6637C44.3995 42.8981 44.0815 43.0298 43.75 43.0298H41.25V45.5298C41.25 45.8613 41.1183 46.1792 40.8839 46.4137C40.6495 46.6481 40.3315 46.7798 40 46.7798C39.6685 46.7798 39.3505 46.6481 39.1161 46.4137C38.8817 46.1792 38.75 45.8613 38.75 45.5298V43.0298H36.25C35.9185 43.0298 35.6005 42.8981 35.3661 42.6637C35.1317 42.4292 35 42.1113 35 41.7798C35 41.4483 35.1317 41.1303 35.3661 40.8959C35.6005 40.6615 35.9185 40.5298 36.25 40.5298H38.75V38.0298C38.75 37.6983 38.8817 37.3803 39.1161 37.1459C39.3505 36.9115 39.6685 36.7798 40 36.7798C40.3315 36.7798 40.6495 36.9115 40.8839 37.1459C41.1183 37.3803 41.25 37.6983 41.25 38.0298V40.5298H43.75C44.0815 40.5298 44.3995 40.6615 44.6339 40.8959C44.8683 41.1303 45 41.4483 45 41.7798Z" fill="#DBFE01"/>
</svg>
