<svg width="80" height="81" viewBox="0 0 80 81" fill="none" xmlns="http://www.w3.org/2000/svg">
<rect y="0.529785" width="80" height="80" rx="40" fill="#042147"/>
<g clip-path="url(#clip0_1518_1801)">
<path d="M58.7502 41.7798C58.4186 41.7798 58.1007 41.9115 57.8663 42.1459C57.6319 42.3803 57.5002 42.6983 57.5002 43.0298V45.5298H50.5173L47.6564 42.6641L55.522 34.797C55.9905 34.3282 56.2537 33.6925 56.2537 33.0298C56.2537 32.367 55.9905 31.7314 55.522 31.2626L46.772 22.5126C46.5399 22.2804 46.2643 22.0962 45.9609 21.9705C45.6576 21.8448 45.3324 21.7802 45.0041 21.7802C44.6757 21.7802 44.3506 21.8448 44.0472 21.9705C43.7439 22.0962 43.4683 22.2804 43.2361 22.5126L20.4564 45.3641C20.2384 45.5828 20.0901 45.8612 20.0302 46.1642C19.9703 46.4671 20.0015 46.781 20.1198 47.0662C20.2382 47.3514 20.4384 47.5951 20.6952 47.7666C20.952 47.9381 21.2539 48.0297 21.5627 48.0298H27.7142L33.233 53.547C33.7018 54.0154 34.3374 54.2786 35.0002 54.2786C35.6629 54.2786 36.2986 54.0154 36.7673 53.547L45.8845 44.436L48.7502 47.297C48.9815 47.5301 49.2568 47.715 49.5602 47.8408C49.8636 47.9666 50.1889 48.0308 50.5173 48.0298H57.5002V50.5298C57.5002 50.8613 57.6319 51.1792 57.8663 51.4137C58.1007 51.6481 58.4186 51.7798 58.7502 51.7798C59.0817 51.7798 59.3996 51.6481 59.634 51.4137C59.8685 51.1792 60.0002 50.8613 60.0002 50.5298V43.0298C60.0002 42.6983 59.8685 42.3803 59.634 42.1459C59.3996 41.9115 59.0817 41.7798 58.7502 41.7798ZM45.0002 24.2798L46.983 26.2626L27.7142 45.5298H23.822L45.0002 24.2798ZM35.0002 51.7798L30.0002 46.7798L48.7502 28.0298L53.7502 33.0298L35.0002 51.7798Z" fill="#DBFE01"/>
</g>
<defs>
<clipPath id="clip0_1518_1801">
<rect width="40" height="40" fill="white" transform="translate(20 20.5298)"/>
</clipPath>
</defs>
</svg>
