<svg width="80" height="81" viewBox="0 0 80 81" fill="none" xmlns="http://www.w3.org/2000/svg">
<rect y="0.529785" width="80" height="80" rx="40" fill="#042147"/>
<path d="M46.25 26.8704V25.5298C46.25 24.5352 45.8549 23.5814 45.1517 22.8781C44.4484 22.1749 43.4946 21.7798 42.5 21.7798H37.5C36.5054 21.7798 35.5516 22.1749 34.8483 22.8781C34.1451 23.5814 33.75 24.5352 33.75 25.5298V26.8704C31.6689 27.1737 29.7662 28.2153 28.3893 29.8051C27.0124 31.3948 26.2531 33.4267 26.25 35.5298V54.2798C26.25 54.9428 26.5134 55.5787 26.9822 56.0476C27.4511 56.5164 28.087 56.7798 28.75 56.7798H51.25C51.913 56.7798 52.5489 56.5164 53.0178 56.0476C53.4866 55.5787 53.75 54.9428 53.75 54.2798V35.5298C53.7469 33.4267 52.9876 31.3948 51.6107 29.8051C50.2338 28.2153 48.3311 27.1737 46.25 26.8704ZM37.5 24.2798H42.5C42.8315 24.2798 43.1495 24.4115 43.3839 24.6459C43.6183 24.8803 43.75 25.1983 43.75 25.5298V26.7798H36.25V25.5298C36.25 25.1983 36.3817 24.8803 36.6161 24.6459C36.8505 24.4115 37.1685 24.2798 37.5 24.2798ZM46.25 45.5298H33.75V44.2798C33.75 43.9483 33.8817 43.6303 34.1161 43.3959C34.3505 43.1615 34.6685 43.0298 35 43.0298H45C45.3315 43.0298 45.6495 43.1615 45.8839 43.3959C46.1183 43.6303 46.25 43.9483 46.25 44.2798V45.5298ZM33.75 48.0298H41.25V49.2798C41.25 49.6113 41.3817 49.9292 41.6161 50.1637C41.8505 50.3981 42.1685 50.5298 42.5 50.5298C42.8315 50.5298 43.1495 50.3981 43.3839 50.1637C43.6183 49.9292 43.75 49.6113 43.75 49.2798V48.0298H46.25V54.2798H33.75V48.0298ZM51.25 54.2798H48.75V44.2798C48.75 43.2852 48.3549 42.3314 47.6517 41.6281C46.9484 40.9249 45.9946 40.5298 45 40.5298H35C34.0054 40.5298 33.0516 40.9249 32.3483 41.6281C31.6451 42.3314 31.25 43.2852 31.25 44.2798V54.2798H28.75V35.5298C28.75 33.8722 29.4085 32.2825 30.5806 31.1104C31.7527 29.9383 33.3424 29.2798 35 29.2798H45C46.6576 29.2798 48.2473 29.9383 49.4194 31.1104C50.5915 32.2825 51.25 33.8722 51.25 35.5298V54.2798ZM43.75 34.2798C43.75 34.6113 43.6183 34.9292 43.3839 35.1637C43.1495 35.3981 42.8315 35.5298 42.5 35.5298H37.5C37.1685 35.5298 36.8505 35.3981 36.6161 35.1637C36.3817 34.9292 36.25 34.6113 36.25 34.2798C36.25 33.9483 36.3817 33.6303 36.6161 33.3959C36.8505 33.1615 37.1685 33.0298 37.5 33.0298H42.5C42.8315 33.0298 43.1495 33.1615 43.3839 33.3959C43.6183 33.6303 43.75 33.9483 43.75 34.2798Z" fill="#DBFE01"/>
</svg>
