<svg width="80" height="81" viewBox="0 0 80 81" fill="none" xmlns="http://www.w3.org/2000/svg">
<rect y="0.529785" width="80" height="80" rx="40" fill="#042147"/>
<path d="M56.25 54.2798H52.5V26.7798C52.5 26.1167 52.2366 25.4809 51.7678 25.012C51.2989 24.5432 50.663 24.2798 50 24.2798H30C29.337 24.2798 28.7011 24.5432 28.2322 25.012C27.7634 25.4809 27.5 26.1167 27.5 26.7798V54.2798H23.75C23.4185 54.2798 23.1005 54.4115 22.8661 54.6459C22.6317 54.8803 22.5 55.1983 22.5 55.5298C22.5 55.8613 22.6317 56.1792 22.8661 56.4137C23.1005 56.6481 23.4185 56.7798 23.75 56.7798H56.25C56.5815 56.7798 56.8995 56.6481 57.1339 56.4137C57.3683 56.1792 57.5 55.8613 57.5 55.5298C57.5 55.1983 57.3683 54.8803 57.1339 54.6459C56.8995 54.4115 56.5815 54.2798 56.25 54.2798ZM30 26.7798H50V54.2798H30V26.7798Z" fill="#DBFE01"/>
</svg>
