<svg width="80" height="81" viewBox="0 0 80 81" fill="none" xmlns="http://www.w3.org/2000/svg">
<rect y="0.529785" width="80" height="80" rx="40" fill="#042147"/>
<path d="M36.747 24.3314C36.1814 24.2123 35.5919 24.2947 35.0806 24.5643C34.5692 24.834 34.1683 25.2739 33.947 25.8079L33.9377 25.8298L23.9377 50.8189C23.7793 51.1991 23.7174 51.6126 23.7574 52.0226C23.7974 52.4325 23.9381 52.8262 24.1669 53.1687C24.3958 53.5112 24.7057 53.7918 25.0691 53.9857C25.4326 54.1795 25.8383 54.2806 26.2502 54.2798H36.2502C36.9132 54.2798 37.5491 54.0164 38.0179 53.5476C38.4868 53.0787 38.7502 52.4428 38.7502 51.7798V26.7798C38.7543 26.2021 38.5563 25.6412 38.1905 25.1941C37.8247 24.747 37.3141 24.4418 36.747 24.3314ZM36.2502 51.7798H26.2502L26.2595 51.7564L36.2502 26.7798V51.7798ZM56.058 50.8189L46.058 25.8298L46.0486 25.8079C45.8225 25.2794 45.421 24.8449 44.912 24.5777C44.4029 24.3105 43.8173 24.2269 43.2539 24.3411C42.6904 24.4552 42.1835 24.76 41.8185 25.2043C41.4535 25.6485 41.2528 26.2049 41.2502 26.7798V51.7798C41.2502 52.4428 41.5136 53.0787 41.9824 53.5476C42.4512 54.0164 43.0871 54.2798 43.7502 54.2798H53.7502C54.1618 54.28 54.5671 54.1786 54.9301 53.9846C55.2932 53.7905 55.6027 53.5098 55.8311 53.1674C56.0596 52.825 56.2 52.4315 56.2399 52.0218C56.2797 51.6121 56.2178 51.1989 56.0595 50.8189H56.058ZM43.7502 51.7798V26.7798L53.7392 51.7548L53.7486 51.7782L43.7502 51.7798Z" fill="#DBFE01"/>
</svg>
