<svg width="73" height="74" viewBox="0 0 73 74" fill="none" xmlns="http://www.w3.org/2000/svg">
<rect y="0.529785" width="73" height="73" rx="36.5" fill="#042147"/>
<path d="M36.1875 38.2798C36.1875 38.5284 36.0887 38.7669 35.9129 38.9427C35.7371 39.1185 35.4986 39.2173 35.25 39.2173H27.75C27.5014 39.2173 27.2629 39.1185 27.0871 38.9427C26.9113 38.7669 26.8125 38.5284 26.8125 38.2798C26.8125 38.0311 26.9113 37.7927 27.0871 37.6169C27.2629 37.4411 27.5014 37.3423 27.75 37.3423H35.25C35.4986 37.3423 35.7371 37.4411 35.9129 37.6169C36.0887 37.7927 36.1875 38.0311 36.1875 38.2798ZM35.25 32.3423H27.75C27.5014 32.3423 27.2629 32.4411 27.0871 32.6169C26.9113 32.7927 26.8125 33.0311 26.8125 33.2798C26.8125 33.5284 26.9113 33.7669 27.0871 33.9427C27.2629 34.1185 27.5014 34.2173 27.75 34.2173H35.25C35.4986 34.2173 35.7371 34.1185 35.9129 33.9427C36.0887 33.7669 36.1875 33.5284 36.1875 33.2798C36.1875 33.0311 36.0887 32.7927 35.9129 32.6169C35.7371 32.4411 35.4986 32.3423 35.25 32.3423ZM52.4375 42.1267V52.0298C52.4379 52.1945 52.3948 52.3565 52.3127 52.4993C52.2306 52.6421 52.1123 52.7608 51.9697 52.8433C51.8271 52.9258 51.6653 52.9694 51.5005 52.9694C51.3358 52.9695 51.1739 52.9262 51.0312 52.8438L47.125 50.6095L43.2187 52.8438C43.0761 52.9262 42.9142 52.9695 42.7495 52.9694C42.5847 52.9694 42.4229 52.9258 42.2803 52.8433C42.1377 52.7608 42.0194 52.6421 41.9373 52.4993C41.8552 52.3565 41.8121 52.1945 41.8125 52.0298V47.9673H22.75C22.1698 47.9673 21.6134 47.7368 21.2032 47.3266C20.793 46.9163 20.5625 46.3599 20.5625 45.7798V25.7798C20.5625 25.1996 20.793 24.6432 21.2032 24.233C21.6134 23.8228 22.1698 23.5923 22.75 23.5923H50.25C50.8302 23.5923 51.3866 23.8228 51.7968 24.233C52.207 24.6432 52.4375 25.1996 52.4375 25.7798V30.6829C53.2259 31.413 53.8549 32.2981 54.2851 33.2827C54.7152 34.2674 54.9373 35.3303 54.9373 36.4048C54.9373 37.4793 54.7152 38.5422 54.2851 39.5268C53.8549 40.5115 53.2259 41.3966 52.4375 42.1267ZM47.125 30.4673C45.9507 30.4673 44.8027 30.8155 43.8263 31.4679C42.8499 32.1204 42.0889 33.0477 41.6395 34.1326C41.1901 35.2175 41.0725 36.4114 41.3016 37.5631C41.5307 38.7149 42.0962 39.7729 42.9266 40.6032C43.7569 41.4336 44.8149 41.9991 45.9666 42.2282C47.1184 42.4573 48.3122 42.3397 49.3972 41.8903C50.4821 41.4409 51.4094 40.6799 52.0618 39.7035C52.7143 38.7271 53.0625 37.5791 53.0625 36.4048C53.0625 34.8301 52.4369 33.3198 51.3234 32.2063C50.2099 31.0928 48.6997 30.4673 47.125 30.4673ZM41.8125 46.0923V42.1267C40.4445 40.85 39.5802 39.1248 39.3767 37.2647C39.1732 35.4047 39.644 33.5333 40.7036 31.9911C41.7632 30.4488 43.3411 29.3381 45.1504 28.8609C46.9597 28.3837 48.8801 28.5717 50.5625 29.3907V25.7798C50.5625 25.6969 50.5296 25.6174 50.471 25.5588C50.4124 25.5002 50.3329 25.4673 50.25 25.4673H22.75C22.6671 25.4673 22.5876 25.5002 22.529 25.5588C22.4704 25.6174 22.4375 25.6969 22.4375 25.7798V45.7798C22.4375 45.8627 22.4704 45.9422 22.529 46.0008C22.5876 46.0594 22.6671 46.0923 22.75 46.0923H41.8125ZM50.5625 43.4188C49.4927 43.9442 48.3168 44.2173 47.125 44.2173C45.9332 44.2173 44.7573 43.9442 43.6875 43.4188V50.4142L46.6562 48.7157C46.7988 48.6334 46.9604 48.5901 47.125 48.5901C47.2896 48.5901 47.4512 48.6334 47.5937 48.7157L50.5625 50.4142V43.4188Z" fill="#DBFE01"/>
</svg>
