<svg width="73" height="74" viewBox="0 0 73 74" fill="none" xmlns="http://www.w3.org/2000/svg">
<rect y="0.529785" width="73" height="73" rx="36.5" fill="#042147"/>
<path d="M40.0938 38.7797C40.6649 38.0955 41.0292 37.2627 41.1439 36.3788C41.2585 35.4949 41.1188 34.5967 40.7411 33.7894C40.3634 32.9821 39.7634 32.2992 39.0114 31.8208C38.2594 31.3424 37.3866 31.0883 36.4953 31.0883C35.604 31.0883 34.7312 31.3424 33.9792 31.8208C33.2272 32.2992 32.6272 32.9821 32.2495 33.7894C31.8718 34.5967 31.7321 35.4949 31.8468 36.3788C31.9614 37.2627 32.3257 38.0955 32.8969 38.7797C32.2565 38.9982 31.6942 39.3997 31.2797 39.9344C30.959 40.3433 30.7367 40.8205 30.6299 41.3291C30.5232 41.8376 30.5349 42.3639 30.6641 42.8672L32.5672 50.3672C32.7598 51.1149 33.1966 51.7769 33.8084 52.2479C34.4201 52.719 35.1717 52.9721 35.9438 52.9672H37.0563C37.8275 52.9711 38.578 52.7174 39.1888 52.2465C39.7996 51.7755 40.2358 51.1142 40.4281 50.3672L42.3313 42.8672C42.4605 42.3639 42.4721 41.8376 42.3654 41.3291C42.2586 40.8205 42.0363 40.3433 41.7156 39.9344C41.2998 39.3989 40.7358 38.9974 40.0938 38.7797ZM36.5 32.9672C37.0563 32.9672 37.6 33.1322 38.0625 33.4412C38.5251 33.7503 38.8855 34.1895 39.0984 34.7034C39.3113 35.2174 39.367 35.7829 39.2585 36.3284C39.1499 36.874 38.8821 37.3751 38.4887 37.7685C38.0954 38.1618 37.5943 38.4297 37.0487 38.5382C36.5031 38.6467 35.9376 38.591 35.4237 38.3782C34.9098 38.1653 34.4705 37.8048 34.1615 37.3423C33.8525 36.8798 33.6875 36.336 33.6875 35.7797C33.6875 35.0338 33.9838 34.3185 34.5113 33.791C35.0387 33.2636 35.7541 32.9672 36.5 32.9672ZM40.5141 42.4047L38.6109 49.9047C38.5209 50.2475 38.3191 50.5503 38.0375 50.7654C37.7559 50.9805 37.4106 51.0955 37.0563 51.0922H35.9438C35.5881 51.0973 35.241 50.9831 34.9578 50.7679C34.6746 50.5526 34.4716 50.2488 34.3813 49.9047L32.4781 42.4047C32.4202 42.1783 32.4152 41.9416 32.4634 41.7129C32.5117 41.4843 32.6118 41.2698 32.7563 41.086C32.9064 40.8908 33.0996 40.7329 33.3207 40.6245C33.5418 40.5161 33.785 40.4601 34.0313 40.461H38.9531C39.1994 40.4601 39.4425 40.5161 39.6637 40.6245C39.8848 40.7329 40.078 40.8908 40.2281 41.086C40.3739 41.2691 40.4755 41.4833 40.5251 41.712C40.5747 41.9407 40.5709 42.1777 40.5141 42.4047ZM45.5625 37.0297C45.5608 35.7369 45.2824 34.4594 44.7462 33.283C44.2099 32.1067 43.4282 31.0586 42.4535 30.2093C41.4788 29.36 40.3336 28.7291 39.0949 28.3589C37.8562 27.9887 36.5526 27.8879 35.2717 28.0631C33.9908 28.2383 32.7622 28.6856 31.6685 29.3749C30.5747 30.0641 29.641 30.9794 28.9302 32.0593C28.2194 33.1392 27.7479 34.3587 27.5473 35.6358C27.3467 36.913 27.4217 38.2183 27.7672 39.4641C27.8279 39.7018 27.793 39.9537 27.6701 40.166C27.5472 40.3782 27.346 40.5338 27.1097 40.5994C26.8734 40.6651 26.6207 40.6355 26.406 40.517C26.1912 40.3985 26.0315 40.2006 25.9609 39.9657C25.51 38.3412 25.4408 36.6344 25.7586 34.9787C26.0764 33.323 26.7727 31.7631 27.793 30.421C28.8133 29.0789 30.1301 27.9908 31.6405 27.2417C33.1509 26.4927 34.8141 26.1029 36.5 26.1029C38.1859 26.1029 39.8491 26.4927 41.3595 27.2417C42.8699 27.9908 44.1867 29.0789 45.207 30.421C46.2274 31.7631 46.9236 33.323 47.2414 34.9787C47.5592 36.6344 47.49 38.3412 47.0391 39.9657C46.9685 40.2006 46.8088 40.3985 46.594 40.517C46.3793 40.6355 46.1266 40.6651 45.8903 40.5994C45.654 40.5338 45.4528 40.3782 45.3299 40.166C45.207 39.9537 45.1721 39.7018 45.2328 39.4641C45.4521 38.6713 45.563 37.8524 45.5625 37.0297ZM52.4375 37.0297C52.4389 39.6498 51.7939 42.2297 50.5594 44.5408C49.325 46.8518 47.5394 48.8225 45.3609 50.2782C45.1537 50.4166 44.9 50.467 44.6557 50.4184C44.4113 50.3697 44.1962 50.226 44.0578 50.0188C43.9194 49.8116 43.869 49.5579 43.9176 49.3135C43.9663 49.0691 44.11 48.8541 44.3172 48.7157C46.8246 47.0389 48.7264 44.6002 49.7418 41.7598C50.7572 38.9194 50.8324 35.8278 49.9562 32.9414C49.08 30.055 47.2989 27.5269 44.8759 25.7302C42.4529 23.9336 39.5164 22.9636 36.5 22.9636C33.4836 22.9636 30.5471 23.9336 28.1241 25.7302C25.7011 27.5269 23.92 30.055 23.0438 32.9414C22.1676 35.8278 22.2428 38.9194 23.2582 41.7598C24.2736 44.6002 26.1754 47.0389 28.6828 48.7157C28.89 48.8541 29.0337 49.0691 29.0824 49.3135C29.131 49.5579 29.0806 49.8116 28.9422 50.0188C28.8038 50.226 28.5887 50.3697 28.3443 50.4184C28.1 50.467 27.8463 50.4166 27.6391 50.2782C25.3508 48.7476 23.498 46.6503 22.2612 44.1907C21.0245 41.7311 20.4459 38.9931 20.582 36.2434C20.718 33.4938 21.564 30.8262 23.0375 28.5007C24.511 26.1752 26.5618 24.2711 28.99 22.9738C31.4183 21.6766 34.1411 21.0304 36.8933 21.0984C39.6455 21.1663 42.3331 21.946 44.6944 23.3615C47.0556 24.777 49.01 26.78 50.367 29.1753C51.7239 31.5707 52.4373 34.2767 52.4375 37.0297Z" fill="#DBFE01"/>
</svg>
