<svg width="39" height="40" viewBox="0 0 39 40" fill="none" xmlns="http://www.w3.org/2000/svg">
<rect y="0.529541" width="39" height="39" rx="19.5" fill="#DBFE01"/>
<path d="M29.625 27.5295C29.625 27.8279 29.5065 28.1141 29.2955 28.325C29.0845 28.536 28.7984 28.6545 28.5 28.6545H12C11.7016 28.6545 11.4155 28.536 11.2045 28.325C10.9935 28.1141 10.875 27.8279 10.875 27.5295C10.875 27.2312 10.9935 26.945 11.2045 26.734C11.4155 26.5231 11.7016 26.4045 12 26.4045H28.5C28.7984 26.4045 29.0845 26.5231 29.2955 26.734C29.5065 26.945 29.625 27.2312 29.625 27.5295ZM14.25 22.6545C14.5484 22.6545 14.8345 22.536 15.0455 22.325C15.2565 22.1141 15.375 21.8279 15.375 21.5295V15.2483L23.9541 23.8283C24.1654 24.0396 24.4521 24.1584 24.7509 24.1584C25.0498 24.1584 25.3365 24.0396 25.5478 23.8283C25.7592 23.6169 25.8779 23.3303 25.8779 23.0314C25.8779 22.7325 25.7592 22.4459 25.5478 22.2345L16.9688 13.6545H23.25C23.5484 13.6545 23.8345 13.536 24.0455 13.325C24.2565 13.1141 24.375 12.8279 24.375 12.5295C24.375 12.2312 24.2565 11.945 24.0455 11.734C23.8345 11.5231 23.5484 11.4045 23.25 11.4045H14.25C13.9516 11.4045 13.6655 11.5231 13.4545 11.734C13.2435 11.945 13.125 12.2312 13.125 12.5295V21.5295C13.125 21.8279 13.2435 22.1141 13.4545 22.325C13.6655 22.536 13.9516 22.6545 14.25 22.6545Z" fill="#042147"/>
</svg>
