<svg width="73" height="74" viewBox="0 0 73 74" fill="none" xmlns="http://www.w3.org/2000/svg">
<rect y="0.529785" width="73" height="73" rx="36.5" fill="#042147"/>
<path d="M52.4374 38.3564C52.1771 41.3847 51.0573 44.2756 49.2098 46.6891C47.3623 49.1025 44.8639 50.9381 42.0085 51.9798C39.1532 53.0215 36.0598 53.2261 33.0921 52.5693C30.1245 51.9126 27.4062 50.422 25.257 48.2728C23.1078 46.1236 21.6171 43.4052 20.9604 40.4376C20.3037 37.47 20.5082 34.3765 21.5499 31.5212C22.5917 28.6659 24.4272 26.1675 26.8407 24.3199C29.2541 22.4724 32.1451 21.3526 35.1733 21.0924C35.422 21.0716 35.6686 21.1505 35.8591 21.3117C36.0496 21.4729 36.1682 21.7031 36.1889 21.9517C36.2097 22.2004 36.1308 22.4471 35.9696 22.6375C35.8084 22.828 35.5782 22.9466 35.3296 22.9674C32.6565 23.1963 30.1045 24.1839 27.9738 25.8141C25.8431 27.4443 24.2224 29.6492 23.3023 32.1694C22.3823 34.6895 22.2013 37.42 22.7805 40.0395C23.3598 42.6591 24.6753 45.0586 26.5721 46.9559C28.4689 48.8531 30.8682 50.169 33.4877 50.7488C36.1071 51.3286 38.8376 51.1481 41.3579 50.2286C43.8782 49.3091 46.0835 47.6889 47.7141 45.5585C49.3447 43.4281 50.3329 40.8763 50.5624 38.2033C50.5726 38.0802 50.6071 37.9603 50.6636 37.8505C50.7202 37.7407 50.7979 37.6431 50.8922 37.5633C51.0827 37.4021 51.3294 37.3232 51.578 37.3439C51.7011 37.3542 51.821 37.3886 51.9308 37.4452C52.0406 37.5018 52.1382 37.5794 52.218 37.6738C52.2978 37.7681 52.3583 37.8772 52.3959 37.9948C52.4336 38.1125 52.4476 38.2364 52.4374 38.3596V38.3564ZM35.5624 28.2799V37.0299C35.5624 37.2785 35.6612 37.517 35.837 37.6928C36.0128 37.8686 36.2512 37.9674 36.4999 37.9674H45.2499C45.4985 37.9674 45.737 37.8686 45.9128 37.6928C46.0886 37.517 46.1874 37.2785 46.1874 37.0299C46.1874 36.7812 46.0886 36.5428 45.9128 36.367C45.737 36.1911 45.4985 36.0924 45.2499 36.0924H37.4374V28.2799C37.4374 28.0312 37.3386 27.7928 37.1628 27.617C36.987 27.4411 36.7485 27.3424 36.4999 27.3424C36.2512 27.3424 36.0128 27.4411 35.837 27.617C35.6612 27.7928 35.5624 28.0312 35.5624 28.2799ZM41.4999 24.2174C41.8089 24.2174 42.111 24.1257 42.368 23.954C42.6249 23.7823 42.8252 23.5383 42.9434 23.2528C43.0617 22.9673 43.0926 22.6531 43.0324 22.35C42.9721 22.0469 42.8233 21.7685 42.6047 21.55C42.3862 21.3315 42.1078 21.1827 41.8047 21.1224C41.5016 21.0621 41.1875 21.093 40.9019 21.2113C40.6164 21.3296 40.3724 21.5298 40.2007 21.7868C40.029 22.0437 39.9374 22.3458 39.9374 22.6549C39.9374 22.8601 39.9778 23.0632 40.0563 23.2528C40.1348 23.4424 40.2499 23.6146 40.395 23.7597C40.6881 24.0527 41.0855 24.2174 41.4999 24.2174ZM47.1249 27.9674C47.4339 27.9674 47.736 27.8757 47.993 27.704C48.2499 27.5323 48.4502 27.2883 48.5684 27.0028C48.6867 26.7173 48.7176 26.4031 48.6574 26.1C48.5971 25.7969 48.4483 25.5185 48.2297 25.3C48.0112 25.0815 47.7328 24.9327 47.4297 24.8724C47.1266 24.8121 46.8125 24.843 46.5269 24.9613C46.2414 25.0796 45.9974 25.2798 45.8257 25.5368C45.654 25.7937 45.5624 26.0958 45.5624 26.4049C45.5624 26.8193 45.727 27.2167 46.02 27.5097C46.3131 27.8027 46.7105 27.9674 47.1249 27.9674ZM50.8749 33.5924C51.1839 33.5924 51.486 33.5007 51.743 33.329C51.9999 33.1573 52.2002 32.9133 52.3184 32.6278C52.4367 32.3423 52.4676 32.0281 52.4074 31.725C52.3471 31.4219 52.1983 31.1435 51.9797 30.925C51.7612 30.7065 51.4828 30.5577 51.1797 30.4974C50.8766 30.4371 50.5625 30.468 50.2769 30.5863C49.9914 30.7046 49.7474 30.9048 49.5757 31.1618C49.404 31.4187 49.3124 31.7208 49.3124 32.0299C49.3124 32.4443 49.477 32.8417 49.77 33.1347C50.0631 33.4277 50.4605 33.5924 50.8749 33.5924Z" fill="#DBFE01"/>
</svg>
