<svg width="57" height="58" viewBox="0 0 57 58" fill="none" xmlns="http://www.w3.org/2000/svg">
<rect width="57" height="57" rx="28.5" transform="matrix(-1 0 0 1 57 0.294922)" fill="#DBFE01"/>
<path d="M13.7021 39.7566C13.7021 40.1927 13.8753 40.6109 14.1837 40.9193C14.492 41.2276 14.9103 41.4009 15.3463 41.4009H39.4617C39.8978 41.4009 40.316 41.2276 40.6244 40.9193C40.9327 40.6109 41.106 40.1927 41.106 39.7566C41.106 39.3206 40.9327 38.9023 40.6244 38.594C40.316 38.2856 39.8978 38.1124 39.4617 38.1124H15.3463C14.9103 38.1124 14.492 38.2856 14.1837 38.594C13.8753 38.9023 13.7021 39.3206 13.7021 39.7566ZM36.1733 32.6316C35.7372 32.6316 35.319 32.4584 35.0106 32.1501C34.7023 31.8417 34.529 31.4235 34.529 30.9874V21.8071L21.9904 34.3471C21.6815 34.656 21.2626 34.8295 20.8257 34.8295C20.3889 34.8295 19.97 34.656 19.6611 34.3471C19.3522 34.0382 19.1787 33.6193 19.1787 33.1825C19.1787 32.7456 19.3522 32.3267 19.6611 32.0178L32.1997 19.4778H23.0194C22.5833 19.4778 22.1651 19.3046 21.8568 18.9962C21.5484 18.6879 21.3752 18.2696 21.3752 17.8336C21.3752 17.3975 21.5484 16.9793 21.8568 16.6709C22.1651 16.3626 22.5833 16.1893 23.0194 16.1893H36.1733C36.6093 16.1893 37.0276 16.3626 37.3359 16.6709C37.6443 16.9793 37.8175 17.3975 37.8175 17.8336V30.9874C37.8175 31.4235 37.6443 31.8417 37.3359 32.1501C37.0276 32.4584 36.6093 32.6316 36.1733 32.6316Z" fill="#042147"/>
</svg>
