<svg width="32" height="32" viewBox="0 0 32 32" fill="none" xmlns="http://www.w3.org/2000/svg">
<path d="M23.8081 4C26.8533 4.00014 29.3315 6.4549 29.3315 9.47363L29.3335 13.043C29.3335 13.3046 29.2275 13.5569 29.0396 13.7432C28.853 13.9294 28.5987 14.0341 28.3335 14.0342C27.2389 14.0342 26.3483 14.9165 26.3481 16.001C26.3481 17.0856 27.2388 17.9688 28.3335 17.9688C28.8852 17.9689 29.3333 18.4123 29.3335 18.959V22.5264C29.3335 25.5452 26.8554 28 23.8101 28H16.5269C15.9749 28 15.5269 27.5557 15.5269 27.0088C15.527 26.462 15.975 26.0186 16.5269 26.0186H23.8101C25.7527 26.0186 27.3335 24.4513 27.3335 22.5264V19.8252C25.6188 19.3853 24.3481 17.8374 24.3481 16.001C24.3483 14.1647 25.6176 12.6177 27.3335 12.1777L27.3315 9.47363C27.3315 7.54881 25.7506 5.98159 23.8081 5.98145H8.19189C6.24923 5.98145 4.66943 7.54872 4.66943 9.47363L4.66748 12.2832C6.40204 12.7007 7.6517 14.1846 7.65186 16.001C7.65186 17.8374 6.3825 19.3853 4.6665 19.8252V22.5264C4.6665 24.4513 6.24825 26.0186 8.19092 26.0186H10.5776C11.1293 26.0188 11.5774 26.4621 11.5776 27.0088C11.5776 27.5556 11.1294 27.9998 10.5776 28H8.19092C5.14425 28 2.6665 25.5452 2.6665 22.5264V18.959C2.66672 18.4122 3.11464 17.9688 3.6665 17.9688C4.76117 17.9688 5.65186 17.0856 5.65186 16.001C5.65167 14.9442 4.79838 14.1494 3.6665 14.1494C3.40117 14.1494 3.14614 14.0447 2.95947 13.8584C2.77159 13.6721 2.6665 13.4197 2.6665 13.1582L2.66943 9.47363C2.66943 6.45481 5.14656 4 8.19189 4H23.8081ZM16.0444 10.667C16.5415 10.6671 16.9851 10.9489 17.2056 11.4053L18.2554 13.4678C18.5083 13.9676 18.3214 14.5834 17.8374 14.8428C17.6052 14.9696 17.3379 14.9924 17.0874 14.9141C16.8342 14.833 16.6277 14.6565 16.5044 14.416L16.064 13.5508L15.4673 14.7969C15.323 15.0967 15.0458 15.3062 14.7231 15.3535L13.4321 15.5469L14.3657 16.4873C14.5992 16.7196 14.7059 17.0558 14.6509 17.3867L14.4302 18.7119L15.5874 18.0869C15.8761 17.9315 16.2203 17.9315 16.5063 18.0869L17.6636 18.7119L17.4429 17.3867C17.3878 17.0558 17.4939 16.7191 17.7261 16.4854L19.6548 14.5508C19.8424 14.3643 20.0959 14.2428 20.353 14.2617C20.6181 14.2644 20.8659 14.3731 21.0522 14.5703C21.2371 14.7648 21.3361 15.0215 21.3335 15.293C21.3295 15.5644 21.2239 15.8187 21.0337 16.0078L19.478 17.5703L19.8452 19.7754C19.9292 20.278 19.7321 20.7776 19.3306 21.0762C18.9278 21.376 18.4087 21.413 17.9692 21.1768L16.0454 20.1387L14.1216 21.1777C13.9367 21.2803 13.7285 21.333 13.52 21.333C13.2471 21.333 12.9843 21.2437 12.7612 21.0762C12.3612 20.7776 12.1626 20.2779 12.2466 19.7754L12.6157 17.5703L11.0581 16.0078C10.7025 15.6525 10.5778 15.129 10.73 14.6426C10.8848 14.1577 11.2853 13.8109 11.7759 13.7393L13.9253 13.416L14.8882 11.4082C15.106 10.9516 15.5498 10.6683 16.0444 10.667Z" fill="#042147"/>
</svg>
