<svg width="251" height="79" viewBox="0 0 251 79" fill="none" xmlns="http://www.w3.org/2000/svg">
<path d="M19.3288 51.7375L19.1129 51.1784H17.4394L17.7942 50.1643H18.7196L17.3507 46.6207H19.0126L21.0524 51.7375H19.3288ZM15.3379 51.7375L17.1656 46.8521L17.9214 48.8842L16.9844 51.7375H15.3379ZM21.7564 51.7375V47.729H23.0916V51.7375H21.7564ZM23.3031 51.7375V50.937H23.9646V50.4296H25.1759V51.7375H23.3031ZM26.0276 51.7375V47.729H27.3627V49.5203H28.5952V50.3087H27.3627V51.7375H26.0276ZM28.275 49.0581V48.5295H27.5742V47.729H29.6102V49.0581H28.275ZM32.1612 51.7375V50.9846H32.6271V47.9671H33.883V50.9846L33.1301 51.7375H32.1612ZM30.9962 51.7375L30.2404 50.9846V47.9671H31.4991V50.9846H31.9623V51.7375H30.9962ZM36.1701 50.6067V49.8765H37.1134V48.72H36.1701V47.9671H37.605L38.3608 48.72V49.8509L37.7755 50.4362L38.4887 51.7375H37.1475L36.6134 50.6067H36.1701ZM34.7153 51.7375V47.9671H35.9712V51.7375H34.7153ZM41.5022 51.7375V50.3244H39.8701L39.1137 49.5681V48.7179L39.8701 47.9644H40.2966V49.3036H42.031L42.7618 50.06V50.9841L42.0083 51.7375H41.5022ZM41.5022 49.0221V48.644H40.4956V47.9644H42.0054L42.6594 48.6212V49.0221H41.5022ZM39.7478 51.7375L39.1137 50.9841V50.6059H40.3705V51.0551H41.3031V51.7375H39.7478ZM46.1167 51.7375L45.9575 51.3253H44.7235L44.9851 50.5775H45.6675L44.6581 47.9644H45.8836L47.3877 51.7375H46.1167ZM43.1738 51.7375L44.5216 48.135L45.0789 49.6335L44.3879 51.7375H43.1738ZM51.0317 51.7375L48.0763 46.8597H49.7929L52.7593 51.7375H51.0317ZM52.7593 51.2744L51.3441 48.9439V46.8597H52.7593V51.2744ZM48.0763 51.7375V47.3229L49.4915 49.6423V51.7375H48.0763Z" fill="#EAF9FF"/>
<path d="M21.4567 58.8348V57.48H19.8919L19.1668 56.7549V55.9398L19.8919 55.2173H20.3008V56.5013H21.9637L22.6643 57.2265V58.1124L21.9419 58.8348H21.4567ZM21.4567 56.2314V55.8689H20.4916V55.2173H21.9392L22.5662 55.8471V56.2314H21.4567ZM19.7747 58.8348L19.1668 58.1124V57.7499H20.3717V58.1806H21.2658V58.8348H19.7747ZM23.4356 58.8348V55.2173H24.6405V56.6513H25.7936V57.3491H24.6405V58.8348H23.4356ZM25.581 56.2642V55.9179H24.8313V55.2173H26.715V56.2642H25.581ZM24.8313 58.8348V58.1124H25.5101V57.7499H26.715V58.8348H24.8313ZM28.1351 58.8348L27.41 58.1124V55.9398L28.1351 55.2173H28.6149V58.8348H28.1351ZM29.6072 56.6676V55.9398H28.8057V55.2173H30.0897L30.8121 55.9398V56.6676H29.6072ZM28.8057 58.8348V58.1124H29.6072V57.5836H30.8121V58.1124L30.0897 58.8348H28.8057ZM33.4262 58.8348V58.1124H33.8732V55.2173H35.0782V58.1124L34.3558 58.8348H33.4262ZM32.3085 58.8348L31.5833 58.1124V55.2173H32.791V58.1124H33.2353V58.8348H32.3085ZM37.2724 57.7499V57.0493H38.1775V55.9398H37.2724V55.2173H38.6491L39.3742 55.9398V57.0247L38.8127 57.5863L39.4969 58.8348H38.2102L37.6977 57.7499H37.2724ZM35.8767 58.8348V55.2173H37.0816V58.8348H35.8767ZM40.0855 58.8348V58.0634H40.4481V55.9861H40.0855V55.2173H42.0156V55.9861H41.653V58.0634H42.0156V58.8348H40.0855ZM42.6832 56.0052V55.2173H45.8237V56.0052H42.6832ZM43.6265 58.8348V56.1933H44.8804V58.8348H43.6265ZM47.4918 58.8348V57.6844L46.2651 55.2173H47.4482L48.6994 57.7689V58.8348H47.4918ZM48.7758 57.5154L48.1897 56.3269L48.784 55.2173H49.9425L48.7758 57.5154Z" fill="#EAF9FF"/>
<path d="M16.8146 41.7834C16.874 41.7438 16.8938 41.7339 16.9136 41.724C17.5572 41.4272 18.1018 41.4074 18.7355 41.9121C19.6861 42.6642 20.8842 42.9017 22.0724 43.1293C21.716 42.8918 21.3496 42.6642 21.0129 42.4069C20.6565 42.1397 20.3099 41.8725 19.9931 41.5657C19.3891 40.9719 19.2207 40.5167 19.191 39.4776C15.6561 41.16 11.8637 40.9422 8.10107 41.0808C8.57636 41.2391 9.04174 41.4074 9.51702 41.5657C13.755 42.9413 18.0424 44.1783 22.4388 44.97C23.9043 45.2372 25.3697 45.445 26.8352 45.6726C27.0233 45.7023 27.2312 45.6627 27.4095 45.6034C28.0036 45.3758 28.5878 45.1284 29.172 44.8414C24.8845 44.5247 20.6763 43.9705 16.8146 41.7834Z" fill="#EAF9FF"/>
<path d="M52.9471 41.7834C52.8877 41.7438 52.8679 41.7339 52.8481 41.724C52.2045 41.4272 51.6599 41.4074 51.0262 41.9121C50.0756 42.6642 48.8775 42.9017 47.6893 43.1293C48.0457 42.8918 48.4121 42.6642 48.7488 42.4069C49.1052 42.1397 49.4518 41.8725 49.7687 41.5657C50.3727 40.9719 50.541 40.5167 50.5707 39.4776C54.1056 41.16 57.898 40.9422 61.6606 41.0808C61.1854 41.2391 60.72 41.4074 60.2447 41.5657C56.0067 42.9413 51.7193 44.1783 47.3229 44.97C45.8575 45.2372 44.392 45.445 42.9265 45.6726C42.7384 45.7023 42.5305 45.6627 42.3522 45.6034C41.7581 45.3758 41.1739 45.1284 40.5897 44.8414C44.8772 44.5247 49.0854 43.9705 52.9471 41.7834Z" fill="#EAF9FF"/>
<path d="M51.6555 65.1628C51.7425 64.6098 51.8294 64.1122 51.9084 63.5987C51.2445 63.496 50.6044 63.3934 49.9721 63.2907C47.6801 62.9352 45.3959 62.5718 43.1039 62.2164C42.3452 62.0979 41.6734 62.2322 41.049 62.7298C39.3419 64.0806 37.5952 65.3839 35.8169 66.6715C35.8485 66.6162 35.8801 66.5609 35.9196 66.5135C37.3186 64.6414 38.7175 62.7693 40.1085 60.8893C40.2112 60.7551 40.3061 60.7077 40.48 60.7156C43.4912 60.9525 46.455 61.4344 49.3951 62.1058C51.2287 62.5245 53.0544 62.9668 54.8881 63.4013C54.9197 63.4092 54.9513 63.4249 55.054 63.4644C53.9001 64.0332 52.8015 64.5861 51.6555 65.1628Z" fill="#EAF9FF"/>
<path d="M34.7463 66.7031C34.035 66.1739 33.3394 65.6683 32.6597 65.1549C31.5612 64.3176 30.4626 63.4803 29.3798 62.6193C28.8107 62.1769 28.1785 62.1058 27.5067 62.2006C24.8353 62.6114 22.156 63.03 19.4846 63.4487C19.2238 63.4882 18.9551 63.5356 18.6547 63.5909C18.7338 64.0964 18.8207 64.594 18.9076 65.1549C17.7616 64.5861 16.663 64.0332 15.5645 63.4803C15.5645 63.4566 15.5724 63.4408 15.5724 63.4171C16.2679 63.2433 16.9634 63.0537 17.6589 62.9036C20.188 62.3586 22.7013 61.782 25.2463 61.3159C26.8586 61.0236 28.5025 60.9052 30.1306 60.7156C30.2176 60.7077 30.3598 60.7551 30.4072 60.8262C31.8536 62.7535 33.292 64.6888 34.7384 66.6241C34.7463 66.632 34.7384 66.6478 34.7463 66.7031Z" fill="#EAF9FF"/>
<path d="M39.3003 16.0208C36.5104 18.0544 36.5902 20.9676 36.9634 23.9602C36.9989 23.9691 37.044 23.9777 37.0796 23.9866C37.0974 23.889 37.1234 23.7824 37.1323 23.6848C37.2123 22.4416 37.7281 21.4114 38.6255 20.5588C38.741 20.4524 38.9805 20.3642 39.1138 20.4084C41.4417 21.1455 43.0948 22.8238 43.4058 25.2659C43.4412 25.5321 43.3962 25.6559 43.0942 25.718C41.655 26.0022 40.358 26.5622 39.3452 27.6721C39.1765 27.8585 39.0343 28.0716 38.8833 28.2668C38.8478 28.32 38.8209 28.3824 38.812 28.4709C40.7312 26.6151 43.0326 26.0475 45.6626 26.3938C44.2501 29.0577 44.2678 31.8457 44.5698 34.7405C43.9479 34.3409 43.37 33.9773 42.7036 33.551C42.7746 33.7284 42.8018 33.8169 42.8462 33.8879C43.2282 34.5007 43.6274 35.114 43.9917 35.7356C44.0716 35.8776 44.1163 36.1081 44.0542 36.2502C42.6148 39.4294 41.1667 42.6005 39.7095 45.7708C39.6828 45.8328 39.6379 45.8947 39.5581 46.0364C39.2501 44.3868 38.9455 42.7485 38.6411 41.1145L40.563 34.0042H37.3179C37.2563 33.6728 37.194 33.341 37.1323 33.009C37.8519 32.8936 38.5274 32.7787 39.2114 32.6633C39.78 32.5745 40.3578 32.4946 40.9175 32.3792C41.0508 32.3525 41.2374 32.2095 41.2729 32.0852C41.575 31.0996 41.8508 30.1048 42.1528 29.0393C42.0107 29.0837 41.9134 29.1024 41.8423 29.1467C40.003 30.1591 38.1631 31.1706 36.3149 32.1741C36.0307 32.325 35.9597 32.4942 36.0308 32.8049C36.3684 34.3235 36.6973 35.8332 37.0083 37.3606C37.0438 37.5293 36.99 37.7783 36.8745 37.9026C36.2883 38.5329 35.6753 39.1276 35.0181 39.7756C34.7961 39.5626 34.5827 39.3587 34.3696 39.1458C33.9876 38.7728 33.6318 38.3729 33.2319 38.0266C32.9654 37.7958 32.9481 37.565 33.0103 37.2454C33.3479 35.7269 33.6759 34.217 33.978 32.6897C34.0046 32.5656 33.9252 32.3352 33.8276 32.2815C31.8818 31.1893 29.9357 30.1231 27.8833 28.9954C28.1942 30.0964 28.461 31.0908 28.772 32.0764C28.8075 32.2007 29.029 32.3339 29.189 32.3606C30.3263 32.5648 31.4638 32.7337 32.6011 32.9202C32.6899 32.9379 32.7704 32.9646 32.9126 33.009C32.8562 33.311 32.8 33.6133 32.7437 33.9153H29.4556L31.4009 41.1135C31.0924 42.7683 30.7809 44.4333 30.4683 46.1165C30.3529 45.8946 30.2911 45.7787 30.2378 45.6633C28.8162 42.5643 27.4123 39.4742 25.9907 36.384C25.8663 36.1087 25.8571 35.913 26.0259 35.6555C26.4523 35.0162 26.8433 34.3591 27.2075 33.6399C26.63 34.0128 26.0433 34.3855 25.5103 34.7229C25.5103 33.3023 25.5637 31.8905 25.4927 30.4788C25.4305 29.049 25.0308 27.6896 24.3022 26.3665C26.9234 26.0112 29.1985 26.5535 31.1177 28.4006C30.549 27.1485 28.7893 26.0471 26.5591 25.6653C26.5857 25.39 26.6034 25.0968 26.6567 24.8215C27.1099 22.4949 28.8695 20.9851 30.9575 20.3723C31.0819 20.337 31.2864 20.4435 31.4019 20.55C32.2992 21.367 32.7521 22.3705 32.9653 23.8889C33.2674 22.4593 33.3212 21.0208 33.0103 19.5823C32.6815 18.0904 31.9609 16.8651 30.6548 16.0481C32.112 14.5828 33.5699 13.1439 35.0093 11.7141C36.4041 13.1082 37.8521 14.5645 39.3003 16.0208Z" fill="#EAF9FF"/>
<path d="M2.69824 43.3659C3.58083 43.2751 3.99616 42.8471 4.00914 41.9001C4.02212 40.084 4.00914 38.2679 4.00914 36.4519C4.00914 36.1795 4.00914 35.92 4.00914 35.4919C5.0994 36.0887 6.08582 36.5946 7.0333 37.1783C7.18905 37.2691 7.21501 37.6583 7.21501 37.9177C7.22799 40.6288 7.24097 43.34 7.20203 46.0641C7.18905 46.8295 7.39672 47.4391 7.86397 48.0358C10.7583 51.7329 14.1589 54.9629 17.6114 58.1281C22.9977 63.0574 28.5918 67.7273 34.4714 72.06C34.9776 72.4362 35.315 72.527 35.8731 72.1119C44.8158 65.3794 53.408 58.2318 60.9619 49.9298C63.1814 47.491 63.1425 47.4651 63.1425 44.1832C63.1425 42.1206 63.1554 40.0451 63.1295 37.9826C63.1165 37.4767 63.2463 37.1653 63.7265 36.9318C64.5961 36.5167 65.4268 36.0238 66.4002 35.5049C66.4002 36.8021 66.4002 37.9826 66.4002 39.163C66.4002 39.9543 66.4002 40.7586 66.4002 41.5499C66.4002 42.86 66.53 43.0546 67.7501 43.5346C67.7501 45.2339 67.7501 46.9203 67.7501 48.6196C65.946 50.8119 64.2716 53.1079 62.3118 55.1445C61.0788 56.4158 60.4558 57.6611 60.6634 59.3993C60.7024 59.7625 60.4558 60.2684 60.1702 60.5408C56.8865 63.5893 53.5378 66.5728 50.2671 69.6342C49.2547 70.5812 48.2034 71.1 46.8146 70.8925C46.4252 70.8406 46.0099 70.8406 45.6205 70.9055C45.2571 70.9703 44.8418 71.0611 44.5562 71.2816C42.5444 72.7475 40.5716 74.2652 38.5728 75.757C37.4955 76.5483 36.4053 77.3136 35.315 78.0919C35.2631 78.0919 35.2112 78.0919 35.1593 78.0919C34.9516 77.9233 34.7309 77.7547 34.5103 77.599C32.226 75.9645 29.8248 74.4598 27.6962 72.6437C26.0868 71.2816 24.4384 70.6201 22.3618 70.8795C21.9724 70.9314 21.4402 70.6979 21.1157 70.4255C17.9618 67.6495 14.8857 64.7697 11.6799 62.0456C10.2262 60.7484 9.35658 59.4253 9.69404 57.4665C9.74596 57.1552 9.49935 56.7271 9.26573 56.4547C7.4097 54.2624 5.52771 52.1091 3.6587 49.9427C3.32124 49.5536 3.00974 49.1514 2.69824 48.7493C2.69824 46.9592 2.69824 45.169 2.69824 43.3659Z" fill="#EAF9FF"/>
<path d="M66.2425 22.735C65.1666 23.318 64.2202 23.7974 63.2998 24.3286C63.1572 24.4063 63.0535 24.6784 63.0406 24.8727C63.0017 25.3392 63.0276 25.8056 63.0276 26.4145C64.1036 25.8315 65.0888 25.3132 66.0351 24.7432C66.1907 24.6525 66.2036 24.2638 66.2295 24.0176C66.2684 23.6549 66.2425 23.2791 66.2425 22.735Z" fill="#EAF9FF"/>
<path d="M66.242 17.9465C65.1661 18.5296 64.2197 19.0089 63.2994 19.5401C63.1568 19.6179 63.0531 19.8899 63.0401 20.0843C63.0012 20.5507 63.0271 21.0171 63.0271 21.6261C64.1031 21.043 65.0883 20.5248 66.0346 19.9547C66.1902 19.864 66.2031 19.4753 66.2291 19.2292C66.2679 18.8664 66.242 18.4907 66.242 17.9465Z" fill="#EAF9FF"/>
<path d="M66.2425 31.2478C65.1795 31.8179 64.2591 32.2843 63.3517 32.7896C63.2091 32.8673 63.0665 33.0746 63.0535 33.2301C63.0147 33.7354 63.0406 34.2536 63.0406 34.8755C64.1036 34.3184 65.0758 33.8261 66.0092 33.2819C66.1647 33.1912 66.2166 32.8673 66.2295 32.6341C66.2684 32.2325 66.2425 31.8049 66.2425 31.2478Z" fill="#EAF9FF"/>
<path d="M63.0406 30.6386C64.1425 30.0555 65.0758 29.5762 65.9962 29.032C66.1518 28.9413 66.2166 28.6304 66.2295 28.4101C66.2684 27.9955 66.2425 27.568 66.2425 27.0109C65.1795 27.5809 64.1943 28.0733 63.248 28.6304C63.0924 28.7211 63.0665 29.1097 63.0406 29.3559C63.0276 29.7187 63.0406 30.0944 63.0406 30.6386Z" fill="#EAF9FF"/>
<path d="M4.50749 22.7347C5.58344 23.3178 6.52976 23.7971 7.45016 24.3283C7.59275 24.4061 7.69646 24.6782 7.70942 24.8725C7.74831 25.3389 7.72239 25.8053 7.72239 26.4143C6.64643 25.8312 5.66122 25.313 4.7149 24.7429C4.55934 24.6522 4.54638 24.2636 4.52045 24.0174C4.48156 23.6546 4.50749 23.2789 4.50749 22.7347Z" fill="#EAF9FF"/>
<path d="M4.50749 17.9464C5.58344 18.5294 6.52976 19.0088 7.45016 19.54C7.59275 19.6177 7.69646 19.8898 7.70942 20.0842C7.74831 20.5506 7.72239 21.017 7.72239 21.6259C6.64643 21.0429 5.66122 20.5247 4.7149 19.9546C4.55934 19.8639 4.54638 19.4752 4.52045 19.2291C4.48156 18.8663 4.50749 18.4906 4.50749 17.9464Z" fill="#EAF9FF"/>
<path d="M4.50749 31.2465C5.57048 31.8165 6.49087 32.2829 7.3983 32.7882C7.5409 32.866 7.6835 33.0733 7.69646 33.2287C7.73535 33.734 7.70942 34.2523 7.70942 34.8742C6.64643 34.317 5.67419 33.8247 4.74083 33.2806C4.58527 33.1899 4.53342 32.866 4.52045 32.6328C4.48156 32.2311 4.50749 31.8036 4.50749 31.2465Z" fill="#EAF9FF"/>
<path d="M7.70942 30.6375C6.60754 30.0544 5.67419 29.5751 4.75379 29.0309C4.59823 28.9402 4.53342 28.6293 4.52045 28.409C4.48156 27.9944 4.50749 27.5669 4.50749 27.0098C5.57048 27.5798 6.55569 28.0722 7.50201 28.6293C7.65757 28.72 7.6835 29.1086 7.70942 29.3548C7.72239 29.7176 7.70942 30.0933 7.70942 30.6375Z" fill="#EAF9FF"/>
<path d="M62.0001 8.16544C62.1429 7.2574 62.2856 6.44016 62.4154 5.59699C61.3252 5.42835 60.2739 5.25971 59.2355 5.09108C55.4716 4.50734 51.7206 3.91063 47.9566 3.32689C46.7106 3.13231 45.6073 3.35283 44.582 4.17007C41.7785 6.38828 38.9101 8.52865 35.9897 10.6431C36.0417 10.5523 36.0936 10.4615 36.1585 10.3836C38.4558 7.30929 40.7531 4.23493 43.0375 1.1476C43.2062 0.927071 43.3619 0.849239 43.6475 0.862211C48.5926 1.25137 53.4598 2.04266 58.288 3.14528C61.2992 3.8328 64.2974 4.55923 67.3086 5.27269C67.3605 5.28566 67.4124 5.3116 67.5812 5.37646C65.6862 6.31044 63.8821 7.21848 62.0001 8.16544Z" fill="#EAF9FF"/>
<path d="M34.2232 10.695C33.0551 9.82589 31.9129 8.99568 30.7967 8.1525C28.9926 6.77747 27.1885 5.40244 25.4103 3.9885C24.4758 3.26207 23.4375 3.14532 22.3343 3.30098C17.9343 3.97552 13.5473 4.67601 9.16035 5.36353C8.73203 5.42839 8.29074 5.50622 7.79753 5.59702C7.92732 6.42723 8.07009 7.24446 8.21287 8.16547C6.33088 7.21852 4.52677 6.31048 2.72266 5.40244C2.72266 5.36353 2.73564 5.33758 2.73564 5.29867C3.87781 5.01328 5.01998 4.70196 6.16215 4.45549C10.3155 3.56042 14.4429 2.61347 18.6222 1.84812C21.27 1.36816 23.9696 1.17358 26.6434 0.862249C26.7861 0.849277 27.0198 0.927109 27.0976 1.04386C29.4728 4.20902 31.835 7.38716 34.2102 10.5653C34.2102 10.5783 34.2102 10.6042 34.2232 10.695Z" fill="#EAF9FF"/>
<path d="M35.1438 0.0703125C35.3645 0.615136 35.5851 1.12104 35.7798 1.65289C35.8707 1.89936 36.0005 1.97719 36.2471 1.96422C36.935 1.95125 37.6099 1.96422 38.4406 1.96422C37.8954 2.47013 37.4412 2.91118 36.9609 3.31331C36.7143 3.52086 36.6624 3.70247 36.7662 4.0138C36.9739 4.57159 37.1297 5.15533 37.3633 5.86879C36.6494 5.41477 36.0394 5.05155 35.4553 4.64942C35.2087 4.48079 35.027 4.48079 34.7674 4.64942C34.1834 5.05155 33.5604 5.41477 32.8595 5.85582C33.0801 5.14236 33.2878 4.5197 33.4565 3.89705C33.4955 3.75436 33.4306 3.50789 33.3268 3.40411C32.8595 2.93712 32.3663 2.49607 31.7822 1.95125C32.4571 1.95125 33.0153 1.95125 33.5734 1.95125C34.3132 1.95125 34.3132 1.95125 34.5987 1.25076C34.7545 0.874576 34.9102 0.498388 35.066 0.109228C35.053 0.109228 35.0789 0.109228 35.1438 0.0703125Z" fill="#EAF9FF"/>
<path d="M16.5832 29.1527C18.8959 28.8302 20.8316 28.3662 23.083 27.978C22.9037 28.1895 22.7533 28.2807 22.7214 28.413C22.6248 28.708 21.5266 28.7878 22.5228 29.3454C22.5685 29.3691 22.4609 29.496 22.4192 29.5624C22.3359 29.6951 22.1283 29.8107 22.145 29.9547C22.1756 30.2548 21.898 30.3408 21.4348 30.3441C20.9958 30.3531 20.6164 30.542 20.0937 30.3655C18.9725 30.0069 17.8842 29.6181 16.5832 29.1527Z" fill="#EAF9FF"/>
<path d="M21.3948 15.1482C14.8765 12.3545 8.43731 9.40778 2.05236 6.32343L2.05177 6.32315C2.04254 6.31868 2.03785 6.31642 2.02767 6.31398C1.91275 6.28649 1.8239 6.40715 1.87813 6.51211C2.14783 7.03405 2.4028 7.52006 2.69523 7.98266C3.62442 9.67191 3.76954 9.92155 4.67684 11.5706C4.70163 11.6157 4.74242 11.6513 4.79069 11.6691L23.6066 18.6025L28.1393 20.3013C28.2173 20.3306 28.3052 20.3118 28.3645 20.2533L29.2431 19.3854C29.347 19.2828 29.3192 19.1083 29.1889 19.0425C25.3408 17.099 22.2758 15.5284 21.3948 15.1482Z" fill="#EAF9FF"/>
<path d="M4.568 13.7545L3.59312 13.4469C4.93548 15.0279 6.30749 16.4279 7.7977 17.8018C8.01124 17.996 8.29987 18.0395 8.57939 18.1119C13.529 19.3247 18.4741 20.5519 23.4512 21.5039L26.5294 22.2219L27.5165 21.3473L22.6113 19.6376C16.5961 17.708 10.5695 15.7273 4.568 13.7545Z" fill="#EAF9FF"/>
<path d="M9.10065 19.8765L9.10063 19.8765C10.688 21.2549 12.1959 22.4831 13.8291 23.6474C14.1184 23.8678 14.4269 23.9534 14.8033 23.9912C18.3705 24.3386 21.8922 24.512 25.3537 24.4006L26.1875 23.2139L25.0728 23.0715C19.8984 22.2566 14.7604 21.101 9.61169 19.9771C9.49508 19.938 9.39647 19.9227 9.10065 19.8765Z" fill="#EAF9FF"/>
<path d="M13.3215 25.5417C15.8958 25.7677 18.2674 25.8798 20.6022 25.8669C21.3925 25.8668 23.5225 25.8981 24.3036 25.8668C24.8154 25.8521 24.3036 25.8668 23.7125 26.3527C23.934 26.1881 23.6151 26.5703 23.503 26.6006C21.1529 26.9429 19.6842 27.3927 17.4167 27.7069C17.2462 27.7305 17.0577 27.7477 16.8729 27.6402C15.7195 27.0075 14.548 26.3684 13.3215 25.5417Z" fill="#EAF9FF"/>
<path d="M53.6306 29.1534C51.318 28.8309 49.3823 28.3669 47.1309 27.9788C47.3102 28.1902 47.4606 28.2814 47.4924 28.4138C47.5891 28.7087 48.6873 28.7885 47.691 29.3461C47.6454 29.3698 47.753 29.4967 47.7946 29.5631C47.8779 29.6958 48.0856 29.8114 48.0688 29.9554C48.0383 30.2555 48.3159 30.3416 48.7791 30.3448C49.218 30.3539 49.5974 30.5427 50.1202 30.3662C51.2414 30.0077 52.3296 29.6188 53.6306 29.1534Z" fill="#EAF9FF"/>
<path d="M48.8191 15.1482C55.3374 12.3545 61.7766 9.40778 68.1615 6.32343L68.1621 6.32315C68.1713 6.31868 68.176 6.31642 68.1862 6.31398C68.3011 6.28649 68.39 6.40715 68.3357 6.51211C68.066 7.03405 67.8111 7.52006 67.5186 7.98266C66.5895 9.67191 66.4443 9.92155 65.537 11.5706C65.5122 11.6157 65.4714 11.6513 65.4232 11.6691L46.6073 18.6025L42.0745 20.3013C41.9965 20.3306 41.9087 20.3118 41.8494 20.2533L40.9707 19.3854C40.8669 19.2828 40.8947 19.1083 41.025 19.0425C44.8731 17.099 47.9381 15.5284 48.8191 15.1482Z" fill="#EAF9FF"/>
<path d="M65.6459 13.7545L66.6208 13.4469C65.2784 15.0279 63.9064 16.4279 62.4162 17.8018C62.2026 17.996 61.914 18.0395 61.6345 18.1119C56.6848 19.3247 51.7398 20.5519 46.7627 21.5039L43.6844 22.2219L42.6974 21.3473L47.6026 19.6376C53.6178 17.708 59.6443 15.7273 65.6459 13.7545Z" fill="#EAF9FF"/>
<path d="M61.1166 19.8761L61.1167 19.8761C59.5293 21.2544 58.0214 22.4826 56.3882 23.6469C56.0989 23.8673 55.7904 23.9529 55.414 23.9907C51.8468 24.3381 48.3251 24.5115 44.8636 24.4001L44.0298 23.2134L45.1444 23.071C50.3189 22.2561 55.4569 21.1005 60.6056 19.9766C60.7222 19.9375 60.8208 19.9222 61.1166 19.8761Z" fill="#EAF9FF"/>
<path d="M56.8909 25.5412C54.3166 25.7672 51.945 25.8793 49.6102 25.8664C48.8199 25.8663 46.6899 25.8976 45.9088 25.8663C45.397 25.8516 45.9088 25.8663 46.4999 26.3523C46.2784 26.1876 46.5974 26.5698 46.7094 26.6001C49.0596 26.9424 50.5282 27.3923 52.7958 27.7064C52.9662 27.73 53.1547 27.7472 53.3395 27.6397C54.4929 27.007 55.6644 26.3679 56.8909 25.5412Z" fill="#EAF9FF"/>
<path d="M88.3473 58.8279H89.7136V61.0308H88.3473V58.8279ZM88.3612 54.4781V61.0308H84.6945C84.0439 61.0308 83.5048 60.9843 83.0772 60.8913C82.6497 60.7984 82.3151 60.6357 82.0734 60.4034C81.8411 60.1617 81.6784 59.8271 81.5855 59.3996C81.4925 58.972 81.446 58.4236 81.446 57.7544C81.446 57.0852 81.4925 56.5368 81.5855 56.1093C81.6784 55.6817 81.8411 55.3518 82.0734 55.1194C82.3151 54.8777 82.6497 54.7104 83.0772 54.6175C83.5048 54.5246 84.0439 54.4781 84.6945 54.4781H88.3612ZM86.4094 56.6809H84.1368C83.9323 56.6809 83.779 56.7274 83.6767 56.8203C83.5838 56.904 83.5373 57.0294 83.5373 57.1967V58.3121C83.5373 58.4794 83.5838 58.6095 83.6767 58.7025C83.779 58.7861 83.9323 58.8279 84.1368 58.8279H86.4094V56.6809ZM83.9556 52.8608C83.8255 52.8608 83.6721 52.8004 83.4955 52.6796C83.3282 52.5495 83.1795 52.3961 83.0494 52.2195C82.9285 52.0429 82.8681 51.8942 82.8681 51.7734C82.8681 51.6246 82.9285 51.4713 83.0494 51.3133C83.1795 51.146 83.3282 51.0019 83.4955 50.8811C83.6628 50.751 83.8162 50.6859 83.9556 50.6859C84.095 50.6859 84.2484 50.751 84.4157 50.8811C84.583 51.0019 84.727 51.146 84.8479 51.3133C84.978 51.4713 85.043 51.6246 85.043 51.7734C85.043 51.9035 84.978 52.0522 84.8479 52.2195C84.7177 52.3868 84.569 52.5355 84.4017 52.6656C84.2344 52.7958 84.0857 52.8608 83.9556 52.8608ZM86.4512 52.8608C86.3211 52.8608 86.1677 52.8004 85.9911 52.6796C85.8238 52.5495 85.6751 52.3961 85.545 52.2195C85.4241 52.0429 85.3637 51.8942 85.3637 51.7734C85.3637 51.6246 85.4241 51.4713 85.545 51.3133C85.6751 51.146 85.8238 51.0019 85.9911 50.8811C86.1584 50.751 86.3118 50.6859 86.4512 50.6859C86.5906 50.6859 86.744 50.751 86.9113 50.8811C87.0786 51.0019 87.2226 51.146 87.3435 51.3133C87.4736 51.4713 87.5386 51.6246 87.5386 51.7734C87.5386 51.9035 87.4736 52.0522 87.3435 52.2195C87.2133 52.3868 87.0646 52.5355 86.8973 52.6656C86.73 52.7958 86.5813 52.8608 86.4512 52.8608ZM93.3757 58.8279H94.7281V61.0308H89.2907V58.8279H91.4099V54.4781H93.3757V58.8279ZM91.1311 64.321C91.0009 64.321 90.8476 64.256 90.671 64.1259C90.5037 64.005 90.355 63.8563 90.2249 63.6797C90.104 63.5031 90.0436 63.3544 90.0436 63.2336C90.0436 63.0849 90.104 62.9269 90.2249 62.7596C90.355 62.6015 90.5037 62.4575 90.671 62.3274C90.8383 62.2065 90.9917 62.1461 91.1311 62.1461C91.2705 62.1461 91.4239 62.2065 91.5912 62.3274C91.7585 62.4575 91.9025 62.6015 92.0234 62.7596C92.1535 62.9269 92.2185 63.0849 92.2185 63.2336C92.2185 63.3637 92.1535 63.5124 92.0234 63.6797C91.8932 63.847 91.7445 63.9957 91.5772 64.1259C91.4099 64.256 91.2612 64.321 91.1311 64.321ZM93.6406 64.321C93.5105 64.321 93.3571 64.256 93.1805 64.1259C93.0132 64.005 92.8645 63.8563 92.7344 63.6797C92.6136 63.5031 92.5531 63.3544 92.5531 63.2336C92.5531 63.0849 92.6136 62.9269 92.7344 62.7596C92.8645 62.6015 93.0132 62.4575 93.1805 62.3274C93.3478 62.2065 93.5012 62.1461 93.6406 62.1461C93.78 62.1461 93.9334 62.2065 94.1007 62.3274C94.268 62.4575 94.4121 62.6015 94.5329 62.7596C94.663 62.9269 94.7281 63.0849 94.7281 63.2336C94.7281 63.3637 94.663 63.5124 94.5329 63.6797C94.4028 63.847 94.2541 63.9957 94.0868 64.1259C93.9194 64.256 93.7707 64.321 93.6406 64.321ZM98.3893 58.8279H99.7417V61.0308H94.3044V58.8279H96.4235V54.4781H98.3893V58.8279ZM97.4134 52.8608C97.2833 52.8608 97.1299 52.8004 96.9533 52.6796C96.786 52.5495 96.6373 52.3961 96.5072 52.2195C96.3864 52.0429 96.3259 51.8942 96.3259 51.7734C96.3259 51.6246 96.3864 51.4713 96.5072 51.3133C96.6373 51.146 96.786 51.0019 96.9533 50.8811C97.1206 50.751 97.274 50.6859 97.4134 50.6859C97.5528 50.6859 97.7062 50.751 97.8735 50.8811C98.0408 51.0019 98.1849 51.146 98.3057 51.3133C98.4358 51.4713 98.5009 51.6246 98.5009 51.7734C98.5009 51.9035 98.4358 52.0522 98.3057 52.2195C98.1756 52.3868 98.0269 52.5355 97.8596 52.6656C97.6923 52.7958 97.5435 52.8608 97.4134 52.8608ZM105.271 54.2829C105.94 54.2829 106.484 54.3619 106.902 54.5199C107.321 54.6779 107.627 54.9289 107.823 55.2728C108.018 55.6074 108.115 56.0396 108.115 56.5694V61.0308H99.318V58.8279H106.15V56.5694C106.01 56.5415 105.847 56.5229 105.662 56.5136C105.485 56.5043 105.28 56.4997 105.048 56.4997C104.621 56.4997 104.179 56.5275 103.724 56.5833C103.268 56.6391 102.808 56.7274 102.343 56.8482L101.577 54.9242C101.958 54.7755 102.353 54.6547 102.762 54.5617C103.171 54.4688 103.584 54.3991 104.002 54.3526C104.43 54.3061 104.853 54.2829 105.271 54.2829ZM101.841 60.3755C101.553 60.0502 101.358 59.6552 101.256 59.1904C101.163 58.7257 101.117 58.1913 101.117 57.5871C101.117 57.1131 101.158 56.667 101.242 56.2487C101.326 55.8304 101.437 55.3889 101.577 54.9242L103.598 55.3564C103.44 55.8026 103.315 56.1976 103.222 56.5415C103.129 56.8761 103.082 57.2246 103.082 57.5871C103.082 57.9496 103.096 58.2563 103.124 58.5073C103.152 58.7582 103.198 58.9813 103.264 59.1765C103.329 59.3624 103.417 59.5483 103.528 59.7342L101.841 60.3755ZM115.332 54.729V52.2474H117.297V54.6175C117.297 55.045 117.283 55.3797 117.256 55.6213C117.228 55.8537 117.172 56.0303 117.088 56.1511C117.005 56.2626 116.87 56.3463 116.684 56.4021V56.4997C117 56.8528 117.218 57.2014 117.339 57.5453C117.469 57.8892 117.534 58.2749 117.534 58.7025C117.534 59.5947 117.242 60.2407 116.656 60.6404C116.08 61.0401 115.122 61.2399 113.784 61.2399C112.855 61.2399 112.125 61.1562 111.595 60.9889C111.075 60.8123 110.708 60.5381 110.494 60.1664C110.28 59.7853 110.173 59.288 110.173 58.6746C110.173 58.2006 110.224 57.787 110.326 57.4338C110.429 57.0713 110.615 56.7599 110.884 56.4997C111.163 56.2394 111.558 56.021 112.069 55.8444L115.332 54.729ZM112.264 59.0371H114.676C114.964 59.0371 115.164 58.9906 115.276 58.8977C115.387 58.7954 115.443 58.6792 115.443 58.5491C115.443 58.4469 115.411 58.3446 115.346 58.2424C115.28 58.1309 115.178 58.0286 115.039 57.9357L114.272 57.3083L112.264 57.9914V59.0371ZM112.794 56.0675L110.368 54.0877L111.748 52.4426L115.192 55.2728L112.794 56.0675ZM112.348 50.4628L113.463 50.1561V51.0902L110.201 51.9546V51.0484L110.731 50.895C110.694 50.7928 110.666 50.6812 110.647 50.5604C110.628 50.4396 110.619 50.3002 110.619 50.1422C110.619 49.6495 110.721 49.2638 110.926 48.985C111.13 48.6968 111.419 48.4877 111.79 48.3576C112.162 48.2182 112.59 48.1299 113.073 48.0927V49.1523C112.841 49.1802 112.627 49.2173 112.432 49.2638C112.246 49.301 112.051 49.3614 111.846 49.4451L111.832 50.184C111.832 50.3327 111.869 50.4303 111.944 50.4768C112.027 50.5139 112.162 50.5093 112.348 50.4628ZM119.752 61.0308V52.2474H121.717V61.0308H119.752ZM129.146 61.0308C128.607 61.0308 128.161 60.9285 127.808 60.724C127.455 60.5103 127.194 60.1803 127.027 59.7342C126.869 59.2787 126.79 58.6932 126.79 57.9775C126.79 57.5128 126.827 57.048 126.902 56.5833C126.976 56.1186 127.083 55.6771 127.222 55.2588L129.104 55.5516C128.984 55.8769 128.895 56.1929 128.839 56.4997C128.784 56.8064 128.756 57.1084 128.756 57.4059C128.756 57.7033 128.77 57.9635 128.798 58.1866C128.826 58.4097 128.872 58.6235 128.937 58.8279H135.727V54.4781H137.693V61.0308H129.146ZM131.112 54.255C130.982 54.255 130.829 54.1946 130.652 54.0738C130.485 53.9436 130.336 53.7903 130.206 53.6137C130.085 53.4371 130.025 53.2884 130.025 53.1675C130.025 53.0188 130.085 52.8655 130.206 52.7075C130.336 52.5402 130.485 52.3961 130.652 52.2753C130.819 52.1451 130.973 52.0801 131.112 52.0801C131.251 52.0801 131.405 52.1451 131.572 52.2753C131.739 52.3961 131.883 52.5402 132.004 52.7075C132.134 52.8655 132.199 53.0188 132.199 53.1675C132.199 53.2977 132.134 53.4464 132.004 53.6137C131.874 53.781 131.725 53.9297 131.558 54.0598C131.391 54.1899 131.242 54.255 131.112 54.255ZM133.622 54.255C133.491 54.255 133.338 54.1946 133.161 54.0738C132.994 53.9436 132.845 53.7903 132.715 53.6137C132.595 53.4371 132.534 53.2884 132.534 53.1675C132.534 53.0188 132.595 52.8655 132.715 52.7075C132.845 52.5402 132.994 52.3961 133.161 52.2753C133.329 52.1451 133.482 52.0801 133.622 52.0801C133.761 52.0801 133.914 52.1451 134.082 52.2753C134.249 52.3961 134.393 52.5402 134.514 52.7075C134.644 52.8655 134.709 53.0188 134.709 53.1675C134.709 53.2977 134.644 53.4464 134.514 53.6137C134.384 53.781 134.235 53.9297 134.068 54.0598C133.9 54.1899 133.752 54.255 133.622 54.255ZM139.98 61.0308V52.2474H141.946V58.8279H143.298V61.0308H139.98ZM153.07 61.0308C152.392 61.0308 151.834 60.9796 151.397 60.8774C150.97 60.7752 150.635 60.6032 150.393 60.3616C150.161 60.1106 149.998 59.7667 149.905 59.3299C149.813 58.8837 149.766 58.3307 149.766 57.6708V55.7328H151.732V58.089C151.732 58.3865 151.82 58.5863 151.997 58.6885C152.173 58.7815 152.434 58.8279 152.777 58.8279H154.395C154.451 58.6421 154.488 58.4376 154.506 58.2145C154.525 57.9914 154.534 57.7312 154.534 57.4338C154.534 57.0062 154.497 56.574 154.423 56.1372C154.348 55.7003 154.255 55.2495 154.144 54.7848L156.082 54.4781C156.184 54.7662 156.263 55.0683 156.319 55.3843C156.384 55.7003 156.43 56.0256 156.458 56.3602C156.486 56.6855 156.5 57.0062 156.5 57.3222C156.5 58.2889 156.374 59.0417 156.124 59.5808C155.882 60.1199 155.505 60.4963 154.994 60.7101C154.492 60.9239 153.851 61.0308 153.07 61.0308ZM148.107 61.0308H146.964V58.8279H148.72C149.064 58.8279 149.325 58.7815 149.501 58.6885C149.678 58.5863 149.766 58.3865 149.766 58.089V55.7328H151.732V57.6708C151.732 58.3307 151.685 58.8837 151.592 59.3299C151.499 59.7667 151.323 60.1106 151.063 60.3616C150.812 60.6032 150.445 60.7752 149.961 60.8774C149.487 60.9796 148.869 61.0308 148.107 61.0308ZM146.964 61.0308H142.879V58.8279H144.998V55.7328H146.964V61.0308ZM158.707 61.0308V52.2474H160.673V61.0308H158.707ZM165.454 58.8279H166.806V61.0308H165.454V58.8279ZM162.889 64.9205L162.164 63.1639C162.526 62.9966 162.805 62.82 163 62.6341C163.195 62.4575 163.33 62.2205 163.405 61.923C163.479 61.6256 163.516 61.2306 163.516 60.738V54.4781H165.468V60.738C165.468 61.4815 165.384 62.1136 165.217 62.6341C165.05 63.1639 164.776 63.61 164.394 63.9725C164.013 64.335 163.511 64.651 162.889 64.9205ZM174.349 58.8279H175.45V61.0308H174.001C173.703 61.0308 173.461 60.9703 173.276 60.8495C173.099 60.7194 172.96 60.5196 172.857 60.25L172.021 58.0751C171.891 57.7126 171.714 57.4152 171.491 57.1828C171.268 56.9411 170.989 56.7692 170.654 56.667C170.32 56.5554 169.897 56.4997 169.386 56.4997C169.144 56.4997 168.884 56.5043 168.605 56.5136C168.326 56.5229 168.029 56.5508 167.713 56.5972L167.42 54.4223C167.782 54.3758 168.126 54.3433 168.452 54.3247C168.777 54.2968 169.084 54.2829 169.372 54.2829C170.19 54.2829 170.878 54.3898 171.435 54.6036C172.002 54.808 172.472 55.1287 172.843 55.5655C173.224 56.0024 173.536 56.5694 173.777 57.2665L174.349 58.8279ZM171.77 56.7785L173.596 57.3919C173.401 58.0518 173.15 58.6142 172.843 59.0789C172.546 59.5436 172.197 59.9201 171.798 60.2082C171.407 60.487 170.98 60.6962 170.515 60.8356C170.05 60.9657 169.562 61.0308 169.051 61.0308H166.388V58.8279H169.274C169.655 58.8279 169.985 58.7722 170.264 58.6606C170.543 58.5491 170.775 58.4004 170.961 58.2145C171.156 58.0193 171.319 57.8009 171.449 57.5592C171.579 57.3176 171.686 57.0573 171.77 56.7785ZM179.095 58.8279H180.447V61.0308H175.01V58.8279H177.129V52.2474H179.095V58.8279ZM184.108 61.0308H180.024V58.8279H182.143V52.2474H184.108V61.0308ZM191.379 62.1601H193.373C193.866 62.1601 194.228 62.1089 194.461 62.0067C194.702 61.9137 194.823 61.7186 194.823 61.4211V54.4781H196.789V61.0586C196.789 61.7093 196.738 62.2484 196.636 62.6759C196.543 63.1127 196.361 63.452 196.092 63.6937C195.822 63.9446 195.437 64.1212 194.935 64.2235C194.433 64.3257 193.777 64.3768 192.969 64.3768C192.235 64.3768 191.626 64.3257 191.142 64.2235C190.659 64.1212 190.278 63.9446 189.999 63.6937C189.73 63.4427 189.539 63.0988 189.428 62.662C189.325 62.2251 189.274 61.6674 189.274 60.9889C189.274 60.5986 189.288 60.2128 189.316 59.8318C189.353 59.4414 189.409 59.0603 189.483 58.6885C189.558 58.3074 189.641 57.9403 189.734 57.5871L191.603 57.8938C191.482 58.3679 191.389 58.8326 191.324 59.288C191.268 59.7342 191.24 60.1757 191.24 60.6125C191.24 60.9378 191.249 61.2213 191.268 61.463C191.287 61.7139 191.324 61.9463 191.379 62.1601ZM193.039 52.8608C192.908 52.8608 192.755 52.8004 192.578 52.6796C192.411 52.5495 192.262 52.3961 192.132 52.2195C192.012 52.0429 191.951 51.8942 191.951 51.7734C191.951 51.6246 192.012 51.4713 192.132 51.3133C192.262 51.146 192.411 51.0019 192.578 50.8811C192.746 50.751 192.899 50.6859 193.039 50.6859C193.178 50.6859 193.331 50.751 193.499 50.8811C193.666 51.0019 193.81 51.146 193.931 51.3133C194.061 51.4713 194.126 51.6246 194.126 51.7734C194.126 51.9035 194.061 52.0522 193.931 52.2195C193.801 52.3868 193.652 52.5355 193.485 52.6656C193.317 52.7958 193.169 52.8608 193.039 52.8608ZM199.085 61.0308V52.2474H201.051V58.8279H202.403V61.0308H199.085ZM212.176 61.0308C211.497 61.0308 210.939 60.9796 210.503 60.8774C210.075 60.7752 209.74 60.6032 209.499 60.3616C209.266 60.1106 209.104 59.7667 209.011 59.3299C208.918 58.8837 208.871 58.3307 208.871 57.6708V55.7328H210.837V58.089C210.837 58.3865 210.926 58.5863 211.102 58.6885C211.279 58.7815 211.539 58.8279 211.883 58.8279H213.5C213.556 58.6421 213.593 58.4376 213.612 58.2145C213.63 57.9914 213.64 57.7312 213.64 57.4338C213.64 57.0062 213.602 56.574 213.528 56.1372C213.454 55.7003 213.361 55.2495 213.249 54.7848L215.187 54.4781C215.289 54.7662 215.368 55.0683 215.424 55.3843C215.489 55.7003 215.536 56.0256 215.564 56.3602C215.591 56.6855 215.605 57.0062 215.605 57.3222C215.605 58.2889 215.48 59.0417 215.229 59.5808C214.987 60.1199 214.611 60.4963 214.1 60.7101C213.598 60.9239 212.956 61.0308 212.176 61.0308ZM207.212 61.0308H206.069V58.8279H207.826C208.17 58.8279 208.43 58.7815 208.607 58.6885C208.783 58.5863 208.871 58.3865 208.871 58.089V55.7328H210.837V57.6708C210.837 58.3307 210.791 58.8837 210.698 59.3299C210.605 59.7667 210.428 60.1106 210.168 60.3616C209.917 60.6032 209.55 60.7752 209.067 60.8774C208.593 60.9796 207.975 61.0308 207.212 61.0308ZM206.069 61.0308H201.984V58.8279H204.103V55.7328H206.069V61.0308ZM220.308 58.8279H221.661V61.0308H220.308V58.8279ZM217.743 64.9205L217.018 63.1639C217.38 62.9966 217.659 62.82 217.854 62.6341C218.05 62.4575 218.184 62.2205 218.259 61.923C218.333 61.6256 218.37 61.2306 218.37 60.738V54.4781H220.322V60.738C220.322 61.4815 220.239 62.1136 220.071 62.6341C219.904 63.1639 219.63 63.61 219.249 63.9725C218.868 64.335 218.366 64.651 217.743 64.9205ZM229.747 58.814H231.099V61.0168H229.747V58.814ZM221.242 58.8279H223.292C223.208 58.5119 223.143 58.2238 223.097 57.9635C223.06 57.694 223.041 57.3687 223.041 56.9876C223.041 56.5229 223.106 56.1232 223.236 55.7886C223.366 55.4447 223.566 55.1612 223.836 54.9382C224.114 54.7151 224.472 54.5524 224.909 54.4502C225.346 54.3387 225.876 54.2829 226.499 54.2829C227.149 54.2829 227.721 54.3247 228.213 54.4084C228.715 54.4827 229.226 54.6175 229.747 54.8127V61.0308H221.242V58.8279ZM227.224 58.8279C227.437 58.8279 227.581 58.7861 227.656 58.7025C227.739 58.6188 227.781 58.4701 227.781 58.2563V56.4997H225.704C225.49 56.4997 225.341 56.5415 225.258 56.6251C225.174 56.7088 225.132 56.8621 225.132 57.0852V58.8279H227.224ZM226.512 52.8608C226.382 52.8608 226.229 52.8004 226.052 52.6796C225.885 52.5495 225.736 52.3961 225.606 52.2195C225.485 52.0429 225.425 51.8942 225.425 51.7734C225.425 51.6246 225.485 51.4713 225.606 51.3133C225.736 51.146 225.885 51.0019 226.052 50.8811C226.22 50.751 226.373 50.6859 226.512 50.6859C226.652 50.6859 226.805 50.751 226.973 50.8811C227.14 51.0019 227.284 51.146 227.405 51.3133C227.535 51.4713 227.6 51.6246 227.6 51.7734C227.6 51.9035 227.535 52.0522 227.405 52.2195C227.275 52.3868 227.126 52.5355 226.959 52.6656C226.791 52.7958 226.643 52.8608 226.512 52.8608ZM234.766 61.0308H230.681V58.8279H232.8V52.2474H234.766V61.0308ZM237.047 61.0308V52.2474H239.013V61.0308H237.047Z" fill="#EAF9FF"/>
<path d="M137.674 15.1224V12.2034H134.303L132.741 10.6411V8.88501L134.303 7.32859H135.184V10.0949H138.767L140.276 11.6572V13.566L138.72 15.1224H137.674ZM137.674 9.51345V8.7323H135.595V7.32859H138.714L140.065 8.68532V9.51345H137.674ZM134.05 15.1224L132.741 13.566V12.7849H135.337V13.7128H137.263V15.1224H134.05ZM141.934 15.1224V8.30746H144.204V11.0088H146.376V12.3235H144.204V15.1224H141.934ZM145.975 10.2795V9.62731H144.563V8.30746H148.112V10.2795H145.975ZM144.563 15.1224V13.7615H145.842V13.0785H148.112V15.1224H144.563ZM150.787 15.1224L149.421 13.7615V9.6684L150.787 8.30746H151.691V15.1224H150.787ZM153.56 11.0396V9.6684H152.05V8.30746H154.469L155.83 9.6684V11.0396H153.56ZM152.05 15.1224V13.7615H153.56V12.7652H155.83V13.7615L154.469 15.1224H152.05ZM160.755 15.1224V13.7615H161.597V8.30746H163.867V13.7615L162.506 15.1224H160.755ZM158.649 15.1224L157.283 13.7615V8.30746H159.558V13.7615H160.395V15.1224H158.649ZM168.001 13.0785V11.7586H169.706V9.6684H168.001V8.30746H170.594L171.96 9.6684V11.7124L170.902 12.7703L172.192 15.1224H169.767L168.802 13.0785H168.001ZM165.371 15.1224V8.30746H167.641V15.1224H165.371ZM173.3 15.1224V13.6691H173.983V9.7557H173.3V8.30746H176.936V9.7557H176.253V13.6691H176.936V15.1224H173.3ZM178.194 9.79165V8.30746H184.11V9.79165H178.194ZM179.971 15.1224V10.146H182.334V15.1224H179.971ZM187.253 15.1224V12.9552L184.942 8.30746H187.171L189.528 13.1144V15.1224H187.253ZM189.672 12.6368L188.568 10.3977L189.687 8.30746H191.87L189.672 12.6368ZM197.537 15.1224L195.98 13.566V8.88501L197.537 7.32859H198.576V13.566H200.802V15.1224H197.537ZM200.92 9.66616V8.88501H198.987V7.32859H202.153L203.516 8.88501V9.66616H200.92ZM201.213 15.1224V12.3444H199.951V10.7997H203.516V15.1224H201.213ZM209.165 15.1224V13.566H210.129V7.32859H212.725V13.566L211.168 15.1224H209.165ZM206.757 15.1224L205.195 13.566V7.32859H207.797V13.566H208.754V15.1224H206.757ZM219.749 15.1224L219.42 14.2708H216.871L217.411 12.7261H218.821L216.736 7.32859H219.267L222.374 15.1224H219.749ZM213.67 15.1224L216.454 7.68099L217.605 10.7762L216.178 15.1224H213.67ZM226.555 12.7849V11.2754H228.505V8.88501H226.555V7.32859H229.521L231.084 8.88501V11.2226L229.874 12.4325L231.348 15.1224H228.576L227.471 12.7849H226.555ZM223.548 15.1224V7.32859H226.144V15.1224H223.548ZM235.811 15.1224V13.566H237.738V8.88501H235.811V7.32859H238.777L240.339 8.88501V13.566L238.777 15.1224H235.811ZM232.804 15.1224V7.32859H235.4V15.1224H232.804Z" fill="#EAF9FF"/>
<path d="M97.5921 37.9088L96.6767 35.5385H89.5821L91.086 31.2393H95.0093L89.2061 16.2164H96.2517L104.899 37.9088H97.5921ZM80.673 37.9088L88.4215 17.1972L91.6255 25.8121L87.6532 37.9088H80.673ZM108.167 37.9088V16.2164H115.393V37.9088H108.167ZM116.537 37.9088V33.5769H120.117V30.8306H126.672V37.9088H116.537ZM130.014 37.9088V19.8295H136.036V27.9086H141.594V31.4646H136.036V37.9088H130.014ZM140.15 25.8241V23.4399H136.99V19.8295H146.172V25.8241H140.15ZM156.972 37.9088V34.7518H158.926V22.1001H164.192V34.7518L161.035 37.9088H156.972ZM152.088 37.9088L148.919 34.7518V22.1001H154.196V34.7518H156.138V37.9088H152.088ZM173.781 33.1674V30.1057H177.736V25.2571H173.781V22.1001H179.797L182.966 25.2571V29.9985L180.512 32.4526L183.502 37.9088H177.879L175.639 33.1674H173.781ZM167.681 37.9088V22.1001H172.947V37.9088H167.681ZM196.129 37.9088V31.988H189.291L186.122 28.8191V25.2571L189.291 22.1001H191.077V27.7112H198.344L201.406 30.8801V34.7518L198.249 37.9088H196.129ZM196.129 26.5318V24.9474H191.911V22.1001H198.237L200.977 24.8521V26.5318H196.129ZM188.778 37.9088L186.122 34.7518V33.1674H191.387V35.0497H195.295V37.9088H188.778ZM215.463 37.9088L214.796 36.1814H209.625L210.721 33.0483H213.58L209.351 22.1001H214.486L220.788 37.9088H215.463ZM203.133 37.9088L208.779 22.8149L211.114 29.0931L208.219 37.9088H203.133ZM232.748 37.9088L223.169 22.1001H228.733L238.347 37.9088H232.748ZM238.347 36.4078L233.76 28.8549V22.1001H238.347V36.4078ZM223.169 37.9088V23.6012L227.756 31.1184V37.9088H223.169Z" fill="#EAF9FF"/>
<path d="M109.639 7.12244V12.9124H116.889V7.12244H109.639Z" fill="#EAF9FF" stroke="#EAF9FF" stroke-width="0.606169"/>
</svg>
