<svg width="21" height="22" viewBox="0 0 21 22" fill="none" xmlns="http://www.w3.org/2000/svg">
<path d="M15.5356 0.861572H5.95025C3.09659 0.861572 0.755127 3.17865 0.755127 6.05669V16.1055C0.755127 18.9591 3.0722 21.3006 5.95025 21.3006H15.56C18.4137 21.3006 20.7551 18.9835 20.7551 16.1055V6.0323C20.7307 3.17865 18.4137 0.861572 15.5356 0.861572ZM17.2673 17.8372H13.5112C13.4868 17.8372 13.4624 17.8372 13.4624 17.8128L9.95025 12.7152H9.92586C8.51122 14.3494 7.12098 15.9591 5.75513 17.5445C5.68196 17.6421 5.5844 17.7152 5.51122 17.7884C5.48683 17.8128 5.46244 17.8128 5.43805 17.8128H4.41366C4.38927 17.8128 4.36488 17.8128 4.38927 17.7884L9.38927 11.9835C9.41366 11.9591 9.41366 11.9347 9.38927 11.9104L4.41366 4.66645V4.64206H8.19415C8.21854 4.64206 8.21854 4.64206 8.24293 4.66645L11.56 9.47133C11.56 9.47133 11.56 9.47133 11.5844 9.47133L15.7063 4.66645C15.7307 4.64206 15.7551 4.64206 15.7795 4.64206H16.8039C16.8527 4.64206 16.8527 4.66645 16.8283 4.69084L12.0966 10.1786C12.0722 10.203 12.0722 10.2274 12.0966 10.2518L17.2917 17.8128C17.2917 17.8128 17.2917 17.8372 17.2673 17.8372Z" fill="#EAF9FF"/>
<path d="M7.75522 5.52002H6.12107C6.09668 5.52002 6.09668 5.54441 6.09668 5.5688L13.9503 16.959C13.9503 16.959 13.9503 16.959 13.9747 16.959H15.5845C15.6089 16.959 15.6089 16.9347 15.6089 16.9103L7.75522 5.52002Z" fill="#042147"/>
</svg>
