<svg width="22" height="22" viewBox="0 0 22 22" fill="none" xmlns="http://www.w3.org/2000/svg">
<path d="M5.04303 0.664795C2.79779 0.664795 0.960205 2.50234 0.960205 4.74762V17.4173C0.960205 19.6626 2.79775 21.4995 5.04303 21.4995H17.7127C19.958 21.4995 21.7949 19.6626 21.7949 17.4173V4.74762C21.7949 2.50238 19.958 0.664795 17.7127 0.664795H5.04303ZM6.06992 4.10294C7.14646 4.10294 7.80956 4.80967 7.83003 5.73866C7.83003 6.64713 7.14642 7.37373 6.04909 7.37373H6.0289C4.97285 7.37373 4.29027 6.64717 4.29027 5.73866C4.29027 4.80969 4.9935 4.10294 6.0699 4.10294H6.06992ZM15.3471 8.44491C17.4175 8.44491 18.9695 9.79813 18.9695 12.7061V18.1349H15.8231V13.0701C15.8231 11.7974 15.3677 10.9291 14.229 10.9291C13.3598 10.9291 12.8416 11.5143 12.6141 12.0797C12.531 12.282 12.5106 12.5645 12.5106 12.8474V18.1349H9.36418C9.36418 18.1349 9.40547 9.5553 9.36418 8.66694H12.5113V10.0077C12.9294 9.36258 13.6773 8.44489 15.3471 8.44489V8.44491ZM4.47587 8.66763H7.6223V18.1349H4.47587V8.66763Z" fill="#EAF9FF"/>
</svg>
