<svg width="163" height="61" viewBox="0 0 163 61" fill="none" xmlns="http://www.w3.org/2000/svg">
<path d="M15.3174 40.2046L15.1499 39.7708H13.8516L14.1268 38.9841H14.8448L13.7828 36.2349H15.0721L16.6546 40.2046H15.3174ZM12.2213 40.2046L13.6392 36.4144L14.2255 37.9909L13.4986 40.2046H12.2213ZM17.2007 40.2046V37.0947H18.2366V40.2046H17.2007ZM18.4006 40.2046V39.5836H18.9139V39.1898H19.8536V40.2046H18.4006ZM20.5143 40.2046V37.0947H21.5501V38.4844H22.5063V39.0961H21.5501V40.2046H20.5143ZM22.2579 38.1259V37.7158H21.7142V37.0947H23.2937V38.1259H22.2579ZM25.2728 40.2046V39.6204H25.6343V37.2794H26.6086V39.6204L26.0245 40.2046H25.2728ZM24.369 40.2046L23.7826 39.6204V37.2794H24.7592V39.6204H25.1185V40.2046H24.369ZM28.3829 39.3273V38.7607H29.1148V37.8636H28.3829V37.2794H29.4961L30.0825 37.8636V38.7409L29.6284 39.195L30.1817 40.2046H29.1412L28.7268 39.3273H28.3829ZM27.2543 40.2046V37.2794H28.2286V40.2046H27.2543ZM32.5196 40.2046V39.1083H31.2534L30.6666 38.5215V37.8619L31.2534 37.2774H31.5843V38.3163H32.9299L33.4968 38.9031V39.62L32.9122 40.2046H32.5196ZM32.5196 38.098V37.8046H31.7387V37.2774H32.91L33.4174 37.7869V38.098H32.5196ZM31.1585 40.2046L30.6666 39.62V39.3266H31.6416V39.6752H32.3651V40.2046H31.1585ZM36.0995 40.2046L35.976 39.8847H35.0187L35.2216 39.3046H35.751L34.9679 37.2774H35.9187L37.0856 40.2046H36.0995ZM33.8164 40.2046L34.862 37.4097L35.2944 38.5722L34.7584 40.2046H33.8164ZM39.9126 40.2046L37.6198 36.4204H38.9516L41.2529 40.2046H39.9126ZM41.2529 39.8453L40.155 38.0373V36.4204H41.2529V39.8453ZM37.6198 40.2046V36.7797L38.7177 38.5791V40.2046H37.6198Z" fill="#042147"/>
<path d="M16.9685 45.4866V44.4355H15.7545L15.192 43.8729V43.2406L15.7545 42.6801H16.0718V43.6762H17.3618L17.9054 44.2388V44.9261L17.3449 45.4866H16.9685ZM16.9685 43.4669V43.1856H16.2198V42.6801H17.3428L17.8292 43.1687V43.4669H16.9685ZM15.6636 45.4866L15.192 44.9261V44.6448H16.1267V44.979H16.8204V45.4866H15.6636ZM18.5037 45.4866V42.6801H19.4385V43.7925H20.3331V44.334H19.4385V45.4866H18.5037ZM20.1681 43.4922V43.2236H19.5865V42.6801H21.0479V43.4922H20.1681ZM19.5865 45.4866V44.9261H20.1131V44.6448H21.0479V45.4866H19.5865ZM22.1496 45.4866L21.5871 44.9261V43.2406L22.1496 42.6801H22.5218V45.4866H22.1496ZM23.2917 43.8052V43.2406H22.6699V42.6801H23.666L24.2264 43.2406V43.8052H23.2917ZM22.6699 45.4866V44.9261H23.2917V44.5158H24.2264V44.9261L23.666 45.4866H22.6699ZM26.2544 45.4866V44.9261H26.6013V42.6801H27.5361V44.9261L26.9756 45.4866H26.2544ZM25.3873 45.4866L24.8248 44.9261V42.6801H25.7617V44.9261H26.1064V45.4866H25.3873ZM29.2384 44.6448V44.1013H29.9405V43.2406H29.2384V42.6801H30.3064L30.869 43.2406V44.0823L30.4333 44.518L30.9641 45.4866H29.9659L29.5683 44.6448H29.2384ZM28.1556 45.4866V42.6801H29.0903V45.4866H28.1556ZM31.4208 45.4866V44.8881H31.7021V43.2765H31.4208V42.6801H32.9181V43.2765H32.6369V44.8881H32.9181V45.4866H31.4208ZM33.4361 43.2913V42.6801H35.8725V43.2913H33.4361ZM34.1679 45.4866V43.4372H35.1407V45.4866H34.1679ZM37.1666 45.4866V44.5941L36.2149 42.6801H37.1328L38.1035 44.6596V45.4866H37.1666ZM38.1627 44.463L37.708 43.5409L38.1691 42.6801H39.0679L38.1627 44.463Z" fill="#042147"/>
<path d="M13.3669 32.3611C13.413 32.3304 13.4284 32.3227 13.4437 32.3151C13.9431 32.0847 14.3656 32.0694 14.8572 32.4609C15.5946 33.0444 16.5241 33.2287 17.446 33.4053C17.1694 33.221 16.8852 33.0444 16.624 32.8448C16.3475 32.6375 16.0786 32.4302 15.8328 32.1922C15.3642 31.7316 15.2336 31.3784 15.2106 30.5723C12.4682 31.8774 9.52602 31.7085 6.60693 31.816C6.97566 31.9389 7.33671 32.0694 7.70543 32.1922C10.9932 33.2594 14.3195 34.2191 17.7302 34.8333C18.8671 35.0406 20.004 35.2018 21.1409 35.3784C21.2869 35.4014 21.4482 35.3707 21.5865 35.3247C22.0474 35.1481 22.5006 34.9561 22.9538 34.7335C19.6276 34.4878 16.3628 34.0579 13.3669 32.3611Z" fill="#042147"/>
<path d="M41.3987 32.3611C41.3526 32.3304 41.3372 32.3227 41.3219 32.3151C40.8226 32.0847 40.4001 32.0694 39.9084 32.4609C39.171 33.0444 38.2415 33.2287 37.3197 33.4053C37.5962 33.221 37.8804 33.0444 38.1416 32.8448C38.4182 32.6375 38.687 32.4302 38.9328 32.1922C39.4014 31.7316 39.532 31.3784 39.5551 30.5723C42.2975 31.8774 45.2396 31.7085 48.1587 31.816C47.79 31.9389 47.4289 32.0694 47.0602 32.1922C43.7724 33.2594 40.4462 34.2191 37.0354 34.8333C35.8985 35.0406 34.7616 35.2018 33.6247 35.3784C33.4788 35.4014 33.3174 35.3707 33.1792 35.3247C32.7183 35.1481 32.265 34.9561 31.8118 34.7335C35.138 34.4878 38.4028 34.0579 41.3987 32.3611Z" fill="#042147"/>
<path d="M40.397 50.4989C40.4645 50.0699 40.5319 49.6838 40.5932 49.2855C40.0782 49.2059 39.5815 49.1262 39.091 49.0465C37.3129 48.7708 35.5408 48.4889 33.7627 48.2131C33.174 48.1212 32.6529 48.2253 32.1685 48.6114C30.8441 49.6593 29.489 50.6705 28.1094 51.6694C28.1339 51.6265 28.1584 51.5836 28.1891 51.5468C29.2744 50.0944 30.3597 48.6421 31.4388 47.1836C31.5185 47.0794 31.5921 47.0426 31.727 47.0487C34.0631 47.2326 36.3625 47.6064 38.6434 48.1273C40.0659 48.4521 41.4823 48.7953 42.9048 49.1323C42.9294 49.1384 42.9539 49.1507 43.0336 49.1813C42.1384 49.6226 41.2861 50.0515 40.397 50.4989Z" fill="#042147"/>
<path d="M27.2788 51.6939C26.7269 51.2833 26.1874 50.8911 25.66 50.4928C24.8078 49.8432 23.9555 49.1936 23.1154 48.5256C22.674 48.1825 22.1834 48.1273 21.6623 48.2009C19.5898 48.5195 17.5112 48.8443 15.4387 49.1691C15.2364 49.1997 15.0279 49.2365 14.7949 49.2794C14.8562 49.6716 14.9237 50.0577 14.9911 50.4928C14.102 50.0516 13.2497 49.6226 12.3975 49.1936C12.3975 49.1752 12.4036 49.163 12.4036 49.1446C12.9432 49.0098 13.4827 48.8627 14.0223 48.7463C15.9844 48.3234 17.9343 47.8761 19.9086 47.5145C21.1595 47.2878 22.4348 47.1958 23.6979 47.0488C23.7654 47.0426 23.8758 47.0794 23.9125 47.1346C25.0346 48.6298 26.1506 50.1312 27.2726 51.6326C27.2788 51.6387 27.2726 51.651 27.2788 51.6939Z" fill="#042147"/>
<path d="M30.8115 12.3752C28.6473 13.9529 28.7095 16.2128 28.999 18.5344C29.0264 18.5413 29.0605 18.5481 29.0879 18.5549C29.1017 18.4792 29.123 18.3963 29.1299 18.3206C29.1919 17.3561 29.5919 16.5571 30.2881 15.8958C30.3777 15.8131 30.5636 15.7441 30.667 15.7786C32.4729 16.3504 33.7548 17.6526 33.9961 19.5471C34.0236 19.7535 33.9891 19.8495 33.7549 19.8977C32.6382 20.1182 31.6315 20.5522 30.8457 21.4133C30.7147 21.558 30.6045 21.7237 30.4873 21.8752C30.4598 21.9165 30.4395 21.9648 30.4326 22.0334C31.9215 20.5938 33.7068 20.1535 35.7471 20.4221C34.6513 22.4888 34.6651 24.6519 34.8994 26.8977C34.417 26.5878 33.969 26.3054 33.4521 25.9749C33.5072 26.1123 33.5271 26.1815 33.5615 26.2366C33.8579 26.7119 34.1686 27.187 34.4512 27.6692C34.5132 27.7794 34.5472 27.9584 34.499 28.0686C33.3823 30.535 32.2594 32.9949 31.1289 35.4543C31.1082 35.5026 31.0738 35.5511 31.0117 35.6614C30.7727 34.3811 30.536 33.1092 30.2998 31.8411L31.791 26.3264H29.2734C29.2256 26.0692 29.1778 25.8116 29.1299 25.554C29.688 25.4644 30.2116 25.3749 30.7422 25.2854C31.1834 25.2165 31.6321 25.1543 32.0664 25.0647C32.1697 25.0439 32.314 24.9344 32.3418 24.8381C32.5762 24.0734 32.7901 23.3015 33.0244 22.4749C32.9141 22.5093 32.8383 22.5234 32.7832 22.5579C31.3563 23.3432 29.9289 24.128 28.4951 24.9065C28.2747 25.0236 28.2193 25.1548 28.2744 25.3958C28.5363 26.5738 28.7919 27.745 29.0332 28.9299C29.0608 29.0607 29.0191 29.2533 28.9297 29.3499C28.4748 29.839 27.9993 30.3011 27.4893 30.804C27.317 30.6387 27.1517 30.48 26.9863 30.3147C26.6899 30.0253 26.4137 29.7152 26.1035 29.4465C25.8968 29.2674 25.8834 29.0881 25.9316 28.8401C26.1935 27.6622 26.4483 26.4907 26.6826 25.3059C26.7031 25.2094 26.6411 25.0309 26.5654 24.9895C25.0559 24.1422 23.5463 23.3155 21.9541 22.4407C22.1953 23.2948 22.4023 24.0667 22.6436 24.8313C22.6716 24.9275 22.843 25.0303 22.9668 25.051C23.8491 25.2095 24.7319 25.3409 25.6143 25.4856C25.6831 25.4994 25.7453 25.5195 25.8555 25.554C25.8118 25.7882 25.7683 26.0228 25.7246 26.2571H23.1738L24.6826 31.842C24.4433 33.1256 24.2024 34.4173 23.96 35.7229C23.8704 35.5507 23.8216 35.4609 23.7803 35.3713C22.6774 32.9671 21.5882 30.5695 20.4854 28.1721C20.389 27.9588 20.382 27.8072 20.5127 27.6077C20.8436 27.1116 21.1471 26.6013 21.4297 26.0432C20.9816 26.3326 20.5269 26.6222 20.1133 26.884C20.1133 25.7818 20.1547 24.6864 20.0996 23.5911C20.0514 22.4819 19.741 21.4272 19.1758 20.4006C21.2093 20.1251 22.974 20.5458 24.4629 21.9788C24.0217 21.0074 22.6569 20.1529 20.9268 19.8567C20.9474 19.6432 20.9616 19.4159 21.0029 19.2024C21.3545 17.3974 22.719 16.2256 24.3389 15.7502C24.4353 15.7228 24.594 15.8054 24.6836 15.8879C25.3798 16.5217 25.731 17.3007 25.8965 18.4788C26.1308 17.3698 26.1728 16.2538 25.9316 15.1379C25.6766 13.9806 25.1177 13.0296 24.1045 12.3958C25.235 11.259 26.3657 10.1426 27.4824 9.03345C28.5646 10.115 29.688 11.2454 30.8115 12.3752Z" fill="#042147"/>
<path d="M2.41553 33.5889C3.10024 33.5184 3.42246 33.1863 3.43253 32.4517C3.4426 31.0428 3.43253 29.6339 3.43253 28.2249C3.43253 28.0136 3.43253 27.8123 3.43253 27.4802C4.27835 27.9432 5.04362 28.3356 5.77868 28.7885C5.89951 28.859 5.91965 29.1609 5.91965 29.3621C5.92972 31.4655 5.93979 33.5688 5.90958 35.6821C5.89951 36.2759 6.06062 36.7489 6.42312 37.2118C8.66857 40.08 11.3067 42.5859 13.9852 45.0414C18.1639 48.8656 22.5038 52.4885 27.0652 55.8498C27.4579 56.1417 27.7197 56.2121 28.1527 55.8901C35.0905 50.667 41.7564 45.1219 47.6167 38.6811C49.3386 36.7892 49.3083 36.769 49.3083 34.2229C49.3083 32.6228 49.3184 31.0126 49.2983 29.4125C49.2882 29.02 49.3889 28.7784 49.7615 28.5973C50.4361 28.2753 51.0805 27.8928 51.8357 27.4903C51.8357 28.4967 51.8357 29.4125 51.8357 30.3283C51.8357 30.9421 51.8357 31.5661 51.8357 32.18C51.8357 33.1964 51.9364 33.3474 52.883 33.7197C52.883 35.0381 52.883 36.3463 52.883 37.6647C51.4833 39.3655 50.1844 41.1467 48.6639 42.7267C47.7073 43.713 47.224 44.6791 47.3851 46.0276C47.4153 46.3094 47.224 46.7019 47.0025 46.9132C44.4549 49.2782 41.857 51.5929 39.3196 53.9679C38.5342 54.7026 37.7186 55.1051 36.6411 54.9441C36.3391 54.9038 36.0168 54.9038 35.7148 54.9541C35.4328 55.0045 35.1106 55.0749 34.8891 55.246C33.3283 56.3832 31.7978 57.5606 30.2471 58.718C29.4114 59.3319 28.5655 59.9256 27.7197 60.5294C27.6794 60.5294 27.6392 60.5294 27.5989 60.5294C27.4378 60.3986 27.2666 60.2678 27.0954 60.147C25.3232 58.879 23.4604 57.7116 21.809 56.3027C20.5604 55.246 19.2816 54.7327 17.6705 54.934C17.3685 54.9743 16.9556 54.7931 16.7039 54.5818C14.257 52.4282 11.8706 50.194 9.3835 48.0806C8.25573 47.0743 7.58109 46.0478 7.84289 44.5281C7.88317 44.2866 7.69185 43.9545 7.5106 43.7432C6.07069 42.0424 4.61064 40.3718 3.16066 38.6912C2.89885 38.3893 2.65719 38.0773 2.41553 37.7653C2.41553 36.3765 2.41553 34.9877 2.41553 33.5889Z" fill="#042147"/>
<path d="M51.7132 17.5835C50.8784 18.0358 50.1443 18.4077 49.4302 18.8198C49.3196 18.8801 49.2391 19.0912 49.2291 19.242C49.1989 19.6038 49.219 19.9657 49.219 20.4381C50.0538 19.9858 50.8181 19.5837 51.5522 19.1415C51.6729 19.0711 51.683 18.7696 51.7031 18.5786C51.7333 18.2971 51.7132 18.0057 51.7132 17.5835Z" fill="#042147"/>
<path d="M51.7132 13.8687C50.8784 14.321 50.1443 14.6929 49.4302 15.105C49.3196 15.1653 49.2391 15.3764 49.2291 15.5271C49.1989 15.889 49.219 16.2508 49.219 16.7232C50.0538 16.2709 50.8181 15.8689 51.5522 15.4266C51.6729 15.3563 51.683 15.0547 51.7031 14.8637C51.7333 14.5823 51.7132 14.2908 51.7132 13.8687Z" fill="#042147"/>
<path d="M51.7132 24.1877C50.8885 24.63 50.1744 24.9919 49.4705 25.3839C49.3598 25.4442 49.2492 25.605 49.2391 25.7256C49.209 26.1176 49.2291 26.5197 49.2291 27.0021C50.0538 26.5699 50.808 26.188 51.5321 25.7658C51.6528 25.6954 51.693 25.4442 51.7031 25.2632C51.7333 24.9516 51.7132 24.62 51.7132 24.1877Z" fill="#042147"/>
<path d="M49.2291 23.715C50.0839 23.2627 50.808 22.8908 51.5221 22.4686C51.6428 22.3983 51.693 22.1571 51.7031 21.9862C51.7333 21.6645 51.7132 21.3328 51.7132 20.9006C50.8885 21.3429 50.1242 21.7248 49.39 22.1571C49.2693 22.2274 49.2492 22.529 49.2291 22.7199C49.219 23.0014 49.2291 23.2929 49.2291 23.715Z" fill="#042147"/>
<path d="M3.81907 17.5833C4.6538 18.0356 5.38795 18.4075 6.102 18.8196C6.21263 18.8799 6.29308 19.091 6.30314 19.2417C6.33331 19.6036 6.3132 19.9654 6.3132 20.4378C5.47847 19.9855 4.71414 19.5835 3.97998 19.1412C3.8593 19.0709 3.84924 18.7693 3.82912 18.5783C3.79895 18.2969 3.81907 18.0054 3.81907 17.5833Z" fill="#042147"/>
<path d="M3.81907 13.8684C4.6538 14.3207 5.38795 14.6926 6.102 15.1047C6.21263 15.165 6.29308 15.3761 6.30314 15.5269C6.33331 15.8887 6.3132 16.2506 6.3132 16.723C5.47847 16.2707 4.71414 15.8686 3.97998 15.4264C3.8593 15.356 3.84924 15.0545 3.82912 14.8635C3.79895 14.5821 3.81907 14.2906 3.81907 13.8684Z" fill="#042147"/>
<path d="M3.81907 24.1868C4.64374 24.629 5.35778 24.9909 6.06177 25.3829C6.1724 25.4432 6.28302 25.604 6.29308 25.7246C6.32325 26.1166 6.30314 26.5187 6.30314 27.0011C5.47847 26.5689 4.72419 26.187 4.00009 25.7648C3.87941 25.6945 3.83918 25.4432 3.82912 25.2623C3.79895 24.9507 3.81907 24.619 3.81907 24.1868Z" fill="#042147"/>
<path d="M6.30314 23.7143C5.4483 23.262 4.72419 22.8901 4.01015 22.4679C3.88947 22.3976 3.83918 22.1563 3.82912 21.9854C3.79895 21.6638 3.81907 21.3321 3.81907 20.8999C4.64374 21.3422 5.40807 21.7241 6.14223 22.1563C6.26291 22.2267 6.28302 22.5282 6.30314 22.7192C6.3132 23.0006 6.30314 23.2921 6.30314 23.7143Z" fill="#042147"/>
<path d="M48.4221 6.28021C48.5328 5.57575 48.6436 4.94174 48.7443 4.2876C47.8985 4.15677 47.0829 4.02594 46.2773 3.89511C43.3572 3.44225 40.4472 2.97932 37.5271 2.52645C36.5604 2.37549 35.7045 2.54658 34.9091 3.18059C32.7341 4.90148 30.5088 6.562 28.2432 8.20238C28.2834 8.13194 28.3237 8.06149 28.3741 8.00111C30.1563 5.61601 31.9386 3.23091 33.7108 0.835747C33.8417 0.664664 33.9625 0.604282 34.1841 0.614345C38.0205 0.916256 41.7965 1.53014 45.5423 2.38556C47.8783 2.91893 50.2043 3.4825 52.5404 4.03601C52.5807 4.04607 52.621 4.0662 52.7519 4.11652C51.2818 4.8411 49.8821 5.54556 48.4221 6.28021Z" fill="#042147"/>
<path d="M26.8728 8.24266C25.9666 7.5684 25.0805 6.92432 24.2145 6.27018C22.8149 5.20342 21.4152 4.13667 20.0357 3.03973C19.3107 2.47616 18.5052 2.38559 17.6493 2.50635C14.2358 3.02966 10.8324 3.5731 7.42895 4.10648C7.09667 4.1568 6.75431 4.21718 6.37167 4.28763C6.47237 4.9317 6.58313 5.56572 6.69389 6.28024C5.23384 5.54559 3.83421 4.84113 2.43457 4.13667C2.43457 4.10648 2.44464 4.08635 2.44464 4.05616C3.33074 3.83476 4.21684 3.59323 5.10294 3.40202C8.32512 2.70763 11.5272 1.97297 14.7695 1.37922C16.8236 1.00686 18.918 0.855904 20.9923 0.614375C21.1031 0.604311 21.2843 0.664693 21.3448 0.755267C23.1874 3.21081 25.0201 5.67642 26.8627 8.14203C26.8627 8.15209 26.8627 8.17222 26.8728 8.24266Z" fill="#042147"/>
<path d="M27.587 0C27.7581 0.422676 27.9293 0.81516 28.0804 1.22777C28.1508 1.41898 28.2515 1.47937 28.4429 1.4693C28.9765 1.45924 29.5001 1.4693 30.1446 1.4693C29.7217 1.86179 29.3692 2.20395 28.9967 2.51593C28.8053 2.67695 28.7651 2.81784 28.8456 3.05937C29.0067 3.49211 29.1276 3.94497 29.3088 4.49848C28.755 4.14625 28.2817 3.86446 27.8286 3.55249C27.6373 3.42166 27.4963 3.42166 27.2949 3.55249C26.8418 3.86446 26.3585 4.14625 25.8148 4.48841C25.9859 3.93491 26.147 3.45185 26.2779 2.96879C26.3082 2.85809 26.2578 2.66688 26.1773 2.58637C25.8148 2.22408 25.4321 1.88191 24.979 1.45924C25.5026 1.45924 25.9356 1.45924 26.3686 1.45924C26.9425 1.45924 26.9425 1.45924 27.164 0.915797C27.2849 0.62395 27.4057 0.332102 27.5265 0.0301911C27.5165 0.0301911 27.5366 0.0301911 27.587 0Z" fill="#042147"/>
<path d="M13.1874 22.5622C14.9816 22.312 16.4833 21.952 18.23 21.6509C18.0909 21.8149 17.9742 21.8857 17.9495 21.9883C17.8745 22.2172 17.0225 22.2791 17.7954 22.7117C17.8308 22.7301 17.7474 22.8285 17.715 22.88C17.6504 22.983 17.4893 23.0726 17.5023 23.1844C17.526 23.4172 17.3106 23.4839 16.9513 23.4865C16.6107 23.4935 16.3164 23.64 15.9109 23.5031C15.041 23.2249 14.1968 22.9233 13.1874 22.5622Z" fill="#042147"/>
<path d="M16.9205 11.6975C11.8636 9.53015 6.86801 7.24404 1.91454 4.85119L1.91409 4.85098C1.90692 4.84751 1.90329 4.84575 1.89538 4.84386C1.80623 4.82253 1.7373 4.91614 1.77938 4.99757C1.9886 5.4025 2.18641 5.77954 2.41328 6.13843C3.13415 7.44896 3.24674 7.64263 3.95062 8.92196C3.96985 8.95692 4.0015 8.98457 4.03895 8.99837L18.6364 14.3773L22.1529 15.6953C22.2134 15.718 22.2816 15.7034 22.3276 15.658L23.0092 14.9847C23.0898 14.9051 23.0682 14.7697 22.9671 14.7187C19.9818 13.2109 17.6039 11.9925 16.9205 11.6975Z" fill="#042147"/>
<path d="M3.86604 10.6162L3.10971 10.3775C4.15112 11.604 5.21553 12.6902 6.37165 13.7561C6.53731 13.9067 6.76123 13.9405 6.97808 13.9966C10.818 14.9375 14.6544 15.8896 18.5156 16.6281L20.9038 17.1852L21.6695 16.5067L17.8641 15.1802C13.1974 13.6833 8.52205 12.1467 3.86604 10.6162Z" fill="#042147"/>
<path d="M7.77911 15.4437C7.68864 15.4134 7.61213 15.4015 7.38263 15.3657C8.61409 16.435 9.78396 17.3879 11.051 18.2912C11.2754 18.4621 11.5148 18.5286 11.8068 18.5579C14.5742 18.8274 17.3064 18.9619 19.9918 18.8755L20.6387 17.9548L19.7739 17.8444C15.7596 17.2122 11.7735 16.3156 7.77911 15.4437Z" fill="#042147"/>
<path d="M10.6571 19.7607C12.6543 19.936 14.4942 20.023 16.3055 20.013C16.9186 20.0129 18.5711 20.0372 19.1771 20.0129C19.5741 20.0015 19.1771 20.0129 18.7185 20.3899C18.8903 20.2622 18.6429 20.5587 18.556 20.5822C16.7327 20.8478 15.5934 21.1968 13.8342 21.4405C13.7019 21.4588 13.5557 21.4722 13.4123 21.3888C12.5175 20.8979 11.6087 20.4021 10.6571 19.7607Z" fill="#042147"/>
<path d="M41.9293 22.5627C40.1351 22.3125 38.6334 21.9525 36.8867 21.6514C37.0258 21.8154 37.1425 21.8861 37.1672 21.9888C37.2422 22.2177 38.0942 22.2796 37.3213 22.7122C37.2859 22.7306 37.3693 22.829 37.4017 22.8805C37.4663 22.9835 37.6274 23.0731 37.6144 23.1849C37.5907 23.4177 37.8061 23.4844 38.1654 23.4869C38.506 23.494 38.8003 23.6405 39.2058 23.5035C40.0757 23.2254 40.9199 22.9238 41.9293 22.5627Z" fill="#042147"/>
<path d="M38.1962 11.6975C43.2531 9.53015 48.2487 7.24404 53.2022 4.85119L53.2026 4.85098C53.2098 4.84751 53.2134 4.84575 53.2213 4.84386C53.3105 4.82253 53.3794 4.91614 53.3373 4.99757C53.1281 5.4025 52.9303 5.77954 52.7034 6.13843C51.9825 7.44896 51.87 7.64263 51.1661 8.92196C51.1468 8.95692 51.1152 8.98457 51.0778 8.99837L36.4803 14.3773L32.9638 15.6953C32.9033 15.718 32.8351 15.7034 32.7891 15.658L32.1075 14.9847C32.0269 14.9051 32.0485 14.7697 32.1496 14.7187C35.1349 13.2109 37.5128 11.9925 38.1962 11.6975Z" fill="#042147"/>
<path d="M51.2507 10.6162L52.007 10.3775C50.9656 11.604 49.9012 12.6902 48.7451 13.7561C48.5794 13.9067 48.3555 13.9405 48.1386 13.9966C44.2987 14.9375 40.4623 15.8896 36.6011 16.6281L34.2129 17.1852L33.4472 16.5067L37.2526 15.1802C41.9193 13.6833 46.5947 12.1467 51.2507 10.6162Z" fill="#042147"/>
<path d="M47.34 15.4435C47.4305 15.4132 47.507 15.4013 47.7365 15.3655C46.505 16.4348 45.3352 17.3877 44.0682 18.2909C43.8437 18.4619 43.6044 18.5283 43.3123 18.5577C40.5449 18.8272 37.8128 18.9617 35.1273 18.8752L34.4805 17.9546L35.3452 17.8441C39.3596 17.2119 43.3457 16.3154 47.34 15.4435Z" fill="#042147"/>
<path d="M44.4586 19.7605C42.4614 19.9358 40.6216 20.0228 38.8102 20.0127C38.1971 20.0127 36.5446 20.037 35.9387 20.0127C35.5416 20.0013 35.9387 20.0127 36.3972 20.3897C36.2254 20.262 36.4728 20.5585 36.5598 20.582C38.383 20.8475 39.5224 21.1965 41.2816 21.4402C41.4138 21.4585 41.56 21.4719 41.7034 21.3885C42.5982 20.8977 43.5071 20.4018 44.4586 19.7605Z" fill="#042147"/>
<path d="M68.6069 41.3764H69.3998V42.6548H68.6069V41.3764ZM68.615 38.852V42.6548H66.4871C66.1095 42.6548 65.7966 42.6278 65.5485 42.5739C65.3004 42.5199 65.1062 42.4255 64.966 42.2907C64.8311 42.1504 64.7367 41.9563 64.6828 41.7081C64.6288 41.46 64.6019 41.1418 64.6019 40.7534C64.6019 40.365 64.6288 40.0468 64.6828 39.7987C64.7367 39.5506 64.8311 39.3591 64.966 39.2242C65.1062 39.084 65.3004 38.9869 65.5485 38.9329C65.7966 38.879 66.1095 38.852 66.4871 38.852H68.615ZM67.4823 40.1304H66.1634C66.0448 40.1304 65.9558 40.1574 65.8964 40.2113C65.8425 40.2599 65.8155 40.3327 65.8155 40.4298V41.077C65.8155 41.1741 65.8425 41.2497 65.8964 41.3036C65.9558 41.3521 66.0448 41.3764 66.1634 41.3764H67.4823V40.1304ZM66.0582 37.9135C65.9827 37.9135 65.8937 37.8784 65.7912 37.8083C65.6942 37.7328 65.6078 37.6438 65.5323 37.5413C65.4622 37.4388 65.4272 37.3525 65.4272 37.2824C65.4272 37.1961 65.4622 37.1071 65.5323 37.0154C65.6078 36.9183 65.6942 36.8347 65.7912 36.7646C65.8883 36.6891 65.9773 36.6513 66.0582 36.6513C66.1392 36.6513 66.2282 36.6891 66.3252 36.7646C66.4223 36.8347 66.5059 36.9183 66.5761 37.0154C66.6516 37.1071 66.6893 37.1961 66.6893 37.2824C66.6893 37.3579 66.6516 37.4442 66.5761 37.5413C66.5006 37.6384 66.4142 37.7247 66.3172 37.8002C66.2201 37.8757 66.1338 37.9135 66.0582 37.9135ZM67.5065 37.9135C67.431 37.9135 67.342 37.8784 67.2395 37.8083C67.1424 37.7328 67.0561 37.6438 66.9806 37.5413C66.9105 37.4388 66.8754 37.3525 66.8754 37.2824C66.8754 37.1961 66.9105 37.1071 66.9806 37.0154C67.0561 36.9183 67.1424 36.8347 67.2395 36.7646C67.3366 36.6891 67.4256 36.6513 67.5065 36.6513C67.5874 36.6513 67.6764 36.6891 67.7735 36.7646C67.8706 36.8347 67.9542 36.9183 68.0243 37.0154C68.0999 37.1071 68.1376 37.1961 68.1376 37.2824C68.1376 37.3579 68.0999 37.4442 68.0243 37.5413C67.9488 37.6384 67.8625 37.7247 67.7654 37.8002C67.6683 37.8757 67.582 37.9135 67.5065 37.9135ZM71.5251 41.3764H72.3099V42.6548H69.1544V41.3764H70.3843V38.852H71.5251V41.3764ZM70.2224 44.5643C70.1469 44.5643 70.0579 44.5265 69.9554 44.451C69.8583 44.3809 69.772 44.2946 69.6965 44.1921C69.6264 44.0896 69.5913 44.0033 69.5913 43.9332C69.5913 43.8469 69.6264 43.7552 69.6965 43.6581C69.772 43.5664 69.8583 43.4828 69.9554 43.4072C70.0525 43.3371 70.1415 43.3021 70.2224 43.3021C70.3033 43.3021 70.3923 43.3371 70.4894 43.4072C70.5865 43.4828 70.6701 43.5664 70.7403 43.6581C70.8158 43.7552 70.8535 43.8469 70.8535 43.9332C70.8535 44.0087 70.8158 44.095 70.7403 44.1921C70.6647 44.2892 70.5784 44.3755 70.4813 44.451C70.3843 44.5265 70.2979 44.5643 70.2224 44.5643ZM71.6788 44.5643C71.6033 44.5643 71.5143 44.5265 71.4118 44.451C71.3147 44.3809 71.2284 44.2946 71.1529 44.1921C71.0828 44.0896 71.0477 44.0033 71.0477 43.9332C71.0477 43.8469 71.0828 43.7552 71.1529 43.6581C71.2284 43.5664 71.3147 43.4828 71.4118 43.4072C71.5089 43.3371 71.5979 43.3021 71.6788 43.3021C71.7597 43.3021 71.8487 43.3371 71.9458 43.4072C72.0429 43.4828 72.1265 43.5664 72.1966 43.6581C72.2721 43.7552 72.3099 43.8469 72.3099 43.9332C72.3099 44.0087 72.2721 44.095 72.1966 44.1921C72.1211 44.2892 72.0348 44.3755 71.9377 44.451C71.8406 44.5265 71.7543 44.5643 71.6788 44.5643ZM74.4347 41.3764H75.2195V42.6548H72.064V41.3764H73.2938V38.852H74.4347V41.3764ZM73.8683 37.9135C73.7928 37.9135 73.7038 37.8784 73.6013 37.8083C73.5042 37.7328 73.4179 37.6438 73.3424 37.5413C73.2723 37.4388 73.2372 37.3525 73.2372 37.2824C73.2372 37.1961 73.2723 37.1071 73.3424 37.0154C73.4179 36.9183 73.5042 36.8347 73.6013 36.7646C73.6984 36.6891 73.7874 36.6513 73.8683 36.6513C73.9492 36.6513 74.0382 36.6891 74.1353 36.7646C74.2324 36.8347 74.316 36.9183 74.3861 37.0154C74.4616 37.1071 74.4994 37.1961 74.4994 37.2824C74.4994 37.3579 74.4616 37.4442 74.3861 37.5413C74.3106 37.6384 74.2243 37.7247 74.1272 37.8002C74.0301 37.8757 73.9438 37.9135 73.8683 37.9135ZM78.4284 38.7388C78.8168 38.7388 79.1323 38.7846 79.3751 38.8763C79.6178 38.968 79.7958 39.1136 79.9091 39.3132C80.0223 39.5074 80.079 39.7582 80.079 40.0657V42.6548H74.9736V41.3764H78.9382V40.0657C78.8573 40.0495 78.7629 40.0387 78.655 40.0333C78.5525 40.0279 78.4338 40.0252 78.299 40.0252C78.0509 40.0252 77.7946 40.0414 77.5303 40.0738C77.266 40.1061 76.999 40.1574 76.7293 40.2275L76.2843 39.1109C76.5055 39.0246 76.7347 38.9545 76.9721 38.9006C77.2094 38.8466 77.4494 38.8062 77.6922 38.7792C77.9403 38.7522 78.1857 38.7388 78.4284 38.7388ZM76.4381 42.2745C76.2708 42.0857 76.1576 41.8565 76.0982 41.5868C76.0443 41.3171 76.0173 41.0069 76.0173 40.6563C76.0173 40.3812 76.0416 40.1223 76.0901 39.8796C76.1387 39.6369 76.2034 39.3806 76.2843 39.1109L77.4575 39.3618C77.3658 39.6207 77.293 39.8499 77.2391 40.0495C77.1851 40.2437 77.1582 40.446 77.1582 40.6563C77.1582 40.8667 77.1662 41.0447 77.1824 41.1903C77.1986 41.336 77.2256 41.4654 77.2633 41.5787C77.3011 41.6866 77.3523 41.7944 77.4171 41.9023L76.4381 42.2745ZM84.2668 38.9977V37.5575H85.4076V38.9329C85.4076 39.1811 85.3995 39.3753 85.3834 39.5155C85.3672 39.6503 85.3348 39.7528 85.2863 39.823C85.2377 39.8877 85.1595 39.9362 85.0516 39.9686V40.0252C85.235 40.2302 85.3618 40.4325 85.4319 40.632C85.5074 40.8316 85.5452 41.0555 85.5452 41.3036C85.5452 41.8214 85.3753 42.1963 85.0355 42.4282C84.701 42.6602 84.1454 42.7761 83.3687 42.7761C82.8293 42.7761 82.4059 42.7276 82.0984 42.6305C81.7964 42.528 81.5833 42.3689 81.4593 42.1531C81.3352 41.932 81.2732 41.6434 81.2732 41.2874C81.2732 41.0123 81.3028 40.7723 81.3622 40.5673C81.4215 40.357 81.5294 40.1763 81.6858 40.0252C81.8476 39.8742 82.0769 39.7474 82.3735 39.6449L84.2668 38.9977ZM82.4868 41.4978H83.8865C84.0538 41.4978 84.1697 41.4708 84.2344 41.4169C84.2992 41.3575 84.3315 41.2901 84.3315 41.2146C84.3315 41.1553 84.3127 41.0959 84.2749 41.0366C84.2371 40.9719 84.1778 40.9125 84.0969 40.8586L83.6519 40.4945L82.4868 40.891V41.4978ZM82.7943 39.7744L81.3864 38.6255L82.1874 37.6708L84.1859 39.3132L82.7943 39.7744ZM82.5353 36.5218L83.1826 36.3438V36.8859L81.2893 37.3876V36.8617L81.5968 36.7727C81.5752 36.7133 81.559 36.6486 81.5483 36.5785C81.5375 36.5084 81.5321 36.4274 81.5321 36.3357C81.5321 36.0499 81.5914 35.826 81.7101 35.6642C81.8287 35.497 81.996 35.3756 82.2117 35.3001C82.4275 35.2192 82.6756 35.168 82.9561 35.1464V35.7613C82.8212 35.7775 82.6972 35.799 82.5839 35.826C82.476 35.8476 82.3627 35.8827 82.2441 35.9312L82.236 36.36C82.236 36.4463 82.2576 36.503 82.3007 36.5299C82.3493 36.5515 82.4275 36.5488 82.5353 36.5218ZM86.832 42.6548V37.5575H87.9728V42.6548H86.832ZM92.2839 42.6548C91.9711 42.6548 91.7122 42.5955 91.5072 42.4768C91.3022 42.3527 91.1512 42.1612 91.0541 41.9023C90.9624 41.638 90.9166 41.2982 90.9166 40.8829C90.9166 40.6132 90.9381 40.3435 90.9813 40.0738C91.0244 39.8041 91.0865 39.5479 91.1674 39.3051L92.2597 39.475C92.1895 39.6638 92.1383 39.8472 92.1059 40.0252C92.0736 40.2032 92.0574 40.3785 92.0574 40.5511C92.0574 40.7237 92.0655 40.8748 92.0817 41.0042C92.0978 41.1337 92.1248 41.2577 92.1626 41.3764H96.1029V38.852H97.2437V42.6548H92.2839ZM93.4248 38.7226C93.3492 38.7226 93.2602 38.6875 93.1578 38.6174C93.0607 38.5419 92.9744 38.4529 92.8989 38.3504C92.8287 38.2479 92.7937 38.1616 92.7937 38.0915C92.7937 38.0052 92.8287 37.9162 92.8989 37.8245C92.9744 37.7274 93.0607 37.6438 93.1578 37.5737C93.2549 37.4981 93.3439 37.4604 93.4248 37.4604C93.5057 37.4604 93.5947 37.4981 93.6918 37.5737C93.7889 37.6438 93.8725 37.7274 93.9426 37.8245C94.0181 37.9162 94.0559 38.0052 94.0559 38.0915C94.0559 38.167 94.0181 38.2533 93.9426 38.3504C93.8671 38.4475 93.7808 38.5338 93.6837 38.6093C93.5866 38.6848 93.5003 38.7226 93.4248 38.7226ZM94.8811 38.7226C94.8056 38.7226 94.7166 38.6875 94.6141 38.6174C94.517 38.5419 94.4307 38.4529 94.3552 38.3504C94.2851 38.2479 94.25 38.1616 94.25 38.0915C94.25 38.0052 94.2851 37.9162 94.3552 37.8245C94.4307 37.7274 94.517 37.6438 94.6141 37.5737C94.7112 37.4981 94.8002 37.4604 94.8811 37.4604C94.962 37.4604 95.051 37.4981 95.1481 37.5737C95.2452 37.6438 95.3288 37.7274 95.399 37.8245C95.4745 37.9162 95.5122 38.0052 95.5122 38.0915C95.5122 38.167 95.4745 38.2533 95.399 38.3504C95.3234 38.4475 95.2371 38.5338 95.14 38.6093C95.043 38.6848 94.9567 38.7226 94.8811 38.7226ZM98.5711 42.6548V37.5575H99.7119V41.3764H100.497V42.6548H98.5711ZM106.168 42.6548C105.774 42.6548 105.45 42.6251 105.197 42.5658C104.949 42.5065 104.755 42.4067 104.614 42.2664C104.48 42.1208 104.385 41.9212 104.331 41.6677C104.277 41.4088 104.25 41.0878 104.25 40.7049V39.5802H105.391V40.9476C105.391 41.1202 105.442 41.2362 105.545 41.2955C105.647 41.3494 105.798 41.3764 105.998 41.3764H106.937C106.969 41.2685 106.99 41.1499 107.001 41.0204C107.012 40.891 107.017 40.7399 107.017 40.5673C107.017 40.3192 106.996 40.0684 106.953 39.8149C106.91 39.5613 106.856 39.2997 106.791 39.03L107.916 38.852C107.975 39.0192 108.021 39.1946 108.053 39.3779C108.091 39.5613 108.118 39.7501 108.134 39.9443C108.15 40.1331 108.158 40.3192 108.158 40.5026C108.158 41.0636 108.085 41.5005 107.94 41.8133C107.8 42.1262 107.581 42.3446 107.284 42.4687C106.993 42.5928 106.621 42.6548 106.168 42.6548ZM103.288 42.6548H102.624V41.3764H103.644C103.843 41.3764 103.994 41.3494 104.097 41.2955C104.199 41.2362 104.25 41.1202 104.25 40.9476V39.5802H105.391V40.7049C105.391 41.0878 105.364 41.4088 105.31 41.6677C105.256 41.9212 105.154 42.1208 105.003 42.2664C104.857 42.4067 104.644 42.5065 104.364 42.5658C104.089 42.6251 103.73 42.6548 103.288 42.6548ZM102.624 42.6548H100.253V41.3764H101.483V39.5802H102.624V42.6548ZM109.439 42.6548V37.5575H110.58V42.6548H109.439ZM113.355 41.3764H114.139V42.6548H113.355V41.3764ZM111.866 44.9122L111.445 43.8927C111.656 43.7956 111.817 43.6931 111.931 43.5852C112.044 43.4828 112.122 43.3452 112.165 43.1726C112.208 43 112.23 42.7708 112.23 42.4849V38.852H113.363V42.4849C113.363 42.9164 113.314 43.2832 113.217 43.5852C113.12 43.8927 112.961 44.1516 112.74 44.362C112.519 44.5723 112.227 44.7557 111.866 44.9122ZM118.517 41.3764H119.156V42.6548H118.314C118.142 42.6548 118.002 42.6197 117.894 42.5496C117.791 42.4741 117.71 42.3581 117.651 42.2017L117.166 40.9395C117.09 40.7291 116.988 40.5565 116.858 40.4217C116.729 40.2814 116.567 40.1816 116.373 40.1223C116.178 40.0576 115.933 40.0252 115.636 40.0252C115.496 40.0252 115.345 40.0279 115.183 40.0333C115.021 40.0387 114.849 40.0549 114.665 40.0819L114.496 38.8197C114.706 38.7927 114.905 38.7738 115.094 38.763C115.283 38.7469 115.461 38.7388 115.628 38.7388C116.103 38.7388 116.502 38.8008 116.826 38.9249C117.155 39.0435 117.427 39.2296 117.643 39.4831C117.864 39.7366 118.045 40.0657 118.185 40.4702L118.517 41.3764ZM117.02 40.187L118.08 40.543C117.967 40.926 117.821 41.2524 117.643 41.5221C117.47 41.7917 117.268 42.0102 117.036 42.1774C116.81 42.3392 116.561 42.4606 116.292 42.5415C116.022 42.617 115.739 42.6548 115.442 42.6548H113.897V41.3764H115.572C115.793 41.3764 115.984 41.3441 116.146 41.2793C116.308 41.2146 116.443 41.1283 116.551 41.0204C116.664 40.9071 116.758 40.7804 116.834 40.6401C116.909 40.4999 116.971 40.3489 117.02 40.187ZM121.271 41.3764H122.056V42.6548H118.9V41.3764H120.13V37.5575H121.271V41.3764ZM124.18 42.6548H121.81V41.3764H123.04V37.5575H124.18V42.6548ZM128.4 43.3102H129.557C129.843 43.3102 130.053 43.2805 130.188 43.2212C130.328 43.1672 130.399 43.0539 130.399 42.8813V38.852H131.539V42.671C131.539 43.0485 131.51 43.3614 131.45 43.6095C131.396 43.863 131.291 44.0599 131.135 44.2002C130.978 44.3458 130.755 44.4483 130.463 44.5076C130.172 44.5669 129.792 44.5966 129.322 44.5966C128.896 44.5966 128.543 44.5669 128.263 44.5076C127.982 44.4483 127.761 44.3458 127.599 44.2002C127.443 44.0545 127.332 43.8549 127.267 43.6014C127.208 43.3479 127.178 43.0243 127.178 42.6305C127.178 42.404 127.186 42.1801 127.203 41.959C127.224 41.7324 127.257 41.5113 127.3 41.2955C127.343 41.0744 127.391 40.8613 127.445 40.6563L128.53 40.8343C128.459 41.1094 128.405 41.3791 128.368 41.6434C128.335 41.9023 128.319 42.1585 128.319 42.4121C128.319 42.6008 128.325 42.7654 128.335 42.9056C128.346 43.0512 128.368 43.1861 128.4 43.3102ZM129.363 37.9135C129.287 37.9135 129.198 37.8784 129.096 37.8083C128.999 37.7328 128.912 37.6438 128.837 37.5413C128.767 37.4388 128.732 37.3525 128.732 37.2824C128.732 37.1961 128.767 37.1071 128.837 37.0154C128.912 36.9183 128.999 36.8347 129.096 36.7646C129.193 36.6891 129.282 36.6513 129.363 36.6513C129.444 36.6513 129.533 36.6891 129.63 36.7646C129.727 36.8347 129.811 36.9183 129.881 37.0154C129.956 37.1071 129.994 37.1961 129.994 37.2824C129.994 37.3579 129.956 37.4442 129.881 37.5413C129.805 37.6384 129.719 37.7247 129.622 37.8002C129.525 37.8757 129.438 37.9135 129.363 37.9135ZM132.872 42.6548V37.5575H134.013V41.3764H134.798V42.6548H132.872ZM140.469 42.6548C140.075 42.6548 139.751 42.6251 139.498 42.5658C139.25 42.5065 139.056 42.4067 138.915 42.2664C138.78 42.1208 138.686 41.9212 138.632 41.6677C138.578 41.4088 138.551 41.0878 138.551 40.7049V39.5802H139.692V40.9476C139.692 41.1202 139.743 41.2362 139.846 41.2955C139.948 41.3494 140.099 41.3764 140.299 41.3764H141.237C141.27 41.2685 141.291 41.1499 141.302 41.0204C141.313 40.891 141.318 40.7399 141.318 40.5673C141.318 40.3192 141.297 40.0684 141.254 39.8149C141.21 39.5613 141.157 39.2997 141.092 39.03L142.216 38.852C142.276 39.0192 142.322 39.1946 142.354 39.3779C142.392 39.5613 142.419 39.7501 142.435 39.9443C142.451 40.1331 142.459 40.3192 142.459 40.5026C142.459 41.0636 142.386 41.5005 142.241 41.8133C142.1 42.1262 141.882 42.3446 141.585 42.4687C141.294 42.5928 140.922 42.6548 140.469 42.6548ZM137.588 42.6548H136.925V41.3764H137.944C138.144 41.3764 138.295 41.3494 138.398 41.2955C138.5 41.2362 138.551 41.1202 138.551 40.9476V39.5802H139.692V40.7049C139.692 41.0878 139.665 41.4088 139.611 41.6677C139.557 41.9212 139.455 42.1208 139.304 42.2664C139.158 42.4067 138.945 42.5065 138.665 42.5658C138.389 42.6251 138.031 42.6548 137.588 42.6548ZM136.925 42.6548H134.554V41.3764H135.784V39.5802H136.925V42.6548ZM145.188 41.3764H145.973V42.6548H145.188V41.3764ZM143.7 44.9122L143.279 43.8927C143.489 43.7956 143.651 43.6931 143.764 43.5852C143.878 43.4828 143.956 43.3452 143.999 43.1726C144.042 43 144.064 42.7708 144.064 42.4849V38.852H145.197V42.4849C145.197 42.9164 145.148 43.2832 145.051 43.5852C144.954 43.8927 144.795 44.1516 144.574 44.362C144.352 44.5723 144.061 44.7557 143.7 44.9122ZM150.666 41.3683H151.451V42.6467H150.666V41.3683ZM145.731 41.3764H146.92C146.871 41.193 146.834 41.0258 146.807 40.8748C146.785 40.7183 146.774 40.5296 146.774 40.3084C146.774 40.0387 146.812 39.8068 146.888 39.6126C146.963 39.413 147.079 39.2485 147.235 39.119C147.397 38.9896 147.605 38.8952 147.858 38.8359C148.112 38.7711 148.419 38.7388 148.781 38.7388C149.158 38.7388 149.49 38.763 149.776 38.8116C150.067 38.8547 150.364 38.9329 150.666 39.0462V42.6548H145.731V41.3764ZM149.202 41.3764C149.326 41.3764 149.409 41.3521 149.452 41.3036C149.501 41.255 149.525 41.1687 149.525 41.0447V40.0252H148.32C148.196 40.0252 148.109 40.0495 148.061 40.098C148.012 40.1466 147.988 40.2356 147.988 40.365V41.3764H149.202ZM148.789 37.9135C148.713 37.9135 148.624 37.8784 148.522 37.8083C148.425 37.7328 148.339 37.6438 148.263 37.5413C148.193 37.4388 148.158 37.3525 148.158 37.2824C148.158 37.1961 148.193 37.1071 148.263 37.0154C148.339 36.9183 148.425 36.8347 148.522 36.7646C148.619 36.6891 148.708 36.6513 148.789 36.6513C148.87 36.6513 148.959 36.6891 149.056 36.7646C149.153 36.8347 149.237 36.9183 149.307 37.0154C149.382 37.1071 149.42 37.1961 149.42 37.2824C149.42 37.3579 149.382 37.4442 149.307 37.5413C149.231 37.6384 149.145 37.7247 149.048 37.8002C148.951 37.8757 148.864 37.9135 148.789 37.9135ZM153.579 42.6548H151.208V41.3764H152.438V37.5575H153.579V42.6548ZM154.902 42.6548V37.5575H156.043V42.6548H154.902Z" fill="#042147"/>
<path d="M97.2328 16.2358V14.5418H95.2763L94.3697 13.6352V12.616L95.2763 11.7128H95.7876V13.3182H97.8668L98.7428 14.2248V15.3326L97.8395 16.2358H97.2328ZM97.2328 12.9808V12.5274H96.0262V11.7128H97.8361L98.62 12.5002V12.9808H97.2328ZM95.1298 16.2358L94.3697 15.3326V14.8793H95.8762V15.4178H96.9942V16.2358H95.1298ZM99.7047 16.2358V12.2809H101.022V13.8486H102.283V14.6115H101.022V16.2358H99.7047ZM102.05 13.4253V13.0468H101.231V12.2809H103.29V13.4253H102.05ZM101.231 16.2358V15.446H101.973V15.0496H103.29V16.2358H101.231ZM104.843 16.2358L104.05 15.446V13.0707L104.843 12.2809H105.367V16.2358H104.843ZM106.452 13.8664V13.0707H105.576V12.2809H106.98L107.769 13.0707V13.8664H106.452ZM105.576 16.2358V15.446H106.452V14.8678H107.769V15.446L106.98 16.2358H105.576ZM110.627 16.2358V15.446H111.116V12.2809H112.433V15.446L111.644 16.2358H110.627ZM109.405 16.2358L108.613 15.446V12.2809H109.933V15.446H110.419V16.2358H109.405ZM114.832 15.0496V14.2837H115.822V13.0707H114.832V12.2809H116.338L117.13 13.0707V14.2569L116.516 14.8708L117.264 16.2358H115.858L115.297 15.0496H114.832ZM113.306 16.2358V12.2809H114.624V16.2358H113.306ZM117.908 16.2358V15.3924H118.304V13.1213H117.908V12.2809H120.018V13.1213H119.622V15.3924H120.018V16.2358H117.908ZM120.748 13.1422V12.2809H124.181V13.1422H120.748ZM121.779 16.2358V13.3478H123.15V16.2358H121.779ZM126.005 16.2358V14.9781L124.664 12.2809H125.957L127.325 15.0705V16.2358H126.005ZM127.409 14.7933L126.768 13.4939L127.418 12.2809H128.685L127.409 14.7933ZM131.973 16.2358L131.07 15.3326V12.616L131.973 11.7128H132.576V15.3326H133.868V16.2358H131.973ZM133.936 13.0694V12.616H132.815V11.7128H134.652L135.443 12.616V13.0694H133.936ZM134.107 16.2358V14.6236H133.374V13.7272H135.443V16.2358H134.107ZM138.722 16.2358V15.3326H139.281V11.7128H140.787V15.3326L139.884 16.2358H138.722ZM137.324 16.2358L136.418 15.3326V11.7128H137.927V15.3326H138.483V16.2358H137.324ZM144.863 16.2358L144.673 15.7416H143.193L143.507 14.8452H144.325L143.115 11.7128H144.584L146.387 16.2358H144.863ZM141.336 16.2358L142.951 11.9173L143.619 13.7136L142.791 16.2358H141.336ZM148.814 14.8793V14.0033H149.945V12.616H148.814V11.7128H150.535L151.442 12.616V13.9726L150.739 14.6748L151.595 16.2358H149.986L149.345 14.8793H148.814ZM147.068 16.2358V11.7128H148.575V16.2358H147.068ZM154.185 16.2358V15.3326H155.303V12.616H154.185V11.7128H155.906L156.813 12.616V15.3326L155.906 16.2358H154.185ZM152.44 16.2358V11.7128H153.946V16.2358H152.44Z" fill="#042147"/>
<path d="M73.972 29.1118L73.4407 27.7362H69.3235L70.1963 25.2412H72.4731L69.1053 16.523H73.1941L78.2126 29.1118H73.972ZM64.1533 29.1118L68.65 17.0922L70.5093 22.0917L68.2041 29.1118H64.1533ZM80.1091 29.1118V16.523H84.3023V29.1118H80.1091ZM84.9663 29.1118V26.5978H87.0439V25.0041H90.8481V29.1118H84.9663ZM92.7875 29.1118V18.6197H96.2822V23.3084H99.5081V25.372H96.2822V29.1118H92.7875ZM98.67 22.0987V20.715H96.8357V18.6197H102.165V22.0987H98.67ZM108.432 29.1118V27.2797H109.566V19.9375H112.622V27.2797L110.79 29.1118H108.432ZM105.598 29.1118L103.759 27.2797V19.9375H106.821V27.2797H107.948V29.1118H105.598ZM118.187 26.3602V24.5834H120.482V21.7696H118.187V19.9375H121.678L123.517 21.7696V24.5212L122.093 25.9454L123.828 29.1118H120.565L119.265 26.3602H118.187ZM114.647 29.1118V19.9375H117.703V29.1118H114.647ZM131.156 29.1118V25.6758H127.188L125.349 23.8368V21.7696L127.188 19.9375H128.225V23.1938H132.442L134.219 25.0328V27.2797L132.387 29.1118H131.156ZM131.156 22.5093V21.5898H128.709V19.9375H132.38L133.97 21.5345V22.5093H131.156ZM126.89 29.1118L125.349 27.2797V26.3602H128.405V27.4526H130.672V29.1118H126.89ZM142.376 29.1118L141.989 28.1093H138.989L139.625 26.2911H141.284L138.83 19.9375H141.809L145.467 29.1118H142.376ZM135.221 29.1118L138.498 20.3523L139.853 23.9958L138.173 29.1118H135.221ZM152.407 29.1118L146.849 19.9375H150.078L155.657 29.1118H152.407ZM155.657 28.2407L152.995 23.8575V19.9375H155.657V28.2407ZM146.849 29.1118V20.8086L149.511 25.1711V29.1118H146.849Z" fill="#042147"/>
<path d="M80.9629 11.2358V14.596H85.1703V11.2358H80.9629Z" fill="#042147" stroke="#042147" stroke-width="0.351781"/>
</svg>
