<svg width="55" height="61" viewBox="0 0 55 61" fill="none" xmlns="http://www.w3.org/2000/svg">
<path d="M15.3174 40.2046L15.1499 39.7708H13.8516L14.1268 38.9841H14.8448L13.7828 36.2349H15.0721L16.6546 40.2046H15.3174ZM12.2213 40.2046L13.6392 36.4144L14.2255 37.9909L13.4986 40.2046H12.2213ZM17.2007 40.2046V37.0947H18.2366V40.2046H17.2007ZM18.4006 40.2046V39.5836H18.9139V39.1898H19.8536V40.2046H18.4006ZM20.5143 40.2046V37.0947H21.5501V38.4844H22.5063V39.0961H21.5501V40.2046H20.5143ZM22.2579 38.1259V37.7158H21.7142V37.0947H23.2937V38.1259H22.2579ZM25.2728 40.2046V39.6204H25.6343V37.2794H26.6086V39.6204L26.0245 40.2046H25.2728ZM24.369 40.2046L23.7826 39.6204V37.2794H24.7592V39.6204H25.1185V40.2046H24.369ZM28.3829 39.3273V38.7607H29.1148V37.8636H28.3829V37.2794H29.4961L30.0825 37.8636V38.7409L29.6284 39.195L30.1817 40.2046H29.1412L28.7268 39.3273H28.3829ZM27.2543 40.2046V37.2794H28.2286V40.2046H27.2543ZM32.5196 40.2046V39.1083H31.2534L30.6666 38.5215V37.8619L31.2534 37.2774H31.5843V38.3163H32.9299L33.4968 38.9031V39.62L32.9122 40.2046H32.5196ZM32.5196 38.098V37.8046H31.7387V37.2774H32.91L33.4174 37.7869V38.098H32.5196ZM31.1585 40.2046L30.6666 39.62V39.3266H31.6416V39.6752H32.3651V40.2046H31.1585ZM36.0995 40.2046L35.976 39.8847H35.0187L35.2216 39.3046H35.751L34.9679 37.2774H35.9187L37.0856 40.2046H36.0995ZM33.8164 40.2046L34.862 37.4097L35.2944 38.5722L34.7584 40.2046H33.8164ZM39.9126 40.2046L37.6198 36.4204H38.9516L41.2529 40.2046H39.9126ZM41.2529 39.8453L40.155 38.0373V36.4204H41.2529V39.8453ZM37.6198 40.2046V36.7797L38.7177 38.5791V40.2046H37.6198Z" fill="#042147"/>
<path d="M16.9685 45.4868V44.4357H15.7545L15.192 43.8732V43.2408L15.7545 42.6804H16.0718V43.6765H17.3618L17.9054 44.239V44.9264L17.3449 45.4868H16.9685ZM16.9685 43.4671V43.1858H16.2198V42.6804H17.3428L17.8292 43.1689V43.4671H16.9685ZM15.6636 45.4868L15.192 44.9264V44.6451H16.1267V44.9792H16.8204V45.4868H15.6636ZM18.5037 45.4868V42.6804H19.4385V43.7928H20.3331V44.3342H19.4385V45.4868H18.5037ZM20.1681 43.4925V43.2239H19.5865V42.6804H21.0479V43.4925H20.1681ZM19.5865 45.4868V44.9264H20.1131V44.6451H21.0479V45.4868H19.5865ZM22.1496 45.4868L21.5871 44.9264V43.2408L22.1496 42.6804H22.5218V45.4868H22.1496ZM23.2917 43.8055V43.2408H22.6699V42.6804H23.666L24.2264 43.2408V43.8055H23.2917ZM22.6699 45.4868V44.9264H23.2917V44.5161H24.2264V44.9264L23.666 45.4868H22.6699ZM26.2544 45.4868V44.9264H26.6013V42.6804H27.5361V44.9264L26.9756 45.4868H26.2544ZM25.3873 45.4868L24.8248 44.9264V42.6804H25.7617V44.9264H26.1064V45.4868H25.3873ZM29.2384 44.6451V44.1016H29.9405V43.2408H29.2384V42.6804H30.3064L30.869 43.2408V44.0825L30.4333 44.5182L30.9641 45.4868H29.9659L29.5683 44.6451H29.2384ZM28.1556 45.4868V42.6804H29.0903V45.4868H28.1556ZM31.4208 45.4868V44.8883H31.7021V43.2768H31.4208V42.6804H32.9181V43.2768H32.6369V44.8883H32.9181V45.4868H31.4208ZM33.4361 43.2916V42.6804H35.8725V43.2916H33.4361ZM34.1679 45.4868V43.4375H35.1407V45.4868H34.1679ZM37.1666 45.4868V44.5943L36.2149 42.6804H37.1328L38.1035 44.6599V45.4868H37.1666ZM38.1627 44.4632L37.708 43.5411L38.1691 42.6804H39.0679L38.1627 44.4632Z" fill="#042147"/>
<path d="M13.3669 32.3611C13.413 32.3304 13.4284 32.3227 13.4437 32.3151C13.9431 32.0847 14.3656 32.0694 14.8572 32.4609C15.5946 33.0444 16.5241 33.2287 17.446 33.4053C17.1694 33.221 16.8852 33.0444 16.624 32.8448C16.3475 32.6375 16.0786 32.4302 15.8328 32.1922C15.3642 31.7316 15.2336 31.3784 15.2106 30.5723C12.4682 31.8774 9.52602 31.7085 6.60693 31.816C6.97566 31.9389 7.33671 32.0694 7.70543 32.1922C10.9932 33.2594 14.3195 34.2191 17.7302 34.8333C18.8671 35.0406 20.004 35.2018 21.1409 35.3784C21.2869 35.4014 21.4482 35.3707 21.5865 35.3247C22.0474 35.1481 22.5006 34.9561 22.9538 34.7335C19.6276 34.4878 16.3628 34.0579 13.3669 32.3611Z" fill="#042147"/>
<path d="M41.3987 32.3611C41.3526 32.3304 41.3372 32.3227 41.3219 32.3151C40.8226 32.0847 40.4001 32.0694 39.9084 32.4609C39.171 33.0444 38.2415 33.2287 37.3197 33.4053C37.5962 33.221 37.8804 33.0444 38.1416 32.8448C38.4182 32.6375 38.687 32.4302 38.9328 32.1922C39.4014 31.7316 39.532 31.3784 39.5551 30.5723C42.2975 31.8774 45.2396 31.7085 48.1587 31.816C47.79 31.9389 47.4289 32.0694 47.0602 32.1922C43.7724 33.2594 40.4462 34.2191 37.0354 34.8333C35.8985 35.0406 34.7616 35.2018 33.6247 35.3784C33.4788 35.4014 33.3174 35.3707 33.1792 35.3247C32.7183 35.1481 32.265 34.9561 31.8118 34.7335C35.138 34.4878 38.4028 34.0579 41.3987 32.3611Z" fill="#042147"/>
<path d="M40.397 50.4986C40.4645 50.0697 40.5319 49.6836 40.5932 49.2853C40.0782 49.2056 39.5815 49.1259 39.091 49.0463C37.3129 48.7705 35.5408 48.4886 33.7627 48.2128C33.174 48.1209 32.6529 48.2251 32.1685 48.6112C30.8441 49.6591 29.489 50.6702 28.1094 51.6691C28.1339 51.6262 28.1584 51.5833 28.1891 51.5466C29.2744 50.0942 30.3597 48.6418 31.4388 47.1833C31.5185 47.0791 31.5921 47.0424 31.727 47.0485C34.0631 47.2323 36.3625 47.6062 38.6434 48.1271C40.0659 48.4518 41.4823 48.795 42.9048 49.1321C42.9294 49.1382 42.9539 49.1505 43.0336 49.1811C42.1384 49.6223 41.2861 50.0513 40.397 50.4986Z" fill="#042147"/>
<path d="M27.2788 51.6937C26.7269 51.2831 26.1874 50.8909 25.66 50.4925C24.8078 49.843 23.9555 49.1934 23.1154 48.5254C22.674 48.1822 22.1834 48.1271 21.6623 48.2006C19.5898 48.5193 17.5112 48.8441 15.4387 49.1689C15.2364 49.1995 15.0279 49.2363 14.7949 49.2792C14.8562 49.6714 14.9237 50.0574 14.9911 50.4925C14.102 50.0513 13.2497 49.6223 12.3975 49.1934C12.3975 49.175 12.4036 49.1627 12.4036 49.1443C12.9432 49.0095 13.4827 48.8624 14.0223 48.746C15.9844 48.3232 17.9343 47.8758 19.9086 47.5143C21.1595 47.2875 22.4348 47.1956 23.6979 47.0485C23.7654 47.0424 23.8758 47.0792 23.9125 47.1343C25.0346 48.6296 26.1506 50.131 27.2726 51.6324C27.2788 51.6385 27.2726 51.6508 27.2788 51.6937Z" fill="#042147"/>
<path d="M30.8115 12.375C28.6473 13.9527 28.7095 16.2125 28.999 18.5342C29.0264 18.541 29.0605 18.5479 29.0879 18.5547C29.1017 18.479 29.123 18.3961 29.1299 18.3203C29.1919 17.3558 29.5919 16.5569 30.2881 15.8955C30.3777 15.8128 30.5636 15.7439 30.667 15.7783C32.4729 16.3502 33.7548 17.6524 33.9961 19.5469C34.0236 19.7533 33.9891 19.8493 33.7549 19.8975C32.6382 20.1179 31.6315 20.552 30.8457 21.4131C30.7147 21.5578 30.6045 21.7234 30.4873 21.875C30.4598 21.9162 30.4395 21.9645 30.4326 22.0332C31.9215 20.5935 33.7068 20.1532 35.7471 20.4219C34.6513 22.4886 34.6651 24.6517 34.8994 26.8975C34.417 26.5875 33.969 26.3052 33.4521 25.9746C33.5072 26.1121 33.5271 26.1813 33.5615 26.2363C33.8579 26.7117 34.1686 27.1867 34.4512 27.6689C34.5132 27.7791 34.5472 27.9581 34.499 28.0684C33.3823 30.5347 32.2594 32.9946 31.1289 35.4541C31.1082 35.5023 31.0738 35.5509 31.0117 35.6611C30.7727 34.3809 30.536 33.109 30.2998 31.8408L31.791 26.3262H29.2734C29.2256 26.069 29.1778 25.8113 29.1299 25.5537C29.688 25.4642 30.2116 25.3747 30.7422 25.2852C31.1834 25.2163 31.6321 25.154 32.0664 25.0645C32.1697 25.0437 32.314 24.9342 32.3418 24.8379C32.5762 24.0732 32.7901 23.3013 33.0244 22.4746C32.9141 22.5091 32.8383 22.5232 32.7832 22.5576C31.3563 23.343 29.9289 24.1278 28.4951 24.9062C28.2747 25.0233 28.2193 25.1546 28.2744 25.3955C28.5363 26.5736 28.7919 27.7448 29.0332 28.9297C29.0608 29.0605 29.0191 29.2531 28.9297 29.3496C28.4748 29.8387 27.9993 30.3008 27.4893 30.8037C27.317 30.6384 27.1517 30.4797 26.9863 30.3145C26.6899 30.0251 26.4137 29.715 26.1035 29.4463C25.8968 29.2672 25.8834 29.0878 25.9316 28.8398C26.1935 27.6619 26.4483 26.4905 26.6826 25.3057C26.7031 25.2092 26.6411 25.0307 26.5654 24.9893C25.0559 24.1419 23.5463 23.3153 21.9541 22.4404C22.1953 23.2945 22.4023 24.0665 22.6436 24.8311C22.6716 24.9273 22.843 25.03 22.9668 25.0508C23.8491 25.2092 24.7319 25.3407 25.6143 25.4854C25.6831 25.4991 25.7453 25.5193 25.8555 25.5537C25.8118 25.788 25.7683 26.0226 25.7246 26.2568H23.1738L24.6826 31.8418C24.4433 33.1254 24.2024 34.4171 23.96 35.7227C23.8704 35.5504 23.8216 35.4607 23.7803 35.3711C22.6774 32.9668 21.5882 30.5693 20.4854 28.1719C20.389 27.9585 20.382 27.807 20.5127 27.6074C20.8436 27.1114 21.1471 26.601 21.4297 26.043C20.9816 26.3323 20.5269 26.622 20.1133 26.8838C20.1133 25.7816 20.1547 24.6861 20.0996 23.5908C20.0514 22.4816 19.741 21.4269 19.1758 20.4004C21.2093 20.1248 22.974 20.5455 24.4629 21.9785C24.0217 21.0071 22.6569 20.1527 20.9268 19.8564C20.9474 19.6429 20.9616 19.4157 21.0029 19.2021C21.3545 17.3971 22.719 16.2254 24.3389 15.75C24.4353 15.7226 24.594 15.8051 24.6836 15.8877C25.3798 16.5215 25.731 17.3005 25.8965 18.4785C26.1308 17.3695 26.1728 16.2536 25.9316 15.1377C25.6766 13.9803 25.1177 13.0293 24.1045 12.3955C25.235 11.2588 26.3657 10.1424 27.4824 9.0332C28.5646 10.1148 29.688 11.2452 30.8115 12.375Z" fill="#042147"/>
<path d="M2.41553 33.5891C3.10024 33.5187 3.42246 33.1866 3.43253 32.4519C3.4426 31.043 3.43253 29.6341 3.43253 28.2252C3.43253 28.0138 3.43253 27.8126 3.43253 27.4805C4.27835 27.9434 5.04362 28.3359 5.77868 28.7888C5.89951 28.8592 5.91965 29.1611 5.91965 29.3624C5.92972 31.4657 5.93979 33.569 5.90958 35.6824C5.89951 36.2761 6.06062 36.7491 6.42312 37.2121C8.66857 40.0802 11.3067 42.5861 13.9852 45.0416C18.1639 48.8658 22.5038 52.4888 27.0652 55.8501C27.4579 56.1419 27.7197 56.2124 28.1527 55.8903C35.0905 50.6673 41.7564 45.1221 47.6167 38.6814C49.3386 36.7894 49.3083 36.7693 49.3083 34.2232C49.3083 32.623 49.3184 31.0128 49.2983 29.4127C49.2882 29.0202 49.3889 28.7787 49.7615 28.5975C50.4361 28.2755 51.0805 27.8931 51.8357 27.4905C51.8357 28.4969 51.8357 29.4127 51.8357 30.3285C51.8357 30.9424 51.8357 31.5663 51.8357 32.1802C51.8357 33.1967 51.9364 33.3476 52.883 33.72C52.883 35.0383 52.883 36.3466 52.883 37.6649C51.4833 39.3657 50.1844 41.147 48.6639 42.727C47.7073 43.7132 47.224 44.6793 47.3851 46.0279C47.4153 46.3097 47.224 46.7022 47.0025 46.9135C44.4549 49.2785 41.857 51.5931 39.3196 53.9681C38.5342 54.7028 37.7186 55.1053 36.6411 54.9443C36.3391 54.9041 36.0168 54.9041 35.7148 54.9544C35.4328 55.0047 35.1106 55.0752 34.8891 55.2462C33.3283 56.3834 31.7978 57.5609 30.2471 58.7182C29.4114 59.3321 28.5655 59.9259 27.7197 60.5297C27.6794 60.5297 27.6392 60.5297 27.5989 60.5297C27.4378 60.3989 27.2666 60.268 27.0954 60.1473C25.3232 58.8792 23.4604 57.7118 21.809 56.3029C20.5604 55.2462 19.2816 54.733 17.6705 54.9343C17.3685 54.9745 16.9556 54.7934 16.7039 54.582C14.257 52.4284 11.8706 50.1943 9.3835 48.0809C8.25573 47.0745 7.58109 46.048 7.84289 44.5284C7.88317 44.2869 7.69185 43.9548 7.5106 43.7434C6.07069 42.0427 4.61064 40.3721 3.16066 38.6914C2.89885 38.3895 2.65719 38.0776 2.41553 37.7656C2.41553 36.3768 2.41553 34.988 2.41553 33.5891Z" fill="#042147"/>
<path d="M51.7132 17.5835C50.8784 18.0358 50.1443 18.4077 49.4302 18.8198C49.3196 18.8801 49.2391 19.0912 49.2291 19.242C49.1989 19.6038 49.219 19.9657 49.219 20.4381C50.0538 19.9858 50.8181 19.5837 51.5522 19.1415C51.6729 19.0711 51.683 18.7696 51.7031 18.5786C51.7333 18.2971 51.7132 18.0057 51.7132 17.5835Z" fill="#042147"/>
<path d="M51.7132 13.8687C50.8784 14.321 50.1443 14.6929 49.4302 15.105C49.3196 15.1653 49.2391 15.3764 49.2291 15.5271C49.1989 15.889 49.219 16.2508 49.219 16.7232C50.0538 16.2709 50.8181 15.8689 51.5522 15.4266C51.6729 15.3563 51.683 15.0547 51.7031 14.8637C51.7333 14.5823 51.7132 14.2908 51.7132 13.8687Z" fill="#042147"/>
<path d="M51.7132 24.1875C50.8885 24.6298 50.1744 24.9916 49.4705 25.3836C49.3598 25.4439 49.2492 25.6047 49.2391 25.7254C49.209 26.1174 49.2291 26.5194 49.2291 27.0019C50.0538 26.5697 50.808 26.1877 51.5321 25.7656C51.6528 25.6952 51.693 25.4439 51.7031 25.263C51.7333 24.9514 51.7132 24.6197 51.7132 24.1875Z" fill="#042147"/>
<path d="M49.2291 23.7148C50.0839 23.2625 50.808 22.8906 51.5221 22.4684C51.6428 22.398 51.693 22.1568 51.7031 21.9859C51.7333 21.6643 51.7132 21.3326 51.7132 20.9004C50.8885 21.3427 50.1242 21.7246 49.39 22.1568C49.2693 22.2272 49.2492 22.5287 49.2291 22.7197C49.219 23.0011 49.2291 23.2926 49.2291 23.7148Z" fill="#042147"/>
<path d="M3.81907 17.5835C4.6538 18.0358 5.38795 18.4077 6.102 18.8198C6.21263 18.8801 6.29308 19.0912 6.30314 19.242C6.33331 19.6038 6.3132 19.9657 6.3132 20.4381C5.47847 19.9858 4.71414 19.5837 3.97998 19.1415C3.8593 19.0711 3.84924 18.7696 3.82912 18.5786C3.79895 18.2971 3.81907 18.0057 3.81907 17.5835Z" fill="#042147"/>
<path d="M3.81907 13.8687C4.6538 14.321 5.38795 14.6929 6.102 15.105C6.21263 15.1653 6.29308 15.3764 6.30314 15.5271C6.33331 15.889 6.3132 16.2508 6.3132 16.7232C5.47847 16.2709 4.71414 15.8689 3.97998 15.4266C3.8593 15.3563 3.84924 15.0547 3.82912 14.8637C3.79895 14.5823 3.81907 14.2908 3.81907 13.8687Z" fill="#042147"/>
<path d="M3.81907 24.187C4.64374 24.6293 5.35778 24.9911 6.06177 25.3831C6.1724 25.4434 6.28302 25.6043 6.29308 25.7249C6.32325 26.1169 6.30314 26.5189 6.30314 27.0014C5.47847 26.5692 4.72419 26.1872 4.00009 25.7651C3.87941 25.6947 3.83918 25.4434 3.82912 25.2625C3.79895 24.9509 3.81907 24.6192 3.81907 24.187Z" fill="#042147"/>
<path d="M6.30314 23.7148C5.4483 23.2625 4.72419 22.8906 4.01015 22.4684C3.88947 22.398 3.83918 22.1568 3.82912 21.9859C3.79895 21.6643 3.81907 21.3326 3.81907 20.9004C4.64374 21.3427 5.40807 21.7246 6.14223 22.1568C6.26291 22.2272 6.28302 22.5287 6.30314 22.7197C6.3132 23.0011 6.30314 23.2926 6.30314 23.7148Z" fill="#042147"/>
<path d="M48.4221 6.28021C48.5328 5.57575 48.6436 4.94174 48.7443 4.2876C47.8985 4.15677 47.0829 4.02594 46.2773 3.89511C43.3572 3.44225 40.4472 2.97932 37.5271 2.52645C36.5604 2.37549 35.7045 2.54658 34.9091 3.18059C32.7341 4.90148 30.5088 6.562 28.2432 8.20238C28.2834 8.13194 28.3237 8.06149 28.3741 8.00111C30.1563 5.61601 31.9386 3.23091 33.7108 0.835747C33.8417 0.664664 33.9625 0.604282 34.1841 0.614345C38.0205 0.916256 41.7965 1.53014 45.5423 2.38556C47.8783 2.91893 50.2043 3.4825 52.5404 4.03601C52.5807 4.04607 52.621 4.0662 52.7519 4.11652C51.2818 4.8411 49.8821 5.54556 48.4221 6.28021Z" fill="#042147"/>
<path d="M26.8728 8.24266C25.9666 7.5684 25.0805 6.92432 24.2145 6.27018C22.8149 5.20342 21.4152 4.13667 20.0357 3.03973C19.3107 2.47616 18.5052 2.38559 17.6493 2.50635C14.2358 3.02966 10.8324 3.5731 7.42895 4.10648C7.09667 4.1568 6.75431 4.21718 6.37167 4.28763C6.47237 4.9317 6.58313 5.56572 6.69389 6.28024C5.23384 5.54559 3.83421 4.84113 2.43457 4.13667C2.43457 4.10648 2.44464 4.08635 2.44464 4.05616C3.33074 3.83476 4.21684 3.59323 5.10294 3.40202C8.32512 2.70763 11.5272 1.97297 14.7695 1.37922C16.8236 1.00686 18.918 0.855904 20.9923 0.614375C21.1031 0.604311 21.2843 0.664693 21.3448 0.755267C23.1874 3.21081 25.0201 5.67642 26.8627 8.14203C26.8627 8.15209 26.8627 8.17222 26.8728 8.24266Z" fill="#042147"/>
<path d="M27.587 0C27.7581 0.422676 27.9293 0.81516 28.0804 1.22777C28.1508 1.41898 28.2515 1.47937 28.4429 1.4693C28.9765 1.45924 29.5001 1.4693 30.1446 1.4693C29.7217 1.86179 29.3692 2.20395 28.9967 2.51593C28.8053 2.67695 28.7651 2.81784 28.8456 3.05937C29.0067 3.49211 29.1276 3.94497 29.3088 4.49848C28.755 4.14625 28.2817 3.86446 27.8286 3.55249C27.6373 3.42166 27.4963 3.42166 27.2949 3.55249C26.8418 3.86446 26.3585 4.14625 25.8148 4.48841C25.9859 3.93491 26.147 3.45185 26.2779 2.96879C26.3082 2.85809 26.2578 2.66688 26.1773 2.58637C25.8148 2.22408 25.4321 1.88191 24.979 1.45924C25.5026 1.45924 25.9356 1.45924 26.3686 1.45924C26.9425 1.45924 26.9425 1.45924 27.164 0.915797C27.2849 0.62395 27.4057 0.332102 27.5265 0.0301911C27.5165 0.0301911 27.5366 0.0301911 27.587 0Z" fill="#042147"/>
<path d="M13.1874 22.5627C14.9816 22.3125 16.4833 21.9525 18.23 21.6514C18.0909 21.8154 17.9742 21.8861 17.9495 21.9888C17.8745 22.2177 17.0225 22.2796 17.7954 22.7122C17.8308 22.7306 17.7474 22.829 17.715 22.8805C17.6504 22.9835 17.4893 23.0731 17.5023 23.1849C17.526 23.4177 17.3106 23.4844 16.9513 23.4869C16.6107 23.494 16.3164 23.6405 15.9109 23.5035C15.041 23.2254 14.1968 22.9238 13.1874 22.5627Z" fill="#042147"/>
<path d="M16.9205 11.698C11.8636 9.53064 6.86801 7.24453 1.91454 4.85168L1.91409 4.85146C1.90692 4.848 1.90329 4.84624 1.89538 4.84435C1.80623 4.82302 1.7373 4.91663 1.77938 4.99806C1.9886 5.40298 2.18641 5.78003 2.41328 6.13892C3.13415 7.44945 3.24674 7.64312 3.95062 8.92245C3.96985 8.95741 4.0015 8.98506 4.03895 8.99886L18.6364 14.3778L22.1529 15.6958C22.2134 15.7185 22.2816 15.7039 22.3276 15.6585L23.0092 14.9852C23.0898 14.9056 23.0682 14.7702 22.9671 14.7191C19.9818 13.2114 17.6039 11.993 16.9205 11.698Z" fill="#042147"/>
<path d="M3.86604 10.6164L3.10971 10.3778C4.15112 11.6043 5.21553 12.6904 6.37165 13.7563C6.53731 13.907 6.76123 13.9407 6.97808 13.9968C10.818 14.9378 14.6544 15.8899 18.5156 16.6284L20.9038 17.1854L21.6695 16.5069L17.8641 15.1805C13.1974 13.6835 8.52205 12.1469 3.86604 10.6164Z" fill="#042147"/>
<path d="M7.77911 15.444C7.68864 15.4137 7.61213 15.4017 7.38263 15.366C8.61409 16.4353 9.78396 17.3882 11.051 18.2914C11.2754 18.4624 11.5148 18.5288 11.8068 18.5582C14.5742 18.8277 17.3064 18.9622 19.9918 18.8757L20.6387 17.9551L19.7739 17.8446C15.7596 17.2124 11.7735 16.3159 7.77911 15.444Z" fill="#042147"/>
<path d="M10.6571 19.7612C12.6543 19.9365 14.4942 20.0235 16.3055 20.0135C16.9186 20.0134 18.5711 20.0377 19.1771 20.0134C19.5741 20.002 19.1771 20.0134 18.7185 20.3904C18.8903 20.2627 18.6429 20.5592 18.556 20.5827C16.7327 20.8483 15.5934 21.1973 13.8342 21.4409C13.7019 21.4593 13.5557 21.4726 13.4123 21.3893C12.5175 20.8984 11.6087 20.4026 10.6571 19.7612Z" fill="#042147"/>
<path d="M41.9293 22.5627C40.1351 22.3125 38.6334 21.9525 36.8867 21.6514C37.0258 21.8154 37.1425 21.8861 37.1672 21.9888C37.2422 22.2177 38.0942 22.2796 37.3213 22.7122C37.2859 22.7306 37.3693 22.829 37.4017 22.8805C37.4663 22.9835 37.6274 23.0731 37.6144 23.1849C37.5907 23.4177 37.8061 23.4844 38.1654 23.4869C38.506 23.494 38.8003 23.6405 39.2058 23.5035C40.0757 23.2254 40.9199 22.9238 41.9293 22.5627Z" fill="#042147"/>
<path d="M38.1962 11.698C43.2531 9.53064 48.2487 7.24453 53.2022 4.85168L53.2026 4.85146C53.2098 4.848 53.2134 4.84624 53.2213 4.84435C53.3105 4.82302 53.3794 4.91663 53.3373 4.99806C53.1281 5.40298 52.9303 5.78003 52.7034 6.13892C51.9825 7.44945 51.87 7.64312 51.1661 8.92245C51.1468 8.95741 51.1152 8.98506 51.0778 8.99886L36.4803 14.3778L32.9638 15.6958C32.9033 15.7185 32.8351 15.7039 32.7891 15.6585L32.1075 14.9852C32.0269 14.9056 32.0485 14.7702 32.1496 14.7191C35.1349 13.2114 37.5128 11.993 38.1962 11.698Z" fill="#042147"/>
<path d="M51.2507 10.6164L52.007 10.3778C50.9656 11.6043 49.9012 12.6904 48.7451 13.7563C48.5794 13.907 48.3555 13.9407 48.1386 13.9968C44.2987 14.9378 40.4623 15.8899 36.6011 16.6284L34.2129 17.1854L33.4472 16.5069L37.2526 15.1805C41.9193 13.6835 46.5947 12.1469 51.2507 10.6164Z" fill="#042147"/>
<path d="M47.34 15.444C47.4305 15.4137 47.507 15.4017 47.7365 15.366C46.505 16.4353 45.3352 17.3882 44.0682 18.2914C43.8437 18.4624 43.6044 18.5288 43.3123 18.5582C40.5449 18.8277 37.8128 18.9622 35.1273 18.8757L34.4805 17.9551L35.3452 17.8446C39.3596 17.2124 43.3457 16.3159 47.34 15.444Z" fill="#042147"/>
<path d="M44.4586 19.7607C42.4614 19.936 40.6216 20.023 38.8102 20.013C38.1971 20.0129 36.5446 20.0372 35.9387 20.0129C35.5416 20.0015 35.9387 20.0129 36.3972 20.3899C36.2254 20.2622 36.4728 20.5587 36.5598 20.5822C38.383 20.8478 39.5224 21.1968 41.2816 21.4405C41.4138 21.4588 41.56 21.4722 41.7034 21.3888C42.5982 20.8979 43.5071 20.4021 44.4586 19.7607Z" fill="#042147"/>
</svg>
