<svg width="20" height="21" viewBox="0 0 20 21" fill="none" xmlns="http://www.w3.org/2000/svg">
<path fill-rule="evenodd" clip-rule="evenodd" d="M8.63199e-06 15.7477V4.4144C-0.00112893 3.84502 0.11018 3.28101 0.327547 2.75476C0.544914 2.2285 0.864062 1.75034 1.26668 1.34773C1.66929 0.945117 2.14744 0.625969 2.6737 0.408602C3.19996 0.191234 3.76396 0.0799258 4.33334 0.0810633H15.6667C16.2361 0.0799258 16.8001 0.191234 17.3263 0.408602C17.8526 0.625969 18.3307 0.945117 18.7333 1.34773C19.136 1.75034 19.4551 2.2285 19.6725 2.75476C19.8898 3.28101 20.0011 3.84502 20 4.4144V15.7477C20.0011 16.3171 19.8898 16.8811 19.6725 17.4074C19.4551 17.9336 19.136 18.4118 18.7333 18.8144C18.3307 19.217 17.8526 19.5362 17.3263 19.7535C16.8001 19.9709 16.2361 20.0822 15.6667 20.0811H4.33334C3.18423 20.0805 2.08234 19.6238 1.2698 18.8113C0.457255 17.9987 0.000538623 16.8968 8.63199e-06 15.7477Z" fill="#EAF9FF"/>
<path fill-rule="evenodd" clip-rule="evenodd" d="M16.5 14.4477C16.3476 14.5345 16.1754 14.5804 16 14.5811H4.00004C3.82438 14.5826 3.65159 14.5365 3.50004 14.4477L7.50004 10.4477L8.48337 11.4311C8.684 11.6242 8.9221 11.7741 9.18297 11.8716C9.44384 11.9691 9.72192 12.012 10 11.9977C10.278 12.0105 10.5557 11.9668 10.8163 11.8694C11.077 11.7721 11.3152 11.6229 11.5167 11.4311L12.5 10.4477L16.5 14.4477ZM16.85 14.0811L12.85 10.0811L16.85 6.08105C16.9368 6.23346 16.9827 6.40569 16.9834 6.58105V13.5811C16.9989 13.7582 16.9517 13.9352 16.85 14.0811ZM3.13337 14.0811C3.04661 13.9287 3.00068 13.7564 3.00004 13.5811V6.58105C2.99847 6.4054 3.04455 6.23261 3.13337 6.08105L7.13337 10.0811L3.13337 14.0811ZM16.5 5.71439L11.15 11.0644C10.9977 11.2108 10.8172 11.3247 10.6195 11.3992C10.4219 11.4737 10.2111 11.5072 10 11.4977C9.78899 11.5072 9.57822 11.4737 9.38053 11.3992C9.18284 11.3247 9.00236 11.2108 8.85004 11.0644L3.50004 5.71439C3.65244 5.62762 3.82467 5.5817 4.00004 5.58105H16C16.1754 5.58169 16.3476 5.62762 16.5 5.71439Z" fill="#042147"/>
</svg>
