<svg width="206" height="61" viewBox="0 0 206 61" fill="none" xmlns="http://www.w3.org/2000/svg">
<g clip-path="url(#clip0_2427_239)">
<path d="M175.755 60.0298C192.323 60.0298 205.755 46.5983 205.755 30.0298C205.755 13.4612 192.323 0.0297852 175.755 0.0297852C159.186 0.0297852 145.755 13.4612 145.755 30.0298C145.755 46.5983 159.186 60.0298 175.755 60.0298Z" fill="white"/>
<path d="M188.073 53.5289C182.745 53.5411 177.578 51.6999 173.458 48.3209C170.888 46.229 168.815 43.5913 167.39 40.5991C165.966 37.6068 165.225 34.335 165.222 31.0209C165.222 27.0989 167.606 21.3799 169.396 18.1689C166.446 20.6921 164.094 23.8388 162.509 27.382C160.924 30.9252 160.145 34.7763 160.23 38.6569C160.23 41.0977 160.579 43.5259 161.267 45.8679C162.216 49.5228 164.194 52.8284 166.967 55.3919C168.172 56.4332 169.559 57.2419 171.059 57.7769C172.392 58.2861 173.794 58.5945 175.218 58.692H175.407C175.634 58.6986 175.862 58.7026 176.09 58.7039C182.278 58.6941 188.295 56.6713 193.232 52.9409C191.54 53.3295 189.809 53.5268 188.073 53.5289Z" fill="#1773B3"/>
<path d="M199.426 13.9969C197.974 13.338 196.468 12.8028 194.926 12.397C196.985 16.037 197.157 18.597 197.157 23.082C197.297 29.3492 194.952 35.4172 190.634 39.9617C186.316 44.5061 180.375 47.1578 174.109 47.338C178.114 50.674 183.893 52.4379 189.509 52.4379C191.148 52.4573 192.775 52.143 194.289 51.514C201.122 46.272 204.589 39.401 204.589 30.124C204.597 23.406 203.294 18.8769 199.426 13.9969Z" fill="url(#paint0_linear_2427_239)"/>
<path d="M146.977 29.8579C146.977 41.6579 156.202 54.3059 166.629 57.0419C161.178 52.3699 158.319 45.0209 158.319 38.0719C158.33 31.5479 160.592 25.2277 164.725 20.1793C168.857 15.131 174.606 11.6642 180.999 10.3649C186.868 9.1633 192.966 9.84139 198.427 12.3029C198.502 12.3369 198.578 12.3689 198.653 12.4029C194.986 7.64525 189.924 4.15162 184.175 2.4098C178.426 0.667984 172.277 0.764971 166.586 2.68721C160.895 4.60944 155.946 8.26097 152.43 13.1319C148.915 18.0028 147.008 23.851 146.977 29.8579Z" fill="url(#paint1_linear_2427_239)"/>
<path d="M118.768 29.752V29.7178C118.778 29.2633 118.962 28.8298 119.282 28.5068C119.602 28.1839 120.032 27.9957 120.487 27.9814H121.801V20.4482C121.815 19.994 122.004 19.5628 122.327 19.2432C122.65 18.9235 123.083 18.74 123.538 18.7305H123.573V25.2705H126.946V20.4482C126.962 19.9941 127.152 19.5635 127.475 19.2441C127.798 18.9248 128.232 18.7411 128.686 18.7305H128.723V25.2705H131.323V20.4844C131.331 20.0212 131.518 19.5792 131.846 19.252C132.174 18.9247 132.617 18.7379 133.081 18.7305H133.094V25.2705H135.819V20.4482C135.831 19.9945 136.018 19.563 136.34 19.2432C136.662 18.9233 137.095 18.7398 137.549 18.7305H137.586V26.0557C137.585 26.3163 137.482 26.5656 137.297 26.75C137.113 26.9344 136.863 27.0394 136.602 27.041H123.577V28.7656C123.577 28.895 123.552 29.023 123.502 29.1426C123.453 29.2621 123.381 29.3713 123.289 29.4629C123.198 29.5544 123.091 29.6271 122.971 29.6768C122.852 29.7264 122.724 29.7518 122.594 29.752H118.768ZM44.9868 29.752C44.5241 29.7486 44.0826 29.5643 43.7543 29.2383C43.4261 28.9123 43.2374 28.4704 43.2309 28.0078V27.0352H40.8442C39.8854 27.0363 38.9558 26.7052 38.2133 26.0986C37.4708 25.4921 36.9622 24.6467 36.7719 23.707C36.5817 22.7673 36.7222 21.7909 37.1703 20.9434C37.6185 20.0958 38.3452 19.4295 39.2289 19.0576C39.739 18.8385 40.289 18.7267 40.8442 18.7295C41.6702 18.7278 42.4778 18.9755 43.1606 19.4404C43.7271 19.8185 44.1915 20.3308 44.5121 20.9316C44.8328 21.5325 44.9998 22.2037 44.9985 22.8848V25.2695H48.6176V17C48.6168 16.5429 48.7926 16.1026 49.1098 15.7734C49.427 15.4443 49.86 15.2514 50.3168 15.2354H50.3891V26.1533C50.3881 26.2704 50.3648 26.3865 50.3188 26.4941C50.2728 26.6018 50.2054 26.6986 50.1215 26.7803C49.9717 26.9333 49.769 27.0246 49.5551 27.0342H44.9985V29.751L44.9868 29.752ZM39.5082 20.9053C39.1249 21.1642 38.8247 21.5298 38.645 21.9561C38.519 22.2499 38.4542 22.5661 38.4555 22.8857C38.4556 23.1994 38.5169 23.5101 38.6371 23.7998C38.7574 24.0895 38.9346 24.3527 39.1567 24.5742C39.3788 24.7957 39.6421 24.9713 39.9321 25.0908C40.2221 25.2104 40.5325 25.2712 40.8461 25.2705H43.2328V22.8857C43.2322 22.4105 43.0893 21.9462 42.8227 21.5527C42.6479 21.2923 42.4239 21.069 42.1625 20.8955C41.9012 20.722 41.6091 20.602 41.3012 20.542C40.9933 20.482 40.675 20.4832 40.3676 20.5459C40.0602 20.6086 39.77 20.7305 39.5102 20.9062L39.5082 20.9053ZM71.7231 29.7471H71.4301C71.3851 29.7468 71.3408 29.7281 71.309 29.6963C71.2772 29.6645 71.2605 29.6222 71.2602 29.5771V28.124C71.2615 28.0799 71.2792 28.0375 71.311 28.0068C71.3427 27.9762 71.386 27.9597 71.4301 27.96H72.8774C72.9219 27.9592 72.9643 27.9761 72.9965 28.0068C73.0287 28.0375 73.0479 28.0795 73.0493 28.124V28.709C73.0498 28.9819 72.942 29.2441 72.7504 29.4385C72.5589 29.6328 72.2987 29.7436 72.0258 29.7471H71.7231ZM70.2641 29.7471C69.9909 29.7437 69.7297 29.6327 69.5375 29.4385C69.3454 29.2442 69.2373 28.9822 69.2368 28.709V28.124C69.237 28.1021 69.2417 28.0797 69.2504 28.0596C69.2591 28.0394 69.2717 28.0211 69.2875 28.0059C69.3034 27.9906 69.3218 27.9787 69.3422 27.9707C69.3627 27.9627 69.3847 27.9594 69.4067 27.96H70.8618C70.9053 27.9605 70.946 27.9772 70.977 28.0078C71.008 28.0384 71.0267 28.0805 71.0278 28.124V29.5771C71.0278 29.6216 71.01 29.6635 70.9789 29.6953C70.9479 29.7271 70.9061 29.746 70.8618 29.7471H70.2641ZM11.3305 29.7471C11.308 29.7473 11.2869 29.7428 11.2661 29.7344C11.2452 29.726 11.2254 29.7131 11.2094 29.6973C11.1934 29.6815 11.181 29.6633 11.1723 29.6426C11.1636 29.6218 11.1586 29.5996 11.1586 29.5771V28.124C11.1592 28.102 11.1653 28.0798 11.1743 28.0596C11.1832 28.0394 11.1954 28.0211 11.2114 28.0059C11.2273 27.9906 11.2455 27.9787 11.2661 27.9707C11.2866 27.9627 11.3084 27.9594 11.3305 27.96H12.7817C12.8258 27.9597 12.8691 27.9762 12.9008 28.0068C12.9326 28.0375 12.9503 28.0799 12.9516 28.124V28.709C12.9516 28.9824 12.8451 29.2441 12.6528 29.4385C12.4605 29.6328 12.1996 29.7442 11.9262 29.7471H11.3305ZM10.1567 29.7471C9.88399 29.7431 9.62545 29.6317 9.43402 29.4375C9.24259 29.2433 9.13517 28.9817 9.13519 28.709V28.124C9.13598 28.0801 9.15257 28.0375 9.18402 28.0068C9.21547 27.9761 9.25921 27.9597 9.30316 27.96H10.7582C10.8025 27.9594 10.8436 27.9761 10.8754 28.0068C10.9073 28.0375 10.9271 28.0798 10.9282 28.124V29.5771C10.9283 29.5995 10.923 29.6209 10.9145 29.6416C10.906 29.6623 10.8932 29.6815 10.8774 29.6973C10.8616 29.7131 10.8434 29.7259 10.8227 29.7344C10.802 29.7429 10.7806 29.7472 10.7582 29.7471H10.1567ZM103.43 27.041C102.613 27.0471 101.813 26.8076 101.133 26.3545C100.453 25.9014 99.9245 25.2554 99.6157 24.499C99.1876 23.4858 99.1804 22.3434 99.5942 21.3242C100.008 20.3051 100.809 19.4925 101.823 19.0645C102.836 18.6364 103.977 18.6282 104.997 19.042C106.016 19.4558 106.83 20.2572 107.258 21.2705C107.474 21.7813 107.587 22.3301 107.59 22.8848V25.2695H116.998V22.8848C117.005 22.41 116.867 21.9447 116.6 21.5518C116.348 21.1608 115.979 20.8593 115.545 20.6914C115.252 20.5649 114.935 20.5004 114.616 20.501H109.305L108.053 19.249L114.659 12.6406L114.69 12.6621C115.013 12.9925 115.193 13.4371 115.19 13.8994C115.187 14.3617 115.003 14.8041 114.676 15.1309L111.075 18.7305H114.612C115.158 18.7273 115.7 18.8324 116.206 19.04C116.711 19.2477 117.171 19.554 117.557 19.9404C117.944 20.3269 118.25 20.7864 118.457 21.292C118.665 21.7975 118.771 22.3392 118.768 22.8857V26.1631C118.762 26.394 118.67 26.6139 118.506 26.7773C118.343 26.9408 118.122 27.0352 117.891 27.041H103.43ZM102.1 20.9004C101.72 21.1631 101.422 21.5299 101.243 21.9561C101.114 22.2492 101.05 22.5657 101.051 22.8857C101.054 23.358 101.191 23.8195 101.45 24.2148C101.711 24.5967 102.079 24.8938 102.506 25.0713C102.796 25.2036 103.111 25.272 103.43 25.2715H105.821V22.8867C105.814 22.4127 105.672 21.9504 105.413 21.5537C105.057 21.031 104.511 20.6697 103.891 20.5479C103.271 20.426 102.627 20.553 102.1 20.9023V20.9004ZM5.03363 27.041C4.3843 27.0402 3.74402 26.8866 3.16449 26.5938C2.58496 26.3009 2.08152 25.8768 1.69574 25.3545C1.30996 24.8322 1.0533 24.2269 0.943787 23.5869C0.834275 22.9469 0.874702 22.2898 1.06488 21.6689C1.25506 21.0481 1.58834 20.4806 2.03754 20.0117C2.48673 19.5428 3.04064 19.1854 3.65277 18.9688C4.2649 18.7521 4.91879 18.6817 5.56293 18.7637C6.20707 18.8456 6.82338 19.0774 7.36176 19.4404C8.02863 19.8929 8.55175 20.527 8.86957 21.2676C9.08455 21.7794 9.19433 22.3296 9.19183 22.8848V25.2695H13.0766V20.4834C13.0812 20.0233 13.2641 19.5833 13.5883 19.2568C13.9126 18.9304 14.3529 18.7431 14.8129 18.7354H14.8481V25.2695H18.9223V20.458C18.9335 20.0019 19.1185 19.567 19.4418 19.2451C19.7652 18.9232 20.2005 18.7386 20.6567 18.7295H20.6918V25.2695H24.4653C24.2954 25.03 24.1527 24.7729 24.0395 24.502C23.8237 23.9901 23.712 23.4402 23.7114 22.8848V15.2295C24.1806 15.2305 24.6296 15.4181 24.9614 15.75C25.2931 16.0819 25.4801 16.5317 25.4809 17.001V18.7012H25.4868V18.7344H30.7953C31.6227 18.7319 32.4298 18.9797 33.1137 19.4453C33.7801 19.8983 34.303 20.5323 34.6215 21.2725C34.8369 21.7843 34.9479 22.3343 34.9477 22.8896V26.1602C34.9449 26.3933 34.8519 26.6154 34.6879 26.7812C34.6062 26.8648 34.5085 26.9312 34.4008 26.9766C34.2932 27.0219 34.1778 27.0458 34.061 27.0459L5.03363 27.041ZM25.4887 22.8857C25.4875 23.1989 25.5473 23.5092 25.6664 23.7988C25.7856 24.0885 25.9608 24.3516 26.1821 24.5732C26.4033 24.7949 26.668 24.9711 26.9575 25.0908C27.2469 25.2105 27.5564 25.2712 27.8696 25.2705H33.184V22.8857C33.1813 22.4171 33.0404 21.9591 32.7817 21.5684C32.5229 21.1776 32.1574 20.871 31.727 20.6855C31.4313 20.5637 31.1152 20.5006 30.7953 20.499H25.4868L25.4887 22.8857ZM3.70355 20.9062C3.4435 21.0813 3.22049 21.3061 3.0473 21.5674C2.87412 21.8287 2.75369 22.122 2.69379 22.4297C2.63388 22.7374 2.63518 23.0541 2.69769 23.3613C2.7602 23.6685 2.88363 23.9599 3.05902 24.2197C3.31838 24.6033 3.68325 24.9037 4.1098 25.084C4.40201 25.2082 4.71612 25.2716 5.03363 25.2715H7.4223V22.8867C7.41924 22.4187 7.27986 21.9618 7.02191 21.5713C6.76397 21.1807 6.39844 20.8731 5.96918 20.6865C5.67239 20.5637 5.35485 20.5006 5.03363 20.5C4.55863 20.5016 4.09466 20.6424 3.69965 20.9062H3.70355ZM61.6039 27.0361C60.777 27.0369 59.9682 26.7911 59.2817 26.3301C58.6184 25.8762 58.0981 25.2427 57.7817 24.5039C57.3529 23.489 57.344 22.3451 57.7582 21.3242C58.1725 20.3033 58.9759 19.4887 59.9907 19.0596C60.5017 18.8412 61.0521 18.7294 61.6078 18.7314C62.1533 18.7305 62.6936 18.8376 63.1977 19.0459C63.7018 19.2542 64.1596 19.5597 64.5453 19.9453C64.9311 20.3309 65.2374 20.7889 65.4457 21.293C65.6541 21.797 65.761 22.3374 65.7602 22.8828V26.1523C65.7594 26.3856 65.6693 26.6096 65.5082 26.7783C65.4252 26.8608 65.3255 26.9264 65.2172 26.9707C65.1089 27.015 64.9924 27.0378 64.8754 27.0371L61.6039 27.0361ZM60.2758 20.9062C59.8911 21.1634 59.5895 21.5281 59.4086 21.9541C59.282 22.2473 59.2172 22.5634 59.2192 22.8828C59.216 23.3584 59.3557 23.824 59.6196 24.2197C59.8382 24.5439 60.1337 24.8097 60.4789 24.9932C60.8242 25.1766 61.2091 25.2718 61.6 25.2715H63.9887V22.8828C63.988 22.4103 63.8485 21.9482 63.5883 21.5537C63.3251 21.1701 62.959 20.8686 62.5317 20.6846C62.2369 20.5619 61.9212 20.4989 61.602 20.498C61.1273 20.4975 60.6624 20.6392 60.27 20.9062H60.2758ZM90.0746 27.0137H67.5121V15.2373H67.5219C67.9748 15.2373 68.409 15.412 68.7368 15.7246C69.0645 16.0373 69.2603 16.4646 69.2817 16.917V25.2383H73.1098V20.417C73.1253 19.963 73.3134 19.5316 73.6371 19.2129C73.9609 18.8942 74.3958 18.7125 74.85 18.7041H74.8715V25.2383H78.4731V22.8574C78.4746 22.0409 78.7139 21.2434 79.1645 20.5625C79.6151 19.8816 80.2573 19.347 81.0082 19.0264C81.5207 18.8132 82.0685 18.7041 82.6235 18.7041C83.7243 18.7057 84.781 19.1441 85.559 19.9229C86.3371 20.7016 86.7733 21.7566 86.7739 22.8574C86.7729 23.6846 86.5275 24.4933 86.0688 25.1816C86.0508 25.2026 86.036 25.2213 86.02 25.2383H90.475V17.0049C90.475 16.5409 90.6573 16.0953 90.9828 15.7646C91.3084 15.434 91.7513 15.2444 92.2153 15.2373H92.2465V26.1279C92.2469 26.244 92.2248 26.3587 92.1801 26.4658C92.1355 26.573 92.0694 26.6705 91.9868 26.752C91.9049 26.8354 91.8072 26.9016 91.6996 26.9473C91.592 26.9929 91.4767 27.0167 91.3598 27.0176L90.0746 27.0137ZM81.2914 20.874C80.9064 21.1341 80.6059 21.499 80.4223 21.9258C80.3005 22.2204 80.2359 22.5357 80.2348 22.8545V25.2354H82.6235C83.0919 25.2344 83.5509 25.0969 83.9418 24.8389C84.3328 24.5809 84.6396 24.2145 84.8246 23.7842C84.9492 23.4903 85.0126 23.1737 85.0121 22.8545C85.0163 22.3782 84.8729 21.9123 84.602 21.5205C84.2485 20.997 83.7024 20.6357 83.0825 20.5146C82.4625 20.3936 81.8198 20.523 81.2953 20.875L81.2914 20.874ZM95.7739 27.0098H95.7661C95.3036 27.0075 94.8606 26.8241 94.5317 26.499C94.2027 26.174 94.0141 25.7329 94.0063 25.2705V15.2305C94.4757 15.2315 94.9263 15.4191 95.2582 15.751C95.5901 16.0829 95.7767 16.5326 95.7778 17.002V27.0107L95.7739 27.0098ZM53.9145 27.0098H53.9086C53.4466 27.0083 53.0052 26.8253 52.6762 26.501C52.3472 26.1766 52.157 25.7364 52.1489 25.2744V15.2305C52.3813 15.2305 52.6119 15.2762 52.8266 15.3652C53.0413 15.4543 53.2366 15.5855 53.4008 15.75C53.565 15.9145 53.695 16.1094 53.7836 16.3242C53.8723 16.5391 53.9168 16.7695 53.9164 17.002V27.0107L53.9145 27.0098ZM132.987 18.3096C132.965 18.3098 132.943 18.3062 132.922 18.2979C132.902 18.2895 132.883 18.2764 132.868 18.2607C132.852 18.2451 132.841 18.2266 132.832 18.2061C132.824 18.1856 132.819 18.1637 132.819 18.1416V16.6885C132.819 16.6436 132.836 16.6004 132.868 16.5684C132.899 16.5363 132.942 16.5181 132.987 16.5176H133.581C133.854 16.5228 134.114 16.6357 134.305 16.8311C134.496 17.0264 134.603 17.2883 134.602 17.5615V18.1416C134.602 18.1638 134.599 18.1855 134.59 18.2061C134.582 18.2266 134.569 18.246 134.553 18.2617C134.537 18.2774 134.519 18.2896 134.498 18.2979C134.478 18.3062 134.456 18.31 134.434 18.3096H132.987ZM130.963 18.3096C130.941 18.3101 130.918 18.3061 130.897 18.2979C130.876 18.2896 130.856 18.2774 130.84 18.2617C130.824 18.2461 130.812 18.2277 130.803 18.207C130.794 18.1864 130.789 18.164 130.789 18.1416V17.5615C130.789 17.2883 130.895 17.0264 131.086 16.8311C131.277 16.6357 131.538 16.5228 131.811 16.5176H132.411C132.455 16.5191 132.497 16.5383 132.528 16.5703C132.558 16.6023 132.574 16.6444 132.573 16.6885V18.1416C132.573 18.1633 132.571 18.1848 132.563 18.2051C132.555 18.2253 132.543 18.2441 132.528 18.2598C132.513 18.2754 132.495 18.2873 132.475 18.2959C132.455 18.3045 132.432 18.3093 132.411 18.3096H130.963ZM103.748 18.3096C103.726 18.3098 103.705 18.3062 103.684 18.2979C103.663 18.2895 103.645 18.2764 103.629 18.2607C103.614 18.2451 103.601 18.2266 103.592 18.2061C103.584 18.1855 103.579 18.1638 103.579 18.1416V16.6885C103.579 16.6434 103.598 16.6003 103.629 16.5684C103.661 16.5364 103.703 16.5181 103.748 16.5176H104.344C104.618 16.5218 104.877 16.6336 105.069 16.8291C105.26 17.0246 105.367 17.2878 105.366 17.5615V18.1416C105.366 18.1633 105.364 18.1848 105.356 18.2051C105.348 18.2253 105.336 18.2441 105.321 18.2598C105.306 18.2754 105.288 18.2873 105.268 18.2959C105.248 18.3045 105.225 18.3093 105.204 18.3096H103.748ZM101.725 18.3096C101.703 18.3103 101.679 18.306 101.659 18.2979C101.638 18.2897 101.62 18.2774 101.604 18.2617C101.588 18.246 101.575 18.2277 101.567 18.207C101.558 18.1863 101.555 18.1639 101.555 18.1416V17.5615C101.554 17.2877 101.66 17.0245 101.852 16.8291C102.044 16.6337 102.305 16.5218 102.579 16.5176H103.18C103.202 16.518 103.222 16.5224 103.243 16.5312C103.263 16.5401 103.282 16.5534 103.297 16.5693C103.313 16.5852 103.324 16.6035 103.332 16.624C103.34 16.6446 103.345 16.6665 103.344 16.6885V18.1416C103.345 18.1635 103.34 18.1856 103.332 18.2061C103.325 18.2265 103.313 18.2451 103.297 18.2607C103.282 18.2764 103.263 18.2884 103.243 18.2969C103.222 18.3053 103.202 18.3097 103.18 18.3096H101.725ZM16.5414 18.3096C16.5193 18.31 16.4976 18.3062 16.477 18.2979C16.4564 18.2896 16.438 18.2774 16.4223 18.2617C16.4066 18.246 16.3954 18.2266 16.3871 18.2061C16.3788 18.1855 16.3731 18.1638 16.3735 18.1416V17.5615C16.3721 17.2875 16.4803 17.0246 16.6723 16.8291C16.8643 16.6336 17.1249 16.5213 17.3989 16.5176H17.9985C18.0431 16.5184 18.0865 16.5373 18.1176 16.5693C18.1487 16.6014 18.165 16.6438 18.1645 16.6885V18.1416C18.165 18.1636 18.1628 18.1856 18.1547 18.2061C18.1466 18.2265 18.1331 18.2451 18.1176 18.2607C18.1021 18.2764 18.0833 18.2895 18.0629 18.2979C18.0425 18.3062 18.0205 18.3098 17.9985 18.3096H16.5414ZM5.3266 18.3096C5.30443 18.31 5.28271 18.3062 5.26215 18.2979C5.24158 18.2896 5.22314 18.2774 5.20746 18.2617C5.19178 18.246 5.1806 18.2266 5.1723 18.2061C5.164 18.1855 5.15822 18.1638 5.15863 18.1416V16.6885C5.15837 16.6662 5.16399 16.6447 5.1723 16.624C5.18061 16.6034 5.19185 16.5843 5.20746 16.5684C5.22307 16.5525 5.24163 16.5399 5.26215 16.5312C5.28267 16.5226 5.30432 16.5177 5.3266 16.5176H5.92816C6.20139 16.5231 6.4615 16.6359 6.65277 16.8311C6.84404 17.0262 6.9497 17.2882 6.94965 17.5615V18.1416C6.95005 18.1638 6.94623 18.1855 6.93793 18.2061C6.92963 18.2266 6.91845 18.246 6.90277 18.2617C6.88709 18.2774 6.86865 18.2896 6.84808 18.2979C6.82752 18.3062 6.80385 18.31 6.78168 18.3096H5.3266ZM3.30121 18.3096C3.27885 18.31 3.25559 18.3061 3.2348 18.2979C3.21402 18.2896 3.19611 18.2773 3.18012 18.2617C3.16412 18.2461 3.14979 18.2276 3.14105 18.207C3.13231 18.1864 3.12946 18.164 3.12933 18.1416V17.5615C3.1285 17.2883 3.23325 17.0264 3.42426 16.8311C3.61526 16.6357 3.87574 16.5228 4.14887 16.5176H4.74847C4.79349 16.5184 4.83783 16.5364 4.86957 16.5684C4.90131 16.6003 4.91984 16.6435 4.92035 16.6885V18.1416C4.92022 18.1638 4.91529 18.1856 4.90668 18.2061C4.89806 18.2265 4.88535 18.2451 4.86957 18.2607C4.85378 18.2763 4.83544 18.2885 4.81488 18.2969C4.79433 18.3052 4.77067 18.3097 4.74847 18.3096H3.30121ZM131.858 16.3154C131.835 16.3161 131.812 16.3128 131.791 16.3047C131.771 16.2966 131.753 16.2841 131.737 16.2686C131.721 16.253 131.706 16.2345 131.698 16.2139C131.689 16.1933 131.686 16.1708 131.686 16.1484V15.5645C131.686 15.2909 131.793 15.029 131.985 14.834C132.177 14.639 132.436 14.5267 132.709 14.5225H133.311C133.356 14.5235 133.4 14.542 133.432 14.5742C133.464 14.6065 133.482 14.6498 133.483 14.6953V16.1484C133.482 16.1932 133.462 16.2364 133.43 16.2676C133.398 16.2988 133.356 16.3154 133.311 16.3154H131.858Z" fill="#042147"/>
<path d="M137.395 37.154C137.333 37.0897 137.259 37.0387 137.177 37.0043C137.095 36.9699 137.006 36.9528 136.917 36.954C136.775 36.9474 136.635 36.9877 136.518 37.0687C136.401 37.1496 136.314 37.2668 136.271 37.402L134.607 41.812L132.765 37.405C132.726 37.2759 132.647 37.1625 132.539 37.0816C132.431 37.0006 132.3 36.9563 132.165 36.955C132.074 36.952 131.982 36.9683 131.898 37.0027C131.813 37.0372 131.736 37.0891 131.673 37.155C131.551 37.2832 131.485 37.4542 131.488 37.631C131.484 37.7106 131.499 37.7901 131.531 37.863L133.393 42.263C133.466 42.4251 133.584 42.5623 133.734 42.6579C133.883 42.7535 134.057 42.8033 134.235 42.801L133.54 44.64C133.492 44.7526 133.463 44.8721 133.453 44.994C133.452 45.0832 133.469 45.1717 133.504 45.2541C133.538 45.3364 133.589 45.4109 133.653 45.473C133.713 45.5363 133.786 45.5866 133.866 45.621C133.946 45.6554 134.033 45.6731 134.12 45.673C134.254 45.6677 134.382 45.6224 134.49 45.543C134.608 45.4667 134.7 45.3561 134.754 45.226L137.482 38.026C137.542 37.9077 137.58 37.7792 137.593 37.647C137.595 37.5561 137.578 37.4658 137.544 37.3817C137.51 37.2975 137.458 37.2214 137.393 37.158M128.119 36.958C127.72 36.9516 127.324 37.0267 126.955 37.1787C126.586 37.3307 126.252 37.5564 125.973 37.842C125.685 38.1262 125.459 38.4661 125.307 38.841C125.155 39.2159 125.082 39.6177 125.091 40.022V42.476C125.091 42.5642 125.108 42.6516 125.143 42.7329C125.177 42.8141 125.228 42.8876 125.291 42.949C125.352 43.0129 125.425 43.0637 125.506 43.0985C125.587 43.1332 125.674 43.1511 125.762 43.1511C125.851 43.1511 125.938 43.1332 126.019 43.0985C126.1 43.0637 126.173 43.0129 126.234 42.949C126.298 42.8879 126.348 42.8144 126.383 42.7331C126.417 42.6518 126.434 42.5643 126.434 42.476V39.939C126.425 39.7029 126.464 39.4674 126.548 39.247C126.633 39.0265 126.763 38.8257 126.928 38.657C127.082 38.4985 127.266 38.3732 127.471 38.2889C127.675 38.2046 127.894 38.1631 128.115 38.167C128.335 38.1633 128.554 38.2048 128.758 38.2891C128.962 38.3734 129.146 38.4986 129.3 38.657C129.467 38.8248 129.597 39.0254 129.682 39.2461C129.767 39.4668 129.805 39.7028 129.794 39.939V42.476C129.794 42.5635 129.811 42.6502 129.844 42.731C129.878 42.8118 129.927 42.8853 129.989 42.947C130.049 43.0109 130.121 43.0617 130.202 43.0961C130.283 43.1306 130.369 43.1479 130.457 43.147C130.545 43.1466 130.633 43.1288 130.714 43.0944C130.796 43.0601 130.87 43.01 130.932 42.947C130.998 42.8868 131.051 42.8134 131.087 42.7316C131.123 42.6498 131.142 42.5614 131.142 42.472V40.019C131.15 39.6157 131.076 39.2149 130.924 38.8411C130.772 38.4672 130.546 38.128 130.26 37.844C129.982 37.5575 129.649 37.3309 129.28 37.1781C128.911 37.0254 128.515 36.9498 128.116 36.956M122.096 41.406C122.422 41.0273 122.596 40.5416 122.586 40.042C122.599 39.5445 122.42 39.061 122.086 38.692C121.932 38.5154 121.74 38.3748 121.526 38.2803C121.311 38.1858 121.078 38.1396 120.844 38.145C120.6 38.1377 120.357 38.1834 120.133 38.2791C119.909 38.3747 119.708 38.518 119.544 38.699C119.202 39.0613 119.015 39.5429 119.023 40.041C119.011 40.5457 119.199 41.0347 119.545 41.402C119.707 41.5839 119.907 41.7282 120.131 41.8249C120.354 41.9216 120.596 41.9684 120.84 41.962C121.077 41.9701 121.312 41.9241 121.528 41.8276C121.744 41.731 121.936 41.5865 122.088 41.405M123.665 37.152C123.729 37.2138 123.78 37.2881 123.814 37.3703C123.849 37.4525 123.866 37.5409 123.865 37.63V42.476C123.866 42.5655 123.849 42.6542 123.815 42.7368C123.78 42.8194 123.729 42.894 123.665 42.956C123.603 43.0189 123.53 43.069 123.449 43.1033C123.368 43.1377 123.281 43.1556 123.193 43.156C123.105 43.1555 123.019 43.1376 122.938 43.1033C122.857 43.0689 122.784 43.0189 122.723 42.956C122.625 42.8633 122.558 42.7424 122.532 42.61C122.021 42.9714 121.408 43.1612 120.782 43.152C120.382 43.1581 119.984 43.0806 119.616 42.9244C119.247 42.7683 118.915 42.5369 118.641 42.245C118.357 41.9545 118.133 41.6105 117.983 41.2328C117.833 40.8551 117.76 40.4513 117.767 40.045C117.759 39.6393 117.833 39.2362 117.984 38.8597C118.135 38.4832 118.361 38.1412 118.648 37.854C118.923 37.5663 119.255 37.3384 119.622 37.1844C119.989 37.0305 120.384 36.9537 120.782 36.959C121.408 36.948 122.021 37.1375 122.532 37.5C122.558 37.3682 122.624 37.2476 122.722 37.155C122.848 37.0295 123.018 36.959 123.196 36.959C123.374 36.959 123.544 37.0295 123.67 37.155M112.645 38.678C112.318 39.0437 112.144 39.5208 112.158 40.011V40.148C112.145 40.6263 112.321 41.0904 112.649 41.439C112.808 41.6088 113.001 41.7426 113.216 41.8314C113.43 41.9203 113.662 41.9621 113.894 41.954C114.137 41.9614 114.38 41.9161 114.604 41.8212C114.828 41.7262 115.03 41.5839 115.194 41.404C115.365 41.2269 115.499 41.0176 115.588 40.7882C115.677 40.5589 115.72 40.3141 115.714 40.068C115.726 39.5636 115.54 39.0746 115.194 38.707C115.031 38.5248 114.83 38.3802 114.606 38.2835C114.381 38.1868 114.138 38.1402 113.894 38.147C113.66 38.1386 113.426 38.1818 113.21 38.2735C112.995 38.3653 112.801 38.5034 112.645 38.678ZM116.127 37.866C116.695 38.456 117.005 39.2473 116.99 40.066C116.997 40.4697 116.924 40.8707 116.775 41.2458C116.626 41.6209 116.403 41.9626 116.121 42.251C115.856 42.5375 115.535 42.7655 115.177 42.9205C114.819 43.0754 114.433 43.154 114.043 43.151C113.378 43.1677 112.732 42.929 112.238 42.484V44.992C112.24 45.0815 112.223 45.1705 112.189 45.2531C112.154 45.3357 112.103 45.4103 112.038 45.472C111.977 45.535 111.904 45.5851 111.823 45.6194C111.742 45.6537 111.656 45.6716 111.568 45.672C111.479 45.6729 111.391 45.6556 111.309 45.6212C111.227 45.5868 111.153 45.536 111.091 45.472C111.027 45.41 110.976 45.3357 110.942 45.2535C110.908 45.1713 110.89 45.0831 110.891 44.994V37.63C110.89 37.5411 110.908 37.453 110.942 37.371C110.976 37.289 111.027 37.2148 111.091 37.153C111.218 37.0273 111.39 36.9568 111.568 36.9568C111.747 36.9568 111.919 37.0273 112.046 37.153C112.109 37.214 112.16 37.2872 112.194 37.3681C112.228 37.449 112.246 37.5361 112.246 37.624C112.74 37.1795 113.386 36.9405 114.051 36.956C114.443 36.9526 114.831 37.0317 115.19 37.1881C115.549 37.3446 115.871 37.5749 116.135 37.864M106.876 36.956C106.465 36.9537 106.058 37.0449 105.687 37.2226C105.316 37.4003 104.991 37.66 104.735 37.982C104.481 37.6649 104.16 37.4082 103.794 37.2306C103.429 37.0529 103.028 36.9588 102.622 36.955C102.248 36.9463 101.876 37.0147 101.529 37.1559C101.182 37.2972 100.869 37.5082 100.607 37.776C100.337 38.0567 100.127 38.3887 99.9882 38.7524C99.8495 39.1162 99.7855 39.5041 99.7999 39.893V42.476C99.7998 42.5642 99.8175 42.6516 99.8518 42.7329C99.8862 42.8141 99.9366 42.8876 99.9999 42.949C100.061 43.0128 100.134 43.0635 100.215 43.0982C100.296 43.1328 100.383 43.1507 100.471 43.1507C100.56 43.1507 100.647 43.1328 100.728 43.0982C100.809 43.0635 100.882 43.0128 100.943 42.949C101.007 42.8878 101.057 42.8143 101.091 42.733C101.126 42.6517 101.143 42.5643 101.143 42.476V39.756C101.133 39.5428 101.164 39.3296 101.237 39.1288C101.309 38.928 101.421 38.7435 101.565 38.586C101.699 38.4454 101.861 38.3345 102.04 38.2605C102.22 38.1864 102.413 38.1508 102.607 38.156C102.8 38.1504 102.992 38.1859 103.17 38.26C103.348 38.3341 103.509 38.4453 103.641 38.586C103.785 38.7434 103.896 38.928 103.968 39.1289C104.039 39.3298 104.07 39.543 104.058 39.756V42.476C104.058 42.5643 104.075 42.6517 104.11 42.733C104.144 42.8143 104.194 42.8878 104.258 42.949C104.318 43.013 104.391 43.064 104.472 43.0989C104.552 43.1338 104.64 43.1518 104.727 43.1518C104.815 43.1518 104.902 43.1338 104.983 43.0989C105.064 43.064 105.137 43.013 105.197 42.949C105.259 42.8872 105.308 42.8138 105.341 42.733C105.374 42.6521 105.391 42.5655 105.391 42.478V39.758C105.379 39.5447 105.41 39.3312 105.483 39.1302C105.555 38.9292 105.667 38.7448 105.812 38.588C105.946 38.4476 106.107 38.3368 106.286 38.2627C106.465 38.1886 106.658 38.153 106.852 38.158C107.045 38.154 107.237 38.1912 107.414 38.2673C107.592 38.3433 107.751 38.4564 107.881 38.599C108.025 38.7544 108.136 38.9368 108.208 39.1356C108.281 39.3344 108.313 39.5457 108.303 39.757V42.477C108.303 42.5664 108.322 42.6548 108.358 42.7366C108.394 42.8184 108.447 42.8918 108.513 42.952C108.575 43.0151 108.649 43.0652 108.73 43.0995C108.812 43.1338 108.899 43.1517 108.988 43.152C109.075 43.1527 109.162 43.1347 109.242 43.0992C109.322 43.0637 109.393 43.0114 109.451 42.946C109.573 42.8205 109.641 42.6521 109.64 42.477V39.893C109.654 39.5051 109.592 39.1181 109.455 38.7547C109.319 38.3912 109.111 38.0586 108.845 37.776C108.588 37.5084 108.278 37.2972 107.935 37.1558C107.592 37.0145 107.223 36.9461 106.852 36.955M97.0279 41.391C97.3787 41.0299 97.5719 40.5444 97.5649 40.041C97.5681 39.795 97.5223 39.5509 97.4303 39.3227C97.3383 39.0946 97.2019 38.887 97.0289 38.712C96.863 38.5338 96.6617 38.3922 96.4378 38.2965C96.2139 38.2007 95.9724 38.1529 95.729 38.156C95.484 38.1516 95.2408 38.1988 95.0152 38.2946C94.7897 38.3904 94.5869 38.5326 94.4199 38.712C94.2455 38.8862 94.1077 39.0935 94.0146 39.3217C93.9215 39.55 93.875 39.7945 93.8779 40.041C93.8735 40.2912 93.9188 40.5398 94.0112 40.7724C94.1035 41.005 94.2411 41.217 94.4159 41.396C94.5814 41.5791 94.7842 41.7243 95.0108 41.822C95.2374 41.9197 95.4823 41.9674 95.729 41.962C95.9738 41.9647 96.2164 41.9152 96.4405 41.8167C96.6647 41.7183 96.8653 41.5731 97.0289 41.391M97.9349 37.855C98.2287 38.1375 98.4612 38.4775 98.618 38.8537C98.7747 39.23 98.8523 39.6345 98.846 40.042C98.852 40.4513 98.7743 40.8576 98.6179 41.2359C98.4614 41.6142 98.2294 41.9565 97.936 42.242C97.6492 42.5365 97.3054 42.7693 96.9256 42.9263C96.5457 43.0833 96.1379 43.1611 95.7269 43.155C95.3164 43.1629 94.9086 43.0866 94.5286 42.9307C94.1487 42.7749 93.8047 42.5429 93.518 42.249C93.2272 41.962 92.9976 41.6191 92.843 41.2411C92.6883 40.863 92.6118 40.4575 92.618 40.049C92.6105 39.6416 92.6864 39.2369 92.8412 38.8599C92.996 38.4829 93.2263 38.1416 93.518 37.857C93.8063 37.5663 94.1507 37.3372 94.5303 37.1835C94.9098 37.0299 95.3165 36.9548 95.7259 36.963C96.1356 36.9565 96.5424 37.0329 96.9218 37.1876C97.3013 37.3422 97.6455 37.572 97.9339 37.863M90.889 41.378C90.4039 41.7456 89.8126 41.9456 89.204 41.948C88.8195 41.9542 88.4383 41.8769 88.0867 41.7215C87.735 41.5662 87.4212 41.3364 87.1669 41.048C86.6256 40.473 86.3278 39.7107 86.3359 38.921C86.33 38.1335 86.6276 37.3739 87.1669 36.8C87.4202 36.5098 87.7336 36.2783 88.0854 36.1215C88.4371 35.9647 88.8189 35.8864 89.204 35.892C89.7493 35.8922 90.282 36.0563 90.7329 36.363C90.847 36.433 90.9812 36.4629 91.1142 36.4479C91.2472 36.4328 91.3714 36.3737 91.467 36.28C91.5259 36.2244 91.5725 36.1571 91.6036 36.0823C91.6348 36.0075 91.6499 35.927 91.648 35.846C91.6352 35.7021 91.5841 35.5643 91.5 35.4468C91.416 35.3294 91.302 35.2366 91.1699 35.178C90.8662 34.9988 90.5351 34.8704 90.1899 34.798C89.8664 34.7239 89.5359 34.6843 89.204 34.68C88.6496 34.6742 88.0999 34.7826 87.5893 34.9985C87.0787 35.2145 86.618 35.5332 86.2359 35.935C85.8422 36.3236 85.5305 36.7874 85.3196 37.2988C85.1086 37.8102 85.0026 38.3588 85.0079 38.912C85.0021 39.4673 85.1085 40.0179 85.3207 40.531C85.5329 41.0442 85.8466 41.5091 86.243 41.898C86.625 42.2998 87.0857 42.6185 87.5963 42.8342C88.107 43.05 88.6566 43.1581 89.2109 43.152C90.0644 43.1644 90.8989 42.8994 91.5889 42.397C91.684 42.3401 91.763 42.26 91.8184 42.1641C91.8739 42.0682 91.904 41.9598 91.906 41.849C91.9082 41.7652 91.8925 41.6818 91.8599 41.6046C91.8273 41.5273 91.7786 41.4579 91.717 41.401C91.6065 41.2985 91.4628 41.239 91.3122 41.2333C91.1616 41.2276 91.0139 41.2761 90.8959 41.37M79.9959 36.956C79.6423 36.9469 79.2906 37.0118 78.9634 37.1464C78.6362 37.2811 78.3408 37.4826 78.096 37.738C77.8503 37.9887 77.6571 38.2859 77.5277 38.6121C77.3982 38.9383 77.3351 39.2871 77.342 39.638V42.476C77.3419 42.5642 77.3595 42.6516 77.3939 42.7328C77.4283 42.8141 77.4786 42.8876 77.5419 42.949C77.6031 43.0125 77.6764 43.0629 77.7575 43.0973C77.8386 43.1316 77.9259 43.1492 78.014 43.149C78.1019 43.1493 78.189 43.1318 78.27 43.0974C78.351 43.063 78.4241 43.0125 78.4849 42.949C78.5486 42.8879 78.5992 42.8144 78.6336 42.7331C78.6679 42.6518 78.6854 42.5643 78.6849 42.476V39.476C78.6726 39.1281 78.7985 38.7895 79.035 38.534C79.149 38.4104 79.2886 38.3131 79.444 38.2489C79.5994 38.1847 79.7669 38.155 79.9349 38.162C80.2305 38.1831 80.5123 38.2949 80.742 38.482C80.865 38.5795 81.0199 38.6278 81.1765 38.6176C81.3332 38.6075 81.4805 38.5395 81.5899 38.427C81.6478 38.37 81.6938 38.3022 81.7254 38.2274C81.757 38.1525 81.7735 38.0722 81.7739 37.991C81.7739 37.8929 81.7512 37.7961 81.7077 37.7082C81.6642 37.6202 81.601 37.5435 81.523 37.484C81.0944 37.1261 80.5502 36.9363 79.992 36.95M72.428 38.564C72.1473 38.8095 71.942 39.1295 71.8359 39.487H75.2499C75.1685 39.1398 74.9829 38.8258 74.7179 38.587C74.4126 38.2855 74 38.1175 73.5709 38.12C73.146 38.1155 72.7358 38.2761 72.4269 38.568M75.6589 37.82C75.9252 38.0767 76.1372 38.3842 76.2825 38.7243C76.4278 39.0644 76.5035 39.4302 76.505 39.8C76.5067 40.0107 76.4288 40.2143 76.2869 40.37C76.2197 40.4495 76.1359 40.5133 76.0414 40.557C75.9469 40.6007 75.844 40.6232 75.7399 40.623H71.8399C71.953 40.9831 72.1672 41.3032 72.4569 41.545C72.8237 41.8166 73.2676 41.9639 73.724 41.9655C74.1803 41.9671 74.6253 41.823 74.9939 41.554C75.1133 41.4829 75.2529 41.4533 75.3909 41.4697C75.5289 41.4862 75.6576 41.5478 75.7569 41.645C75.811 41.7003 75.8536 41.7659 75.8821 41.8378C75.9106 41.9098 75.9245 41.9867 75.923 42.064C75.9286 42.1736 75.9035 42.2827 75.8505 42.3788C75.7975 42.4749 75.7187 42.5543 75.6229 42.608C75.0212 42.9681 74.3321 43.156 73.6309 43.151C73.2159 43.16 72.8034 43.0843 72.4186 42.9286C72.0338 42.7728 71.6848 42.5402 71.393 42.245C71.1015 41.9586 70.8714 41.6158 70.7167 41.2376C70.5619 40.8594 70.4858 40.4536 70.493 40.045C70.4866 39.6375 70.5642 39.233 70.7209 38.8567C70.8777 38.4805 71.1102 38.1405 71.4039 37.858C71.687 37.5692 72.0254 37.3407 72.399 37.186C72.7726 37.0313 73.1736 36.9538 73.5779 36.958C73.967 36.9505 74.3535 37.0236 74.713 37.1726C75.0725 37.3217 75.3973 37.5434 75.6669 37.824M69.7049 38.296C69.7849 38.2965 69.8641 38.281 69.9379 38.2504C70.0117 38.2198 70.0788 38.1748 70.135 38.118C70.1954 38.0621 70.2433 37.9942 70.2757 37.9185C70.3081 37.8429 70.3242 37.7613 70.3229 37.679C70.3246 37.598 70.3092 37.5175 70.2778 37.4428C70.2465 37.368 70.1999 37.3007 70.1409 37.245C70.0835 37.1886 70.0153 37.1442 69.9404 37.1147C69.8655 37.0851 69.7854 37.071 69.7049 37.073H68.7799V36.212C68.7806 36.1245 68.7631 36.0377 68.7287 35.9572C68.6943 35.8767 68.6436 35.8041 68.5799 35.744C68.4529 35.6197 68.2822 35.5501 68.1044 35.5501C67.9267 35.5501 67.756 35.6197 67.6289 35.744C67.5649 35.8039 67.5141 35.8764 67.4797 35.957C67.4452 36.0375 67.4279 36.1244 67.4289 36.212V37.069H67.109C67.0286 37.0685 66.949 37.085 66.8754 37.1174C66.8018 37.1498 66.7359 37.1974 66.682 37.257C66.6261 37.3114 66.5816 37.3764 66.551 37.4482C66.5205 37.5199 66.5045 37.597 66.5039 37.675C66.502 37.7553 66.5163 37.8352 66.5458 37.91C66.5754 37.9847 66.6196 38.0527 66.6759 38.11C66.7311 38.1694 66.7982 38.2164 66.8728 38.248C66.9474 38.2795 67.0279 38.2949 67.109 38.293H67.4289V41.482C67.4247 41.6844 67.4611 41.8856 67.536 42.0737C67.6109 42.2618 67.7227 42.4329 67.8649 42.577C68.0084 42.7262 68.1811 42.8441 68.3723 42.9232C68.5635 43.0024 68.769 43.0411 68.9759 43.037H69.548C69.6285 43.0389 69.7086 43.0246 69.7835 42.9949C69.8585 42.9652 69.9266 42.9207 69.984 42.864C70.0427 42.8085 70.0891 42.7413 70.1201 42.6667C70.1511 42.5921 70.1661 42.5118 70.1639 42.431C70.1654 42.3499 70.1503 42.2694 70.1197 42.1943C70.0891 42.1192 70.0436 42.051 69.9859 41.994C69.929 41.9359 69.8607 41.8899 69.7854 41.859C69.7101 41.828 69.6293 41.8127 69.548 41.814H69.1029C69.0158 41.8125 68.9327 41.7766 68.872 41.714C68.8391 41.6852 68.813 41.6494 68.7958 41.6093C68.7785 41.5692 68.7703 41.5257 68.7719 41.482V38.294L69.7049 38.296ZM64.1329 41.408C64.459 41.0294 64.6335 40.5436 64.6229 40.044C64.636 39.5465 64.4569 39.063 64.1229 38.694C63.9687 38.5174 63.7774 38.3768 63.5628 38.2823C63.3482 38.1878 63.1154 38.1416 62.8809 38.147C62.6371 38.1397 62.3945 38.1855 62.1701 38.2812C61.9456 38.3768 61.7446 38.5201 61.5809 38.701C61.2393 39.0635 61.0528 39.545 61.061 40.043C61.0488 40.5476 61.236 41.0366 61.582 41.404C61.7447 41.5865 61.9454 41.7312 62.17 41.8279C62.3945 41.9246 62.6375 41.9711 62.8819 41.964C63.1184 41.9719 63.3536 41.9258 63.5697 41.8293C63.7857 41.7328 63.977 41.5884 64.1289 41.407M65.6899 37.154C65.7541 37.2159 65.8049 37.2902 65.8393 37.3724C65.8737 37.4546 65.8909 37.5429 65.8899 37.632V42.476C65.8913 42.5655 65.8742 42.6542 65.8398 42.7368C65.8054 42.8194 65.7544 42.894 65.6899 42.956C65.6286 43.0189 65.5553 43.0689 65.4745 43.1032C65.3936 43.1375 65.3068 43.1555 65.2189 43.156C65.1313 43.1555 65.0446 43.1375 64.9639 43.1032C64.8832 43.0688 64.8101 43.0188 64.7489 42.956C64.6511 42.8632 64.5843 42.7423 64.5579 42.61C64.047 42.9713 63.4346 43.1611 62.8089 43.152C62.4085 43.1581 62.0111 43.0806 61.6423 42.9244C61.2735 42.7682 60.9413 42.5368 60.6669 42.245C60.383 41.9544 60.1596 41.6103 60.0097 41.2326C59.8598 40.855 59.7865 40.4513 59.794 40.045C59.7859 39.6393 59.8597 39.2362 60.0111 38.8597C60.1625 38.4832 60.3883 38.1412 60.6749 37.854C60.9502 37.5663 61.2817 37.3384 61.6488 37.1844C62.016 37.0305 62.4109 36.9537 62.8089 36.959C63.4347 36.948 64.0476 37.1376 64.5579 37.5C64.5844 37.3682 64.6507 37.2478 64.7479 37.155C64.8739 37.0294 65.0446 36.9589 65.2225 36.9589C65.4003 36.9589 65.571 37.0294 65.6969 37.155M58.044 34.672C57.957 34.6692 57.8704 34.6857 57.7905 34.7203C57.7107 34.7548 57.6394 34.8067 57.582 34.872C57.4641 35.0083 57.3939 35.1793 57.3819 35.359L57.0199 41.199L55.212 38.644C55.1325 38.5209 55.024 38.4192 54.896 38.3479C54.768 38.2766 54.6244 38.2378 54.4779 38.235C54.3324 38.2373 54.1895 38.275 54.0617 38.3446C53.9338 38.4143 53.8248 38.5139 53.7439 38.635L51.927 41.201L51.565 35.359C51.5552 35.1816 51.4882 35.0121 51.3739 34.876C51.3169 34.8087 51.2453 34.7552 51.1646 34.7195C51.0839 34.6838 50.9961 34.6669 50.9079 34.67C50.8196 34.6691 50.7321 34.687 50.6513 34.7225C50.5704 34.758 50.498 34.8104 50.4389 34.876C50.3123 35.0111 50.2443 35.1909 50.25 35.376L50.707 42.35C50.717 42.5299 50.7874 42.7012 50.9069 42.836C50.9659 42.9009 51.0381 42.9523 51.1187 42.9869C51.1992 43.0214 51.2863 43.0381 51.3739 43.036H51.7739C51.9008 43.0329 52.0247 42.9972 52.1336 42.9322C52.2426 42.8672 52.333 42.7752 52.3959 42.665L54.4759 39.788L56.565 42.681C56.6309 42.7859 56.7213 42.8731 56.8284 42.9353C56.9356 42.9975 57.0562 43.0327 57.1799 43.038H57.5799C57.6696 43.0407 57.7587 43.0242 57.8415 42.9898C57.9243 42.9553 57.9987 42.9035 58.0599 42.838C58.1821 42.7028 58.2544 42.5299 58.2649 42.348L58.7219 35.375V35.366C58.7238 35.2753 58.7077 35.1852 58.6746 35.1007C58.6414 35.0163 58.592 34.9393 58.5289 34.874C58.4661 34.8084 58.3902 34.7567 58.3062 34.7222C58.2221 34.6878 58.1317 34.6713 58.0409 34.674M44.8949 34.412C44.8313 34.473 44.7808 34.5463 44.7464 34.6275C44.7121 34.7086 44.6946 34.7959 44.695 34.884V42.476C44.6945 42.5643 44.712 42.6518 44.7463 42.7331C44.7807 42.8144 44.8313 42.8879 44.8949 42.949C44.9558 43.0125 45.0289 43.063 45.1099 43.0974C45.1909 43.1318 45.278 43.1493 45.3659 43.149C45.4542 43.1496 45.5417 43.1322 45.6231 43.0978C45.7044 43.0634 45.7779 43.0128 45.8389 42.949C45.9026 42.8878 45.9531 42.8143 45.9875 42.733C46.0218 42.6517 46.0394 42.5643 46.039 42.476V34.887C46.0393 34.7989 46.0217 34.7116 45.9873 34.6305C45.953 34.5494 45.9025 34.4761 45.8389 34.415C45.7782 34.3509 45.705 34.2998 45.6239 34.2648C45.5427 34.2299 45.4553 34.2119 45.367 34.2119C45.2786 34.2119 45.1912 34.2299 45.11 34.2648C45.0289 34.2998 44.9557 34.3509 44.8949 34.415M41.5879 41.405C41.9142 41.0265 42.0891 40.5407 42.079 40.041C42.092 39.5435 41.913 39.06 41.579 38.691C41.4246 38.5143 41.2332 38.3736 41.0184 38.2791C40.8035 38.1846 40.5706 38.1385 40.3359 38.144C40.0921 38.1367 39.8495 38.1824 39.625 38.2781C39.4005 38.3737 39.1996 38.517 39.036 38.698C38.694 39.0603 38.507 39.5419 38.5149 40.04C38.5029 40.5447 38.6905 41.0338 39.0369 41.401C39.199 41.5828 39.3987 41.7271 39.6221 41.8238C39.8456 41.9205 40.0875 41.9673 40.3309 41.961C40.5676 41.9691 40.803 41.9232 41.0193 41.8267C41.2355 41.7301 41.4269 41.5856 41.579 41.404M43.1399 37.151C43.2041 37.2129 43.2549 37.2872 43.2893 37.3694C43.3237 37.4516 43.3409 37.5399 43.3399 37.629V42.476C43.3413 42.5655 43.3243 42.6542 43.2899 42.7368C43.2555 42.8194 43.2044 42.894 43.1399 42.956C43.0786 43.0189 43.0053 43.0689 42.9245 43.1032C42.8436 43.1375 42.7568 43.1555 42.669 43.156C42.5813 43.1555 42.4946 43.1376 42.4139 43.1033C42.3332 43.0689 42.2601 43.0189 42.199 42.956C42.1008 42.8634 42.034 42.7424 42.0079 42.61C41.4967 42.9714 40.884 43.1612 40.2579 43.152C39.8576 43.1581 39.4604 43.0805 39.0918 42.9244C38.7231 42.7682 38.3911 42.5368 38.117 42.245C37.8327 41.9545 37.6091 41.6105 37.4591 41.2328C37.309 40.8551 37.2356 40.4513 37.243 40.045C37.2349 39.6393 37.3087 39.2362 37.4601 38.8597C37.6115 38.4832 37.8373 38.1412 38.1239 37.854C38.3992 37.5663 38.7307 37.3384 39.0978 37.1844C39.465 37.0305 39.8599 36.9537 40.2579 36.959C40.8841 36.948 41.4973 37.1375 42.0079 37.5C42.0342 37.3682 42.1006 37.2477 42.1979 37.155C42.3239 37.0294 42.4945 36.9589 42.6724 36.9589C42.8503 36.9589 43.021 37.0294 43.147 37.155M33.2689 36.955C32.8699 36.9486 32.4738 37.0237 32.1048 37.1757C31.7358 37.3277 31.4017 37.5534 31.1229 37.839C30.8353 38.1232 30.6086 38.4631 30.457 38.838C30.3053 39.2129 30.2318 39.6147 30.2409 40.019V42.476C30.2408 42.5642 30.2585 42.6516 30.2928 42.7329C30.3272 42.8141 30.3776 42.8876 30.441 42.949C30.5018 43.0129 30.5749 43.0637 30.656 43.0985C30.737 43.1332 30.8243 43.1511 30.9125 43.1511C31.0006 43.1511 31.0879 43.1332 31.169 43.0985C31.25 43.0637 31.3231 43.0129 31.384 42.949C31.4476 42.8879 31.4982 42.8144 31.5325 42.7331C31.5669 42.6518 31.5844 42.5643 31.5839 42.476V39.939C31.5745 39.7029 31.6135 39.4674 31.6985 39.247C31.7834 39.0265 31.9126 38.8257 32.078 38.657C32.2316 38.4985 32.4161 38.3733 32.6201 38.289C32.8241 38.2047 33.0433 38.1632 33.264 38.167C33.4845 38.1633 33.7034 38.2048 33.9073 38.2891C34.1111 38.3734 34.2955 38.4986 34.449 38.657C34.6157 38.8248 34.7457 39.0254 34.8307 39.2461C34.9157 39.4668 34.954 39.7028 34.9429 39.939V42.476C34.9426 42.5635 34.9597 42.6502 34.9932 42.7311C35.0267 42.8119 35.0759 42.8853 35.138 42.947C35.1979 43.0109 35.2704 43.0617 35.351 43.0961C35.4315 43.1306 35.5183 43.1479 35.6059 43.147C35.6944 43.1466 35.7819 43.1287 35.8634 43.0944C35.9449 43.06 36.0188 43.01 36.0809 42.947C36.147 42.8867 36.1997 42.8134 36.2359 42.7316C36.272 42.6498 36.2908 42.5614 36.2909 42.472V40.019C36.2987 39.6157 36.2246 39.2149 36.073 38.8411C35.9214 38.4672 35.6955 38.128 35.4089 37.844C35.1312 37.5574 34.7976 37.3308 34.4289 37.178C34.0601 37.0253 33.664 36.9498 33.2649 36.956M27.4719 41.392C27.8227 41.0309 28.0159 40.5454 28.009 40.042C28.0122 39.796 27.9665 39.5518 27.8745 39.3237C27.7824 39.0955 27.6459 38.8879 27.4729 38.713C27.307 38.5348 27.1057 38.3932 26.8818 38.2975C26.6579 38.2017 26.4164 38.1539 26.173 38.157C25.9282 38.1525 25.6852 38.1997 25.4598 38.2953C25.2345 38.3909 25.0318 38.5329 24.8649 38.712C24.6905 38.8862 24.5527 39.0935 24.4596 39.3217C24.3665 39.55 24.32 39.7945 24.3229 40.041C24.3186 40.2912 24.3638 40.5398 24.4562 40.7724C24.5485 41.005 24.6861 41.217 24.8609 41.396C25.0264 41.579 25.2293 41.7243 25.4559 41.8219C25.6824 41.9196 25.9273 41.9674 26.174 41.962C26.4188 41.9647 26.6613 41.9151 26.8855 41.8167C27.1097 41.7182 27.3103 41.5731 27.4739 41.391M28.38 37.855C28.6735 38.1377 28.9058 38.4777 29.0623 38.8539C29.2189 39.2301 29.2964 39.6346 29.29 40.042C29.2961 40.4513 29.2186 40.8575 29.0623 41.2358C28.906 41.614 28.6742 41.9564 28.3809 42.242C28.0942 42.5365 27.7505 42.7694 27.3706 42.9264C26.9908 43.0834 26.5829 43.1612 26.1719 43.155C25.7614 43.162 25.3539 43.0849 24.9743 42.9284C24.5947 42.7719 24.2512 42.5393 23.9649 42.245C23.6742 41.958 23.4446 41.6151 23.29 41.2371C23.1353 40.859 23.0588 40.4535 23.065 40.045C23.0575 39.6376 23.1335 39.2329 23.2883 38.856C23.4431 38.479 23.6733 38.1377 23.9649 37.853C24.2533 37.5623 24.5977 37.3332 24.9772 37.1795C25.3568 37.0259 25.7636 36.9508 26.173 36.959C26.5826 36.9527 26.9893 37.0291 27.3688 37.1838C27.7482 37.3384 28.0924 37.5681 28.3809 37.859M20.6749 34.922C20.595 34.9999 20.5318 35.0933 20.4893 35.1964C20.4468 35.2996 20.426 35.4104 20.428 35.522C20.426 35.6336 20.4469 35.7444 20.4894 35.8476C20.5319 35.9507 20.595 36.0441 20.6749 36.122C20.7528 36.2021 20.8461 36.2654 20.9493 36.308C21.0525 36.3507 21.1633 36.3718 21.2749 36.37C21.3866 36.3719 21.4974 36.3508 21.6006 36.3082C21.7038 36.2655 21.7972 36.2022 21.8749 36.122C21.9549 36.0442 22.0181 35.9508 22.0606 35.8476C22.103 35.7444 22.1239 35.6336 22.122 35.522C22.1239 35.4104 22.103 35.2996 22.0606 35.1964C22.0181 35.0933 21.9549 34.9999 21.8749 34.922C21.7963 34.8429 21.7028 34.7802 21.5999 34.7373C21.4969 34.6945 21.3865 34.6724 21.2749 34.6724C21.1634 34.6724 21.053 34.6945 20.95 34.7373C20.847 34.7802 20.7536 34.8429 20.6749 34.922ZM20.8049 37.278C20.7429 37.3397 20.6937 37.4131 20.6602 37.494C20.6268 37.5748 20.6096 37.6615 20.6099 37.749V42.476C20.6102 42.564 20.6281 42.6511 20.6624 42.7322C20.6967 42.8132 20.7469 42.8866 20.8099 42.948C20.8697 43.0116 20.9419 43.0622 21.0221 43.0966C21.1023 43.1311 21.1887 43.1485 21.2759 43.148C21.3654 43.1496 21.4543 43.1327 21.5369 43.0983C21.6195 43.0639 21.6941 43.0127 21.7559 42.948C21.818 42.8864 21.8673 42.813 21.9008 42.7321C21.9342 42.6512 21.9513 42.5645 21.9509 42.477V37.745C21.9512 37.6575 21.9341 37.5708 21.9007 37.49C21.8672 37.4091 21.818 37.3357 21.7559 37.274C21.6949 37.2098 21.6215 37.1586 21.5401 37.1237C21.4587 37.0887 21.371 37.0707 21.2824 37.0707C21.1939 37.0707 21.1062 37.0887 21.0248 37.1237C20.9434 37.1586 20.8699 37.2098 20.8089 37.274M19.2089 38.294C19.2887 38.2943 19.3677 38.2788 19.4414 38.2482C19.515 38.2176 19.5819 38.1727 19.6379 38.116C19.6983 38.0601 19.7463 37.9922 19.7787 37.9165C19.8111 37.8409 19.8272 37.7593 19.8259 37.677C19.8275 37.596 19.8121 37.5155 19.7808 37.4408C19.7494 37.3661 19.7028 37.2987 19.6439 37.243C19.5865 37.1866 19.5183 37.1422 19.4434 37.1127C19.3685 37.0831 19.2885 37.069 19.208 37.071H18.2829V36.212C18.2836 36.1245 18.2661 36.0377 18.2317 35.9572C18.1973 35.8767 18.1467 35.8041 18.083 35.744C17.9559 35.6197 17.7852 35.5501 17.6074 35.5501C17.4297 35.5501 17.259 35.6197 17.1319 35.744C17.068 35.8039 17.0172 35.8764 16.9828 35.957C16.9483 36.0376 16.931 36.1244 16.932 36.212V37.069H16.6119C16.5316 37.0686 16.452 37.0851 16.3784 37.1175C16.3048 37.1499 16.2389 37.1974 16.1849 37.257C16.1291 37.3114 16.0846 37.3764 16.054 37.4482C16.0235 37.5199 16.0075 37.597 16.0069 37.675C16.005 37.7553 16.0193 37.8352 16.0488 37.91C16.0784 37.9847 16.1226 38.0527 16.1789 38.11C16.2341 38.1694 16.3012 38.2164 16.3758 38.248C16.4504 38.2795 16.5309 38.2949 16.6119 38.293H16.932V41.482C16.9301 41.6855 16.9692 41.8872 17.0471 42.0751C17.1249 42.2631 17.2398 42.4335 17.385 42.576C17.5284 42.7252 17.7011 42.8431 17.8923 42.9222C18.0835 43.0014 18.2891 43.0401 18.496 43.036H19.0679C19.1485 43.0379 19.2286 43.0236 19.3035 42.9939C19.3784 42.9642 19.4466 42.9197 19.5039 42.863C19.5626 42.8075 19.609 42.7403 19.64 42.6657C19.671 42.5911 19.686 42.5108 19.6839 42.43C19.6853 42.3489 19.6703 42.2684 19.6397 42.1933C19.6091 42.1182 19.5636 42.05 19.5059 41.993C19.449 41.9349 19.3808 41.8889 19.3055 41.858C19.2302 41.827 19.1493 41.8117 19.0679 41.813H18.6229C18.5361 41.8113 18.4535 41.7753 18.393 41.713C18.36 41.6843 18.334 41.6485 18.3167 41.6083C18.2994 41.5682 18.2913 41.5247 18.2929 41.481V38.294H19.2089ZM13.6359 41.406C13.9625 41.0276 14.1374 40.5417 14.1269 40.042C14.1414 39.5452 13.9641 39.0618 13.6319 38.692C13.4777 38.5154 13.2864 38.3748 13.0718 38.2803C12.8572 38.1858 12.6244 38.1396 12.3899 38.145C12.1461 38.1377 11.9035 38.1835 11.6791 38.2792C11.4546 38.3748 11.2536 38.5181 11.0899 38.699C10.7483 39.0615 10.5618 39.543 10.57 40.041C10.5582 40.5457 10.7457 41.0347 11.092 41.402C11.2547 41.5845 11.4553 41.7293 11.6799 41.826C11.9045 41.9227 12.1475 41.9692 12.3919 41.962C12.6285 41.97 12.8637 41.9241 13.0798 41.8275C13.2959 41.731 13.4871 41.5865 13.639 41.405M15.1999 37.152C15.2641 37.2139 15.3149 37.2882 15.3493 37.3704C15.3837 37.4526 15.4009 37.5409 15.3999 37.63V42.476C15.4013 42.5655 15.3842 42.6542 15.3498 42.7368C15.3154 42.8194 15.2644 42.894 15.1999 42.956C15.1386 43.0189 15.0654 43.069 14.9845 43.1033C14.9037 43.1376 14.8168 43.1555 14.729 43.156C14.6413 43.1555 14.5545 43.1376 14.4739 43.1033C14.3932 43.0689 14.3201 43.0189 14.259 42.956C14.1611 42.8632 14.0943 42.7423 14.0679 42.61C13.5568 42.9715 12.944 43.1613 12.3179 43.152C11.9176 43.1581 11.5204 43.0805 11.1518 42.9244C10.7831 42.7682 10.4511 42.5368 10.177 42.245C9.89274 41.9545 9.6691 41.6105 9.51905 41.2328C9.36901 40.8551 9.29556 40.4513 9.30296 40.045C9.29487 39.6393 9.36871 39.2362 9.52009 38.8597C9.67147 38.4832 9.89725 38.1412 10.1839 37.854C10.4592 37.5663 10.7907 37.3384 11.1578 37.1844C11.525 37.0305 11.9199 36.9537 12.3179 36.959C12.9441 36.948 13.5573 37.1375 14.0679 37.5C14.0942 37.3684 14.1602 37.248 14.2569 37.155C14.3829 37.0294 14.5536 36.9589 14.7315 36.9589C14.9093 36.9589 15.08 37.0294 15.2059 37.155M7.92994 34.869C7.9942 34.9306 8.0451 35.0047 8.07951 35.0867C8.11391 35.1688 8.1311 35.257 8.12995 35.346V42.354C8.1302 42.4427 8.11261 42.5306 8.07826 42.6123C8.0439 42.6941 7.99347 42.7681 7.92994 42.83C7.86845 42.8966 7.79373 42.9496 7.71055 42.9856C7.62737 43.0216 7.53757 43.0398 7.44694 43.039H6.96495C6.84144 43.04 6.71974 43.0093 6.61152 42.9497C6.50331 42.8902 6.4122 42.8039 6.34693 42.699L2.26493 36.803V42.466C2.26932 42.6451 2.20491 42.819 2.08494 42.952C2.02526 43.0168 1.9525 43.0681 1.87147 43.1026C1.79044 43.1371 1.70298 43.1539 1.61494 43.152C1.52577 43.1535 1.43726 43.1366 1.35499 43.1021C1.27272 43.0677 1.19846 43.0166 1.13694 42.952C1.07419 42.8886 1.02463 42.8133 0.99116 42.7305C0.957688 42.6478 0.940959 42.5593 0.941935 42.47V35.47C0.942297 35.3814 0.960165 35.2938 0.994486 35.2121C1.02881 35.1304 1.07892 35.0563 1.14195 34.994C1.20336 34.9276 1.27795 34.8747 1.36094 34.8387C1.44393 34.8028 1.53349 34.7845 1.62394 34.785H2.09095C2.21511 34.784 2.33734 34.8156 2.44544 34.8767C2.55355 34.9378 2.64373 35.0262 2.70695 35.133L6.79093 41.033V35.343C6.78755 35.1672 6.85326 34.997 6.97395 34.869C7.03573 34.8063 7.10936 34.7565 7.19056 34.7225C7.27176 34.6885 7.35891 34.671 7.44694 34.671C7.53497 34.671 7.62212 34.6885 7.70332 34.7225C7.78452 34.7565 7.85815 34.8063 7.91993 34.869" fill="#042147"/>
</g>
<defs>
<linearGradient id="paint0_linear_2427_239" x1="186.24" y1="27.8931" x2="201.378" y2="45.7887" gradientUnits="userSpaceOnUse">
<stop stop-color="#D3F0F9"/>
<stop offset="0.448" stop-color="#A2D0E0"/>
<stop offset="1" stop-color="#72A3C4"/>
</linearGradient>
<linearGradient id="paint1_linear_2427_239" x1="172.815" y1="66.8194" x2="172.815" y2="-8.60653" gradientUnits="userSpaceOnUse">
<stop stop-color="#00AF8D"/>
<stop offset="0.634" stop-color="#288BC5"/>
<stop offset="1" stop-color="#11448C"/>
</linearGradient>
<clipPath id="clip0_2427_239">
<rect width="204.878" height="60" fill="white" transform="translate(0.87793 0.0297852)"/>
</clipPath>
</defs>
</svg>
